<svg xmlns="http://www.w3.org/2000/svg" xmlns:xlink="http://www.w3.org/1999/xlink" width="112" height="112" viewBox="0 0 112 112">
  <defs>
    <clipPath id="clip-path">
      <ellipse id="Elipse_7690" data-name="Elipse 7690" cx="56" cy="56" rx="56" ry="56" transform="translate(766.167 600.631)" fill="#fff"/>
    </clipPath>
  </defs>
  <g id="Enmascarar_grupo_192" data-name="Enmascarar grupo 192" transform="translate(-766.167 -600.631)" clip-path="url(#clip-path)">
    <ellipse id="Elipse_7689" data-name="Elipse 7689" cx="56" cy="56" rx="56" ry="56" transform="translate(766.167 600.631)" fill="#fff"/>
    <g id="plagas" transform="translate(720.879 606.837)">
      <path id="Trazado_642898" data-name="Trazado 642898" d="M141.093,44.342a6.948,6.948,0,0,0,4.012-6.834c-1.1-15.018-7.838-24.628-9.717-27.042a.612.612,0,0,0-.951-.024c-4.394,5.2-12.813,8.776-15.331,9.766a.438.438,0,0,0-.129.736A5.256,5.256,0,0,1,120.45,23.2c1.515,4.4-1.539,8.409-6.247,8.508a6.868,6.868,0,0,1-.708-.041.437.437,0,0,0-.482.449,9.56,9.56,0,0,1-.36,3.106,9.714,9.714,0,0,1-6.3,6.418c-7.8,2.649-12.449-2.364-12.449-2.364C48.99,54.86,56.09,103.9,56.09,103.9c1.276,11.229,0,17.824,0,17.824,10.23-3.33,29.16-5.189,39-5.97a43.809,43.809,0,0,0,15.9-4.235c25.185-12.395,29.536-33.38,30.227-38.384a.788.788,0,0,0-.891-.885c-5.9.784-10.1-6.4-5.916-11.121A10.875,10.875,0,0,1,137.7,58.68a.786.786,0,0,0,.291-1.175,10.769,10.769,0,0,1-1.807-5.429,7.33,7.33,0,0,1,.869-4.232,8.739,8.739,0,0,1,4.043-3.5Zm-22.762,48.7a6.464,6.464,0,1,1-12.838-1.523c.015-.123.041-.242.062-.363a4.971,4.971,0,1,1,7.289-5.266,6.46,6.46,0,0,1,5.487,7.151Z" transform="translate(-6.504)" fill="#abd37d"/>
      <path id="Trazado_642899" data-name="Trazado 642899" d="M48.9,194.157a3.91,3.91,0,0,1-3.077-5.871c5.284-9.069,19.4-31.965,35.317-46.738a260.556,260.556,0,0,0,26.351-28.181.7.7,0,0,1,1.167.77,117.953,117.953,0,0,1-18.91,25.483c-3.886,3.983-7.642,8.089-11.171,12.391-7.839,9.554-19.54,25.14-25.657,39.736a3.94,3.94,0,0,1-3.881,2.419l-.139-.009Z" transform="translate(0 -64.379)" fill="#769344"/>
      <path id="Trazado_642900" data-name="Trazado 642900" d="M88.794,167.445a1.5,1.5,0,0,1-1.412-1,12.447,12.447,0,0,1-.469-7.332,1.5,1.5,0,1,1,2.859.885,9.71,9.71,0,0,0,.434,5.456,1.5,1.5,0,0,1-1.412,1.992Z" transform="translate(-25.84 -92.515)" fill="#2b313f"/>
      <path id="Trazado_642901" data-name="Trazado 642901" d="M127.121,153.794a1.491,1.491,0,0,1-.992-.374c-2.054-1.818-3.11-5.547-3.223-5.966a1.5,1.5,0,1,1,2.889-.783c.246.9,1.142,3.467,2.32,4.508a1.5,1.5,0,0,1-.993,2.617Z" transform="translate(-48.542 -84.697)" fill="#2b313f"/>
      <path id="Trazado_642902" data-name="Trazado 642902" d="M152.946,126.741a10.325,10.325,0,0,1-6.908-2.254l2.091-2.142-.037-.035a9.083,9.083,0,0,0,4.855,1.438,1.5,1.5,0,0,1,0,2.993Z" transform="translate(-63.052 -70.144)" fill="#2b313f"/>
      <path id="Trazado_642903" data-name="Trazado 642903" d="M95.728,83.274q-.12.278-.245.559a32.591,32.591,0,0,1-23.093,18.545,25.174,25.174,0,0,1-13.907-.809,1.71,1.71,0,0,1-1.065-1.153c-.644-2.395-1.926-9.637,3-18.094A31.009,31.009,0,0,1,79.8,68.066c1.039-.262,2.137-.5,3.289-.69C89.121,71.011,93.163,76.466,95.728,83.274Z" transform="translate(-7.189 -35.765)" fill="#ea5e5e"/>
      <path id="Trazado_642904" data-name="Trazado 642904" d="M121.445,67.372c-1.152.194-2.25.429-3.289.69l-.092.025c.094,4.75,1.759,15.545,14.678,17.947.391-.719.758-1.453,1.1-2.2q.126-.28.245-.559C131.519,76.463,127.477,71.008,121.445,67.372Z" transform="translate(-45.545 -35.762)" fill="#c13d3d"/>
      <path id="Trazado_642905" data-name="Trazado 642905" d="M89.525,81.164c-11.839,7.363-24.458,17.655-32.479,24.808a18.874,18.874,0,0,0,.541,3.072,1.71,1.71,0,0,0,1.065,1.153c.037.014.075.025.112.037a270.06,270.06,0,0,1,32.845-26.5,29.1,29.1,0,0,0-2.084-2.574Z" transform="translate(-7.359 -44.394)" fill="#c13d3d"/>
      <path id="Trazado_642906" data-name="Trazado 642906" d="M137.01,66a39.848,39.848,0,0,0-10.065.424,14.537,14.537,0,0,0-.093,1.619,14.374,14.374,0,0,0,12.727,14.278,36.735,36.735,0,0,0,2.675-9.923A5.75,5.75,0,0,0,137.01,66Z" transform="translate(-51.045 -34.817)" fill="#2b313f"/>
      <path id="Trazado_642907" data-name="Trazado 642907" d="M137.429,51.856a1.5,1.5,0,0,1-1.44-1.908,17.946,17.946,0,0,0,.01-9.195,1.5,1.5,0,0,1,2.856-.9,20.7,20.7,0,0,1,.011,10.914A1.5,1.5,0,0,1,137.429,51.856Z" transform="translate(-56.726 -17.885)" fill="#2b313f"/>
      <path id="Trazado_642908" data-name="Trazado 642908" d="M169.006,95.514a1.491,1.491,0,0,1-.78-.221,18.044,18.044,0,0,0-7.8-2.292,1.5,1.5,0,1,1,.042-2.993h.041a20.83,20.83,0,0,1,9.28,2.732A1.5,1.5,0,0,1,169,95.512Z" transform="translate(-71.132 -49.928)" fill="#2b313f"/>
      <g id="Grupo_1004823" data-name="Grupo 1004823" transform="translate(64.45 55.598)">
        <path id="Trazado_642909" data-name="Trazado 642909" d="M96.5,250.722s11.519-3.4,21.387-4.055a.445.445,0,0,0,.045-.884,77.344,77.344,0,0,0-18.359-.874Z" transform="translate(-96.5 -202.343)" fill="#769344"/>
        <path id="Trazado_642910" data-name="Trazado 642910" d="M114.591,200.212s.565-8.992.253-14.036a.286.286,0,0,1,.553-.119c.978,2.719,2.475,7.491,2.285,10.784Z" transform="translate(-107.822 -165.518)" fill="#769344"/>
        <path id="Trazado_642911" data-name="Trazado 642911" d="M149.562,188.1s3.937-1.186,13.188-1.391a.4.4,0,0,0,.1-.786c-3.1-.823-8.117-1.985-10.765-1.666Z" transform="translate(-129.707 -164.475)" fill="#769344"/>
        <path id="Trazado_642912" data-name="Trazado 642912" d="M172.586,142.927a100.321,100.321,0,0,0,1.771-11.063.412.412,0,0,1,.809-.075,34.252,34.252,0,0,1,.979,6.6Z" transform="translate(-144.116 -131.48)" fill="#769344"/>
      </g>
    </g>
  </g>
</svg>
