<svg xmlns="http://www.w3.org/2000/svg" width="39.203" height="27.027" viewBox="0 0 39.203 27.027">
  <path id="Trazado_644001" data-name="Trazado 644001" d="M19.494-10.876q0,5.456-2.258,8.347A7.883,7.883,0,0,1,10.623.361,7.938,7.938,0,0,1,4.047-2.475Q1.771-5.312,1.716-10.6v-4.842q0-5.51,2.285-8.365a7.942,7.942,0,0,1,6.585-2.854,7.949,7.949,0,0,1,6.576,2.827q2.276,2.827,2.331,8.121ZM14.272-16.2a9.632,9.632,0,0,0-.894-4.765,3.022,3.022,0,0,0-2.791-1.492,2.968,2.968,0,0,0-2.719,1.42,9.014,9.014,0,0,0-.93,4.44v6.4a10.111,10.111,0,0,0,.876,4.783,2.982,2.982,0,0,0,2.809,1.564,2.932,2.932,0,0,0,2.764-1.5,9.869,9.869,0,0,0,.885-4.593Zm9.521,3.264L25.311-26.3H40.053v4.354H29.593l-.65,5.655A8.278,8.278,0,0,1,32.9-17.29a7.582,7.582,0,0,1,5.89,2.331A9.309,9.309,0,0,1,40.92-8.437a9.537,9.537,0,0,1-1.075,4.562A7.587,7.587,0,0,1,36.765-.75,9.616,9.616,0,0,1,32.032.361a10.211,10.211,0,0,1-4.426-.967,7.851,7.851,0,0,1-3.225-2.719,7.41,7.41,0,0,1-1.256-3.993h5.167A3.859,3.859,0,0,0,29.439-4.76a3.637,3.637,0,0,0,2.574.912,3.21,3.21,0,0,0,2.728-1.274,5.9,5.9,0,0,0,.958-3.6,4.879,4.879,0,0,0-1.1-3.433,4.044,4.044,0,0,0-3.125-1.192,4.52,4.52,0,0,0-3.017.976l-.506.47Z" transform="translate(-1.717 26.666)" fill="#eff5d6"/>
</svg>
