<svg xmlns="http://www.w3.org/2000/svg" xmlns:xlink="http://www.w3.org/1999/xlink" width="380.921" height="94.273" viewBox="0 0 380.921 94.273">
  <defs>
    <clipPath id="clip-path">
      <rect id="Rectángulo_347355" data-name="Rectángulo 347355" width="46.361" height="10.275" fill="none"/>
    </clipPath>
    <clipPath id="clip-path-2">
      <rect id="Rectángulo_347356" data-name="Rectángulo 347356" width="34.17" height="1.642" fill="none"/>
    </clipPath>
    <clipPath id="clip-path-3">
      <rect id="Rectángulo_347357" data-name="Rectángulo 347357" width="42.573" height="29.2" fill="none"/>
    </clipPath>
    <clipPath id="clip-path-4">
      <rect id="Rectángulo_347358" data-name="Rectángulo 347358" width="28.997" height="17.105" fill="none"/>
    </clipPath>
    <clipPath id="clip-path-5">
      <rect id="Rectángulo_347359" data-name="Rectángulo 347359" width="33.555" height="49.199" fill="none"/>
    </clipPath>
    <clipPath id="clip-path-6">
      <rect id="Rectángulo_347360" data-name="Rectángulo 347360" width="22.581" height="35.712" fill="none"/>
    </clipPath>
    <clipPath id="clip-path-7">
      <rect id="Rectángulo_347361" data-name="Rectángulo 347361" width="14.616" height="47.786" fill="none"/>
    </clipPath>
    <clipPath id="clip-path-8">
      <rect id="Rectángulo_347362" data-name="Rectángulo 347362" width="4.61" height="34.454" fill="none"/>
    </clipPath>
    <clipPath id="clip-path-9">
      <rect id="Rectángulo_347363" data-name="Rectángulo 347363" width="25.851" height="48.249" fill="none"/>
    </clipPath>
    <clipPath id="clip-path-10">
      <rect id="Rectángulo_347364" data-name="Rectángulo 347364" width="13.809" height="31.942" fill="none"/>
    </clipPath>
    <clipPath id="clip-path-11">
      <rect id="Rectángulo_347365" data-name="Rectángulo 347365" width="73.835" height="14.806" fill="none"/>
    </clipPath>
    <clipPath id="clip-path-12">
      <rect id="Rectángulo_347366" data-name="Rectángulo 347366" width="73.902" height="13.348" fill="none"/>
    </clipPath>
    <clipPath id="clip-path-13">
      <rect id="Rectángulo_347367" data-name="Rectángulo 347367" width="56.228" height="36.662" fill="none"/>
    </clipPath>
    <clipPath id="clip-path-14">
      <rect id="Rectángulo_347368" data-name="Rectángulo 347368" width="10.226" height="7.676" fill="none"/>
    </clipPath>
    <clipPath id="clip-path-15">
      <rect id="Rectángulo_347369" data-name="Rectángulo 347369" width="13.466" height="6.771" fill="none"/>
    </clipPath>
    <clipPath id="clip-path-16">
      <rect id="Rectángulo_347370" data-name="Rectángulo 347370" width="7.767" height="3.555" fill="none"/>
    </clipPath>
    <clipPath id="clip-path-17">
      <rect id="Rectángulo_347371" data-name="Rectángulo 347371" width="4.611" height="8.568" fill="none"/>
    </clipPath>
    <clipPath id="clip-path-18">
      <rect id="Rectángulo_347372" data-name="Rectángulo 347372" width="13.434" height="13.05" fill="none"/>
    </clipPath>
    <clipPath id="clip-path-19">
      <rect id="Rectángulo_347373" data-name="Rectángulo 347373" width="7.996" height="4.813" fill="none"/>
    </clipPath>
    <clipPath id="clip-path-20">
      <rect id="Rectángulo_347374" data-name="Rectángulo 347374" width="15.801" height="6.286" fill="none"/>
    </clipPath>
    <clipPath id="clip-path-21">
      <rect id="Rectángulo_347375" data-name="Rectángulo 347375" width="18.517" height="6.624" fill="none"/>
    </clipPath>
    <clipPath id="clip-path-22">
      <rect id="Rectángulo_347376" data-name="Rectángulo 347376" width="10.688" height="3.517" fill="none"/>
    </clipPath>
    <clipPath id="clip-path-23">
      <rect id="Rectángulo_347377" data-name="Rectángulo 347377" width="36.05" height="36.641" fill="none"/>
    </clipPath>
    <clipPath id="clip-path-24">
      <rect id="Rectángulo_347378" data-name="Rectángulo 347378" width="29.928" height="27.784" fill="none"/>
    </clipPath>
    <clipPath id="clip-path-25">
      <rect id="Rectángulo_347379" data-name="Rectángulo 347379" width="5" height="21.576" fill="none"/>
    </clipPath>
    <clipPath id="clip-path-26">
      <rect id="Rectángulo_347380" data-name="Rectángulo 347380" width="50.041" height="34.263" fill="none"/>
    </clipPath>
    <clipPath id="clip-path-27">
      <rect id="Rectángulo_347381" data-name="Rectángulo 347381" width="9.684" height="34.533" fill="none"/>
    </clipPath>
    <clipPath id="clip-path-28">
      <rect id="Rectángulo_347382" data-name="Rectángulo 347382" width="16.079" height="19.258" fill="none"/>
    </clipPath>
    <clipPath id="clip-path-29">
      <rect id="Rectángulo_347383" data-name="Rectángulo 347383" width="37.732" height="32.097" fill="none"/>
    </clipPath>
    <clipPath id="clip-path-31">
      <rect id="Rectángulo_347384" data-name="Rectángulo 347384" width="15.873" height="32.257" fill="none"/>
    </clipPath>
    <clipPath id="clip-path-33">
      <rect id="Rectángulo_347385" data-name="Rectángulo 347385" width="10.495" height="20.417" fill="none"/>
    </clipPath>
  </defs>
  <g id="Grupo_1004825" data-name="Grupo 1004825" transform="translate(-1020 -2514.879)">
    <path id="Trazado_630401" data-name="Trazado 630401" d="M67.327,23.647a4.619,4.619,0,1,1,.261,9.23l-36.824,1.04a4.619,4.619,0,1,1-.26-9.23Z" transform="translate(1036.578 2499.654)" fill="#9e7dc2"/>
    <path id="Trazado_630402" data-name="Trazado 630402" d="M30.595,34.075a4.847,4.847,0,0,1-4.938-4.659,4.7,4.7,0,0,1,1.355-3.436,4.993,4.993,0,0,1,3.459-1.5l36.824-1.042a4.853,4.853,0,0,1,5.085,4.659,4.691,4.691,0,0,1-1.355,3.435,5,5,0,0,1-3.458,1.5L30.742,34.073l-.148,0M67.442,23.8l-.137,0-36.824,1.04a4.636,4.636,0,0,0-3.207,1.393A4.334,4.334,0,0,0,26.023,29.4a4.484,4.484,0,0,0,4.709,4.3l36.823-1.04a4.641,4.641,0,0,0,3.208-1.392A4.334,4.334,0,0,0,72.014,28.1,4.483,4.483,0,0,0,67.442,23.8" transform="translate(1036.605 2499.682)" fill="#694a93"/>
    <g id="Grupo_1004303" data-name="Grupo 1004303" transform="translate(1062.443 2523.298)" opacity="0.5" style="mix-blend-mode: multiply;isolation: isolate">
      <g id="Grupo_1004302" data-name="Grupo 1004302" transform="translate(0 0)">
        <g id="Grupo_1004301" data-name="Grupo 1004301" clip-path="url(#clip-path)">
          <path id="Trazado_630403" data-name="Trazado 630403" d="M67.327,23.647l-.218.006a3.384,3.384,0,0,1,.685,5.171,5,5,0,0,1-2.581,1.158,37.536,37.536,0,0,1-4.971.374c-3.4.189-6.8.217-10.2.434-3.649.233-6.854.377-10.836.463-2.481.051-5.779.337-8.135-.594C29.4,30,28.138,28.666,29.019,26.743a5.209,5.209,0,0,1,1.951-2.069l-.465.013a4.619,4.619,0,1,0,.26,9.23l36.824-1.04a4.619,4.619,0,1,0-.261-9.23" transform="translate(-25.866 -23.645)" fill="#9e7dc2"/>
        </g>
      </g>
    </g>
    <g id="Grupo_1004306" data-name="Grupo 1004306" transform="translate(1068.541 2523.86)" style="mix-blend-mode: screen;isolation: isolate">
      <g id="Grupo_1004305" data-name="Grupo 1004305" transform="translate(0 0)">
        <g id="Grupo_1004304" data-name="Grupo 1004304" clip-path="url(#clip-path-2)">
          <path id="Trazado_630404" data-name="Trazado 630404" d="M66.943,24.293c-5.38.323-10.781.2-16.168.393-5.859.213-11.7.534-17.553.81-.167.008-.462.363-.261.37,5.39.222,10.889-.16,16.286-.344,5.709-.2,11.482.083,17.164-.469.357-.036.895-.781.532-.76" transform="translate(-32.893 -24.292)" fill="#9e7dc2"/>
        </g>
      </g>
    </g>
    <path id="Trazado_630405" data-name="Trazado 630405" d="M40.4,52.313a4.945,4.945,0,1,1-5.116,8.463L2.6,41.02a4.944,4.944,0,0,1,5.116-8.462Z" transform="translate(1019.972 2496.577)" fill="#9e7dc2"/>
    <path id="Trazado_630406" data-name="Trazado 630406" d="M37.809,61.644a5.121,5.121,0,0,1-2.648-.74L2.476,41.149a5.128,5.128,0,1,1,5.306-8.776L40.466,52.13a5.127,5.127,0,0,1-2.657,9.514M5.134,32a4.763,4.763,0,0,0-2.469,8.838L35.35,60.592a4.761,4.761,0,1,0,4.927-8.149L7.593,32.685A4.746,4.746,0,0,0,5.134,32" transform="translate(1020 2496.604)" fill="#694a93"/>
    <g id="Grupo_1004309" data-name="Grupo 1004309" transform="translate(1020.183 2528.867)" opacity="0.5" style="mix-blend-mode: multiply;isolation: isolate">
      <g id="Grupo_1004308" data-name="Grupo 1004308" transform="translate(0 0)">
        <g id="Grupo_1004307" data-name="Grupo 1004307" clip-path="url(#clip-path-3)">
          <path id="Trazado_630407" data-name="Trazado 630407" d="M42.069,54.053a4,4,0,0,1-.048,1.6,3.234,3.234,0,0,1-4.365,2.426,19.366,19.366,0,0,1-3.844-2.009c-1.23-.767-2.508-1.451-3.729-2.229-3.039-1.939-5.962-3.98-9.132-5.712-3.19-1.743-6.318-3.531-9.373-5.5-1.8-1.161-3.816-1.947-5.647-3.059-1.451-.882-3.384-2.086-3.79-3.875a3.287,3.287,0,0,1,.964-3.33,4.945,4.945,0,0,0-.5,8.73L35.284,60.845a4.943,4.943,0,0,0,6.785-6.792" transform="translate(-0.212 -32.359)" fill="#9e7dc2"/>
        </g>
      </g>
    </g>
    <g id="Grupo_1004312" data-name="Grupo 1004312" transform="translate(1028.477 2531.352)" style="mix-blend-mode: screen;isolation: isolate">
      <g id="Grupo_1004311" data-name="Grupo 1004311" transform="translate(0 0)">
        <g id="Grupo_1004310" data-name="Grupo 1004310" clip-path="url(#clip-path-4)">
          <path id="Trazado_630408" data-name="Trazado 630408" d="M38.7,51.926c-4.613-2.55-9-5.492-13.556-8.153-4.95-2.9-9.944-5.689-14.924-8.528-.141-.08-.575.065-.415.176,4.331,3.017,9.074,5.58,13.63,8.256,4.818,2.83,9.434,6.1,14.419,8.609.314.159,1.157-.19.846-.361" transform="translate(-9.77 -35.223)" fill="#9e7dc2"/>
        </g>
      </g>
    </g>
    <path id="Trazado_630409" data-name="Trazado 630409" d="M80.544,78.833c1.658,2.723,1.111,6.082-1.22,7.5s-5.567.364-7.225-2.357L48.906,45.9c-1.659-2.722-1.112-6.082,1.219-7.5s5.568-.365,7.227,2.358Z" transform="translate(1009.565 2489.536)" fill="#9e7dc2"/>
    <path id="Trazado_630410" data-name="Trazado 630410" d="M77.006,87.122a6.122,6.122,0,0,1-5.092-3.078L48.721,45.967a6.429,6.429,0,0,1-.909-4.363A4.758,4.758,0,0,1,50,38.216a4.568,4.568,0,0,1,2.385-.659,6.125,6.125,0,0,1,5.092,3.076L80.672,78.71c1.707,2.8,1.133,6.282-1.281,7.752a4.583,4.583,0,0,1-2.385.659m-24.619-49.2a4.211,4.211,0,0,0-2.2.606,4.4,4.4,0,0,0-2.021,3.135,6.077,6.077,0,0,0,.862,4.117L72.227,83.854a5.758,5.758,0,0,0,4.779,2.9,4.165,4.165,0,0,0,2.2-.6c2.242-1.367,2.762-4.618,1.158-7.251L57.167,40.823a5.756,5.756,0,0,0-4.779-2.9" transform="translate(1009.593 2489.564)" fill="#694a93"/>
    <g id="Grupo_1004315" data-name="Grupo 1004315" transform="translate(1057.512 2527.304)" opacity="0.5" style="mix-blend-mode: multiply;isolation: isolate">
      <g id="Grupo_1004314" data-name="Grupo 1004314" transform="translate(0 0)">
        <g id="Grupo_1004313" data-name="Grupo 1004313" clip-path="url(#clip-path-5)">
          <path id="Trazado_630411" data-name="Trazado 630411" d="M76.581,81.563c-2.551-.416-4.365-2.954-5.557-5.027C67.5,70.4,64.283,64.094,60.563,58.074c-1.675-2.712-3.6-5.249-5.308-7.938-1.5-2.365-3.026-4.986-3.377-7.818-.194-1.571-.027-3.617,1.616-4.391a.508.508,0,0,1,.056-.023,4.519,4.519,0,0,0-3.425.5c-2.332,1.42-2.879,4.78-1.22,7.5L72.1,83.977c1.658,2.723,4.893,3.78,7.225,2.357,2.2-1.338,2.807-4.4,1.484-7.023a4.065,4.065,0,0,1-4.226,2.251" transform="translate(-47.947 -37.768)" fill="#9e7dc2"/>
        </g>
      </g>
    </g>
    <g id="Grupo_1004318" data-name="Grupo 1004318" transform="translate(1065.144 2530.044)" style="mix-blend-mode: screen;isolation: isolate">
      <g id="Grupo_1004317" data-name="Grupo 1004317" transform="translate(0 0)">
        <g id="Grupo_1004316" data-name="Grupo 1004316" clip-path="url(#clip-path-6)">
          <path id="Trazado_630412" data-name="Trazado 630412" d="M79.284,76.438c-3.63-5.569-6.882-11.381-10.406-17.02-3.833-6.133-7.748-12.192-11.632-18.286-.11-.174-.6-.313-.486-.094,3.163,5.848,6.919,11.512,10.44,17.168,3.725,5.982,7.077,12.266,11.093,18.039.252.364,1.235.567.991.192" transform="translate(-56.743 -40.926)" fill="#9e7dc2"/>
        </g>
      </g>
    </g>
    <path id="Trazado_630413" data-name="Trazado 630413" d="M36.369,104.429a4.944,4.944,0,0,1-9.813,1.223l-4.726-37.9a4.944,4.944,0,0,1,9.813-1.223Z" transform="translate(1013.026 2486.303)" fill="#9e7dc2"/>
    <path id="Trazado_630414" data-name="Trazado 630414" d="M31.429,110.14a5.13,5.13,0,0,1-5.08-4.495l-4.727-37.9A5.127,5.127,0,0,1,31.8,66.481l4.727,37.9A5.133,5.133,0,0,1,32.07,110.1a5.275,5.275,0,0,1-.641.04M26.716,62.353a4.908,4.908,0,0,0-.6.037A4.762,4.762,0,0,0,21.985,67.7l4.726,37.9a4.764,4.764,0,0,0,4.718,4.172,4.572,4.572,0,0,0,.6-.037,4.765,4.765,0,0,0,4.135-5.314l-4.727-37.9a4.763,4.763,0,0,0-4.718-4.173" transform="translate(1013.054 2486.331)" fill="#694a93"/>
    <g id="Grupo_1004321" data-name="Grupo 1004321" transform="translate(1034.818 2548.502)" opacity="0.5" style="mix-blend-mode: multiply;isolation: isolate">
      <g id="Grupo_1004320" data-name="Grupo 1004320" transform="translate(0 0)">
        <g id="Grupo_1004319" data-name="Grupo 1004319" clip-path="url(#clip-path-7)">
          <path id="Trazado_630415" data-name="Trazado 630415" d="M36.091,102.2q-.085.456-.2.908c-.27,1.1-.674,2.62-1.723,3.252-1.232.741-2.787-.158-3.468-1.269-1.514-2.471-1.755-5.851-2.134-8.652-.506-3.742-1.183-7.459-1.831-11.18-.591-3.4-1.184-6.791-1.618-10.21a36.29,36.29,0,0,1-.449-6.758c.1-1.689.385-3.768,1.735-4.963a4.071,4.071,0,0,1,1.734-.924,4.941,4.941,0,0,0-6.312,5.35l4.727,37.9a4.944,4.944,0,1,0,9.812-1.223Z" transform="translate(-21.792 -62.199)" fill="#9e7dc2"/>
        </g>
      </g>
    </g>
    <g id="Grupo_1004324" data-name="Grupo 1004324" transform="translate(1043.367 2552.505)" style="mix-blend-mode: screen;isolation: isolate">
      <g id="Grupo_1004323" data-name="Grupo 1004323" transform="translate(0 0)">
        <g id="Grupo_1004322" data-name="Grupo 1004322" clip-path="url(#clip-path-8)">
          <path id="Trazado_630416" data-name="Trazado 630416" d="M36.252,101.136c-.8-5.415-1.159-10.892-1.836-16.326-.736-5.91-1.579-11.793-2.377-17.691-.023-.167-.4-.436-.394-.233.261,5.474,1.134,11.006,1.8,16.451.705,5.761.944,11.627,2,17.327.066.358.857.838.8.472" transform="translate(-31.645 -66.812)" fill="#9e7dc2"/>
        </g>
      </g>
    </g>
    <path id="Trazado_630417" data-name="Trazado 630417" d="M68.289,108.836a4.956,4.956,0,1,1-9.118,3.826L43.322,74.914a4.956,4.956,0,1,1,9.117-3.828Z" transform="translate(1010.235 2485.569)" fill="#9e7dc2"/>
    <path id="Trazado_630418" data-name="Trazado 630418" d="M63.951,116.154a5.456,5.456,0,0,1-4.976-3.447L43.124,74.957a5.644,5.644,0,0,1-.119-4.148,4.932,4.932,0,0,1,2.723-2.891A4.824,4.824,0,0,1,47.6,67.54a5.457,5.457,0,0,1,4.975,3.448l15.851,37.75a5.642,5.642,0,0,1,.119,4.149,4.926,4.926,0,0,1-2.722,2.89,4.8,4.8,0,0,1-1.874.377M47.6,67.905a4.468,4.468,0,0,0-1.733.348,4.572,4.572,0,0,0-2.521,2.68,5.284,5.284,0,0,0,.113,3.883l15.85,37.75a5.1,5.1,0,0,0,4.64,3.225,4.47,4.47,0,0,0,1.733-.35,4.574,4.574,0,0,0,2.521-2.679,5.282,5.282,0,0,0-.113-3.884L52.243,71.129a5.1,5.1,0,0,0-4.64-3.223" transform="translate(1010.264 2485.596)" fill="#694a93"/>
    <g id="Grupo_1004327" data-name="Grupo 1004327" transform="translate(1053.115 2553.32)" opacity="0.5" style="mix-blend-mode: multiply;isolation: isolate">
      <g id="Grupo_1004326" data-name="Grupo 1004326" transform="translate(0 0)">
        <g id="Grupo_1004325" data-name="Grupo 1004325" clip-path="url(#clip-path-9)">
          <path id="Trazado_630419" data-name="Trazado 630419" d="M68.289,108.837l-.507-1.207a9.64,9.64,0,0,1-.345,1.462c-.353,1.081-1.007,2.318-2.256,2.508-1.964.3-3.807-1.156-4.835-2.685a35.135,35.135,0,0,1-3.424-7.289c-1.311-3.477-2.458-7.014-3.757-10.495-1.116-2.993-2.43-5.912-3.525-8.913a22.608,22.608,0,0,1-1.78-8.364c.061-1.732.4-4,2.215-4.8a3.039,3.039,0,0,1,.659-.2,4.884,4.884,0,0,0-4.908-.739,5.133,5.133,0,0,0-2.506,6.8l15.85,37.748a4.956,4.956,0,1,0,9.118-3.826" transform="translate(-42.88 -67.752)" fill="#9e7dc2"/>
        </g>
      </g>
    </g>
    <g id="Grupo_1004330" data-name="Grupo 1004330" transform="translate(1061.634 2558.249)" style="mix-blend-mode: screen;isolation: isolate">
      <g id="Grupo_1004329" data-name="Grupo 1004329" transform="translate(0 0)">
        <g id="Grupo_1004328" data-name="Grupo 1004328" clip-path="url(#clip-path-10)">
          <path id="Trazado_630420" data-name="Trazado 630420" d="M66.489,105.213c-2.252-4.991-4.089-10.162-6.226-15.2-2.322-5.485-4.739-10.915-7.118-16.371-.067-.154-.507-.309-.442-.115,1.747,5.194,4.1,10.276,6.225,15.333,2.253,5.349,4.083,10.926,6.659,16.122.161.325,1.054.571.9.234" transform="translate(-52.697 -73.432)" fill="#9e7dc2"/>
        </g>
      </g>
    </g>
    <path id="Trazado_630421" data-name="Trazado 630421" d="M154.306,82.117s.107.126.285.376a8.9,8.9,0,0,1,.7,1.141,7.22,7.22,0,0,1,.691,1.972,4.406,4.406,0,0,1,.044,1.309,3.526,3.526,0,0,1-.482,1.393,4.093,4.093,0,0,1-1.1,1.173,8.083,8.083,0,0,0-1.171,1.075,26.606,26.606,0,0,0-2.1,2.795c-.7,1.009-1.4,2.077-2.231,3.09a12.894,12.894,0,0,1-2.925,2.726,8,8,0,0,1-1.845.877,8.19,8.19,0,0,1-.988.248,4.9,4.9,0,0,1-.5.075l-.482.056c-.319.037-.643.066-.954.11s-.61.1-.913.152c-.3.074-.6.131-.889.217a7.554,7.554,0,0,0-.843.3,3.5,3.5,0,0,0-2.257,2.213,4.232,4.232,0,0,0-.1,1.537,2.819,2.819,0,0,0,.4,1.348,1.592,1.592,0,0,0,1.073.608,11.47,11.47,0,0,0,1.245.144,4.616,4.616,0,0,1,2.022.534,1.456,1.456,0,0,1,.761,1.076,1.812,1.812,0,0,1-.02.471s0-.041.006-.121a1.3,1.3,0,0,0-.023-.344,1.4,1.4,0,0,0-.791-.965,4.441,4.441,0,0,0-1.969-.394,11.879,11.879,0,0,1-1.287-.073,1.933,1.933,0,0,1-1.336-.7,2.277,2.277,0,0,1-.366-.736l-.061-.2-.04-.19c-.013-.069-.028-.117-.041-.2l-.029-.2a4.642,4.642,0,0,1,.061-1.719,3.364,3.364,0,0,1,.919-1.607,4.946,4.946,0,0,1,1.6-1.035,8.5,8.5,0,0,1,.9-.334c.306-.1.621-.162.935-.246.318-.064.64-.119.964-.179s.638-.077.959-.117l.478-.059a4.345,4.345,0,0,0,.459-.07,7.508,7.508,0,0,0,.9-.232,7.341,7.341,0,0,0,1.684-.815,12.321,12.321,0,0,0,2.783-2.566c.806-.98,1.534-2.014,2.246-3.015a24.423,24.423,0,0,1,2.225-2.8,8.266,8.266,0,0,1,1.279-1.1,3.675,3.675,0,0,0,1.026-1.01,3.621,3.621,0,0,0,.519-2.454,7,7,0,0,0-.56-1.952,10.357,10.357,0,0,0-.606-1.178c-.158-.263-.253-.4-.253-.4" transform="translate(1022.04 2491.917)" fill="#df6a00"/>
    <path id="Trazado_630422" data-name="Trazado 630422" d="M105.644,51.354s2.572-7.877,8.118-7.877c5.386,0,6.752,9.646,11.9,8.037s8.441-9.645,14.629-9.967,6.832,4.663,9.163,7.8,3.457,2.411,7.315-1.045,8.118-4.823,11.011.884c2.572,6.028,4.663,5.927,7.958,6.028,2.652.081,5.547,1.93,1.367,4.422a8.508,8.508,0,0,1-12.7-5.787c-1.045-3.538-3.537-4.26-8.762.161s-8.722,5.488-11.9.08c-2.17-3.7-2.652-5.3-5.3-4.42s-4.824,3.537-6.994,5.867-7.394,5.466-12.056.644c-3.537-3.938-3.858-5.225-4.743-5.144s-1.636,1.265-3.055,3.216c-1.929,2.653-4.1,2.974-5.223,1.929s-1.206-2.171-.724-4.823" transform="translate(1026.058 2497.287)" fill="#ffaf24"/>
    <path id="Trazado_630423" data-name="Trazado 630423" d="M172.733,60.936a8.59,8.59,0,0,1-8.527-7.079c-.55-1.862-1.466-2.772-2.8-2.772-1.4,0-3.312,1.019-5.687,3.028-3.087,2.613-5.3,3.778-7.159,3.779-1.911,0-3.5-1.19-5-3.743-.265-.449-.5-.866-.723-1.255-1.262-2.209-1.9-3.319-3.19-3.319a3.773,3.773,0,0,0-1.19.23c-2.285.76-4.233,2.891-6.12,4.95-.268.293-.534.585-.8.871a9.823,9.823,0,0,1-6.764,3.23,7.609,7.609,0,0,1-5.544-2.585c-1.48-1.649-2.414-2.852-3.031-3.648-.834-1.076-1.15-1.488-1.571-1.444-.709.064-1.377.99-2.484,2.528l-.446.615c-1.18,1.623-2.6,2.554-3.9,2.554a2.281,2.281,0,0,1-1.584-.6c-1.238-1.15-1.243-2.41-.776-4.981.032-.1,2.681-8.018,8.288-8.018,2.668,0,4.348,2.246,5.972,4.417,1.461,1.956,2.842,3.8,4.8,3.8a3.581,3.581,0,0,0,1.072-.173c2.212-.691,4.063-2.58,6.023-4.58,2.508-2.561,5.1-5.21,8.648-5.393,4.8-.251,6.34,2.619,7.826,5.387a20.221,20.221,0,0,0,1.484,2.477c1.016,1.366,1.75,1.925,2.536,1.925,1.1,0,2.446-1.132,4.525-2.994,2.253-2.017,4.316-3.041,6.132-3.041,2.079,0,3.811,1.338,5.148,3.975,2.466,5.779,4.381,5.835,7.552,5.926l.257.008c1.561.048,3.3.7,3.6,1.846.165.639-.073,1.66-2.148,2.9a8.761,8.761,0,0,1-4.429,1.18m-11.322-10.2c1.482,0,2.534,1.02,3.13,3.032a8.161,8.161,0,0,0,8.193,6.818,8.409,8.409,0,0,0,4.252-1.131c1.5-.892,2.187-1.761,1.99-2.515-.253-.974-1.874-1.543-3.274-1.587l-.257-.008c-3.2-.092-5.305-.153-7.853-6.125-1.269-2.5-2.9-3.776-4.836-3.776-1.728,0-3.715.993-5.9,2.954-2.141,1.918-3.528,3.081-4.755,3.081-.908,0-1.723-.6-2.813-2.062a20.267,20.267,0,0,1-1.512-2.521c-1.437-2.678-2.925-5.447-7.5-5.206-3.41.178-5.957,2.776-8.419,5.29-1.991,2.032-3.872,3.953-6.167,4.67a3.943,3.943,0,0,1-1.174.187c-2.131,0-3.562-1.913-5.077-3.938-1.573-2.1-3.2-4.28-5.7-4.28-5.357,0-7.929,7.68-7.955,7.759-.488,2.692-.344,3.7.677,4.643a1.938,1.938,0,0,0,1.349.508c1.184,0,2.5-.88,3.619-2.413l.443-.614c1.165-1.617,1.869-2.593,2.735-2.671.608-.05.962.4,1.875,1.577.613.791,1.541,1.989,3.01,3.624a7.272,7.272,0,0,0,5.291,2.474,9.464,9.464,0,0,0,6.511-3.12c.267-.285.533-.577.8-.869,1.916-2.093,3.9-4.254,6.266-5.045,2.473-.824,3.178.427,4.787,3.248q.329.577.721,1.25c1.431,2.437,2.924,3.572,4.7,3.572s3.916-1.141,6.938-3.7c2.472-2.092,4.4-3.109,5.908-3.109" transform="translate(1026.085 2497.313)" fill="#df6a00"/>
    <g id="Grupo_1004333" data-name="Grupo 1004333" transform="translate(1131.428 2543.27)" opacity="0.8" style="mix-blend-mode: multiply;isolation: isolate">
      <g id="Grupo_1004332" data-name="Grupo 1004332" transform="translate(0 0)">
        <g id="Grupo_1004331" data-name="Grupo 1004331" clip-path="url(#clip-path-11)">
          <path id="Trazado_630424" data-name="Trazado 630424" d="M175.735,55.892c-3.295-.1-5.386,0-7.957-6.028a7.793,7.793,0,0,0-2.654-3.2,4.489,4.489,0,0,1,.88,1.071c.766,1.3,1.094,3.938-.765,4.576-.9.308-1.272-.6-1.906-1.1-1.133-.906-2.4-1.522-3.842-.918a11.979,11.979,0,0,0-3.574,2.536,8.78,8.78,0,0,1-2.143,1.64,6.3,6.3,0,0,1-6.054-.388c-1.755-1.239-2.292-3.6-3.463-5.295-1.829-2.639-4.878-2.127-7.42-.768a25.216,25.216,0,0,0-6.017,4.928c-1.421,1.444-3.02,3.106-5,3.756a4.825,4.825,0,0,1-5.174-1.231c-1.209-1.475-1.389-3.436-2.331-5.049-1.356-2.319-4.014-2.116-5.8-.384-1.407,1.365-2.482,3.192-4.228,4.166-.786.436-2.2,1.078-2.918.4a2.917,2.917,0,0,0,1,2.258c1.125,1.045,3.295.724,5.223-1.928,1.419-1.951,2.171-3.137,3.055-3.216s1.205,1.206,4.742,5.144c4.662,4.823,9.886,1.689,12.057-.643s4.34-4.983,6.994-5.868,3.134.724,5.3,4.421c3.174,5.408,6.672,4.34,11.9-.081s7.716-3.7,8.761-.16a8.509,8.509,0,0,0,12.7,5.787c4.18-2.492,1.286-4.341-1.367-4.422" transform="translate(-105.371 -46.662)" fill="#ffaf24"/>
        </g>
      </g>
    </g>
    <path id="Trazado_630425" data-name="Trazado 630425" d="M105.806,58.411c-.419.585-.8,1.193-1.178,1.8s-.728,1.236-1.056,1.873c-.164.319-.325.639-.473.964s-.292.654-.43.981-.26.665-.377,1-.226.674-.319,1.017-.173.687-.243,1.033a9.938,9.938,0,0,0-.132,1.046,4.39,4.39,0,0,0-.019.523,3.988,3.988,0,0,0,.017.52,5.464,5.464,0,0,0,.167,1.018c.053.163.091.331.156.488l.207.465.263.433c.1.137.212.265.316.4a3.991,3.991,0,0,0,.358.358,2.868,2.868,0,0,0,.395.32,6.562,6.562,0,0,0,.868.544l-.029-.013a8.594,8.594,0,0,0,2.273.5,7.511,7.511,0,0,0,2.307-.223,4.419,4.419,0,0,0,.563-.16c.187-.062.376-.113.559-.186.364-.153.737-.281,1.091-.462l.537-.258.527-.281c.353-.184.7-.384,1.043-.591s.685-.414,1.025-.627.682-.424,1.02-.643c.679-.433,1.348-.883,2.018-1.331l2.007-1.357.5-.34.56-.306.533-.29c.179-.1.376-.174.563-.263l.568-.259.59-.206a8.042,8.042,0,0,1,1.217-.319,3.715,3.715,0,0,1,2.535.4,5.329,5.329,0,0,1,1.682,1.884c.208.349.4.7.619,1.032l.079.126.037.056.043.06.18.244c.127.152.24.3.38.436a3.373,3.373,0,0,0,1.98,1.072,3.331,3.331,0,0,0,2.207-.541,4.518,4.518,0,0,0,.489-.336l.492-.358c.167-.116.32-.245.5-.35l.533-.308a5.68,5.68,0,0,1,1.131-.457,3.193,3.193,0,0,1,1.2-.136,3.138,3.138,0,0,0-1.181.206,3.768,3.768,0,0,0-.554.23,5.054,5.054,0,0,0-.532.276l-.5.321c-.167.108-.318.246-.478.368l-.471.377a4.8,4.8,0,0,1-.494.371,3.6,3.6,0,0,1-2.377.683,3.755,3.755,0,0,1-2.233-1.125,9.962,9.962,0,0,1-1.454-1.991,4.8,4.8,0,0,0-1.546-1.665,3.287,3.287,0,0,0-2.166-.287,7.366,7.366,0,0,0-1.12.305l-.552.2-.533.247c-.177.086-.356.157-.532.254l-.531.294-.5.277-.5.345-2,1.378c-.669.454-1.336.912-2.017,1.355s-1.362.882-2.071,1.287c-.351.207-.705.41-1.071.6l-.544.285-.56.26c-.367.184-.761.318-1.143.474-.193.075-.4.128-.593.192a5.056,5.056,0,0,1-.6.165,8.139,8.139,0,0,1-2.5.217,9.177,9.177,0,0,1-2.439-.556l-.021-.007-.011-.006a7.177,7.177,0,0,1-.951-.608,2.858,2.858,0,0,1-.432-.368,4.631,4.631,0,0,1-.393-.412c-.114-.153-.235-.3-.343-.458l-.282-.5c-.078-.174-.147-.351-.22-.526s-.1-.362-.159-.542a5.994,5.994,0,0,1-.151-1.113,4.238,4.238,0,0,1,0-.555,4.528,4.528,0,0,1,.036-.554A9.933,9.933,0,0,1,101.326,67c.082-.357.167-.711.278-1.059s.224-.693.355-1.033.276-.671.423-1,.31-.655.48-.974.34-.639.518-.951a27.658,27.658,0,0,1,2.426-3.575" transform="translate(1026.621 2495.053)" fill="#df6a00"/>
    <path id="Trazado_630426" data-name="Trazado 630426" d="M126.388,90.853a2.911,2.911,0,0,1-.419-2.817c1.056-4.083,7.242-5.86,10.752-6.367,4.774-.688,8.539,1.884,11.909,5.061,3.264,3.079,4.665,2.8,12.221-1.587,7.092-4.2,11.1-4.385,16.142-1.026,4.011,2.705,4.386,2.425,7.931-.653s7.931-5.6,12.6-1.306,1.119,9.05-3.545,7.184c-3.079-.933-2.892-.466-7.651,3.359s-8.214,3.287-11.29-.279c-4.1-4.76-6.158-4.292-12.5,1.679-5.878,5.784-12.222,6.811-19.315-.28-4.1-3.733-5.971-4.1-10.916-2.425-1.9.643-4.709.8-5.912-.542" transform="translate(1023.353 2492.214)" fill="#ffaf24"/>
    <path id="Trazado_630427" data-name="Trazado 630427" d="M153.025,98.94c-3.273,0-6.623-1.69-9.955-5.024-2.738-2.489-4.339-3.33-6.338-3.33a13.97,13.97,0,0,0-4.4.947,9.4,9.4,0,0,1-2.948.491,4.237,4.237,0,0,1-3.149-1.08,3.1,3.1,0,0,1-.457-2.977c1.258-4.866,9.3-6.264,10.9-6.494a11.091,11.091,0,0,1,1.572-.115c4.38,0,7.9,2.79,10.478,5.22,1.345,1.269,2.393,2,3.765,2,1.723,0,4.035-1.164,8.253-3.612,3.957-2.343,6.9-3.389,9.53-3.389a11.9,11.9,0,0,1,6.794,2.368c1.837,1.24,2.873,1.829,3.792,1.829,1.089,0,2.1-.876,3.931-2.468,1.8-1.561,4.529-3.635,7.516-3.635A7.825,7.825,0,0,1,197.613,82c1.931,1.778,2.679,3.875,2,5.611a3.735,3.735,0,0,1-3.623,2.288,5.681,5.681,0,0,1-2.107-.428c-2.492-.753-2.7-.6-5.629,1.818-.522.433-1.13.935-1.851,1.515-2.242,1.8-4.23,2.679-6.077,2.679-1.938,0-3.721-.976-5.451-2.98-1.941-2.247-3.314-3.164-4.742-3.164-1.968,0-4.245,1.78-7.513,4.856-3.239,3.189-6.38,4.741-9.6,4.741m-16.293-8.7c2.348,0,4.189,1.257,6.575,3.426,3.273,3.273,6.54,4.928,9.718,4.928,3.124,0,6.184-1.518,9.359-4.644,3.335-3.138,5.671-4.954,7.753-4.954,1.54,0,2.99.952,5,3.285,1.661,1.925,3.359,2.86,5.19,2.86,1.765,0,3.682-.85,5.861-2.6.719-.579,1.326-1.081,1.848-1.512,1.963-1.624,2.776-2.3,3.918-2.3A7.383,7.383,0,0,1,194,89.15a5.328,5.328,0,0,0,1.992.411,3.4,3.4,0,0,0,3.3-2.07c.624-1.6-.093-3.556-1.915-5.233a7.488,7.488,0,0,0-5.077-2.239c-2.87,0-5.536,2.026-7.289,3.55-1.9,1.645-2.94,2.552-4.157,2.552-1.009,0-2.089-.608-3.984-1.886a11.578,11.578,0,0,0-6.6-2.31c-2.567,0-5.452,1.031-9.356,3.342-4.361,2.532-6.613,3.659-8.427,3.659-1.486,0-2.593-.768-4-2.1C145.8,84.3,142.477,81.7,138.243,81.7a10.549,10.549,0,0,0-1.524.112,22.817,22.817,0,0,0-6.246,1.826c-2.442,1.174-3.911,2.659-4.364,4.414a2.769,2.769,0,0,0,.38,2.659,3.916,3.916,0,0,0,2.892.965,9.176,9.176,0,0,0,2.837-.472,14.242,14.242,0,0,1,4.513-.965" transform="translate(1023.38 2492.24)" fill="#df6a00"/>
    <g id="Grupo_1004336" data-name="Grupo 1004336" transform="translate(1149.161 2577.659)" opacity="0.8" style="mix-blend-mode: multiply;isolation: isolate">
      <g id="Grupo_1004335" data-name="Grupo 1004335" transform="translate(0 0)">
        <g id="Grupo_1004334" data-name="Grupo 1004334" clip-path="url(#clip-path-12)">
          <path id="Trazado_630428" data-name="Trazado 630428" d="M198.366,87.868c-.867.211-1.53-.337-2.233-.736a5.721,5.721,0,0,0-4.161-.685,6.916,6.916,0,0,0-2.857,1.863c-1.872,1.814-3.706,3.575-6.351,4.148a8.176,8.176,0,0,1-7.007-1.549c-2.063-1.612-3.86-3.505-6.6-3.786a9.508,9.508,0,0,0-4.828.811c-3.085,1.363-5.546,3.716-8.271,5.643-2.142,1.517-4.785,3.039-7.5,2.225a9.348,9.348,0,0,1-4.134-2.844c-1.514-1.689-2.828-3.98-5.045-4.846-3.813-1.487-7.532,2.207-11.366,1.08a2.269,2.269,0,0,1-1.557-1.5,5.033,5.033,0,0,0-.486,1.191,2.913,2.913,0,0,0,.42,2.817c1.2,1.346,4.017,1.185,5.912.542,4.947-1.68,6.813-1.308,10.917,2.425,7.092,7.092,13.437,6.064,19.315.28,6.344-5.971,8.4-6.439,12.5-1.68,3.076,3.566,6.532,4.105,11.29.279s4.573-4.292,7.65-3.359c3.078,1.231,5.666-.419,5.735-2.916a4.11,4.11,0,0,1-1.344.593" transform="translate(-125.808 -86.295)" fill="#ffaf24"/>
        </g>
      </g>
    </g>
    <path id="Trazado_630429" data-name="Trazado 630429" d="M123.694,92.4s-.611.239-1.633.749c-.513.247-1.123.579-1.807.981-.344.2-.7.432-1.072.666-.364.255-.758.5-1.147.8s-.8.588-1.192.935c-.2.172-.409.333-.606.516l-.6.564a8.377,8.377,0,0,0-.586.6c-.189.211-.393.415-.576.639a16.09,16.09,0,0,0-1.054,1.42,10.661,10.661,0,0,0-1.53,3.306,3.825,3.825,0,0,0-.03,1.757,3.217,3.217,0,0,0,.954,1.469c.445.436.965.841,1.452,1.3a6.22,6.22,0,0,1,1.26,1.59,4.649,4.649,0,0,1,.566,1.968,4.354,4.354,0,0,1-.357,1.961,5.4,5.4,0,0,1-2.606,2.562,7.9,7.9,0,0,1-.79.333l-.395.134-.1.034-.024.008-.033.01-.013,0-.049.009-.2.037a3.805,3.805,0,0,1-1.612-.168,21.918,21.918,0,0,1-2.475-1.073,2.571,2.571,0,0,0-1.919-.291,1.437,1.437,0,0,0-.574.445,2.488,2.488,0,0,0-.3.47,3.362,3.362,0,0,0-.142.319l-.045.109.036-.113a3.109,3.109,0,0,1,.117-.331,2.514,2.514,0,0,1,.266-.5,1.44,1.44,0,0,1,.586-.519,1.712,1.712,0,0,1,.971-.123,5.2,5.2,0,0,1,1.1.3c.756.277,1.565.685,2.483.93a3.429,3.429,0,0,0,1.411.1l.194-.044.049-.011.012,0c.009,0-.032.008-.01,0l.023-.008.092-.034.369-.139a7.317,7.317,0,0,0,.73-.334,4.971,4.971,0,0,0,2.283-2.345,3.708,3.708,0,0,0,.272-1.681,4.206,4.206,0,0,0-.5-1.669,11.491,11.491,0,0,0-2.62-2.738,3.914,3.914,0,0,1-1.126-1.787,4.454,4.454,0,0,1,.036-2.087l.145-.49a3.283,3.283,0,0,1,.161-.468l.18-.443.089-.22.123-.233.46-.844c.148-.283.349-.53.518-.793a14.375,14.375,0,0,1,1.128-1.451c.2-.227.413-.429.615-.642s.4-.421.621-.6l.63-.557c.207-.183.428-.341.637-.507.416-.337.848-.62,1.254-.9s.817-.52,1.2-.755c.4-.214.762-.431,1.12-.609.714-.365,1.345-.659,1.875-.879s.953-.375,1.242-.478.447-.148.447-.148" transform="translate(1026.176 2490.556)" fill="#df6a00"/>
    <path id="Trazado_630430" data-name="Trazado 630430" d="M159.789,71.8s.086,4.141-3.336,4.37c-4.041.272-5.864-6.44-3.334-9.773s5.289-2.76,9.314-2.071,7.933.574,9.085-4.14.46-17.248,14.258-15.408c4.715,1.266,9.084,3.22,12.074-2.529s7.129-5.979,10-3.8.8,6.325-2.991,5.749-4.368,1.151-5.977,3.682-3.91,7.473-11.614,4.944c-4.14-1.5-7.245-1.839-9.315,4.6s-1.374,10.3-5.924,11.624c-4.813,1.407-7.3,1.023-9.483.448s-2.531.69-2.76,2.3" transform="translate(1019.893 2497.863)" fill="#ffaf24"/>
    <path id="Trazado_630431" data-name="Trazado 630431" d="M156.19,76.325a4.151,4.151,0,0,1-3.634-2.6c-1.034-2.082-1.229-5.312.4-7.457a5.97,5.97,0,0,1,5.19-2.669,24.276,24.276,0,0,1,3.982.479l.309.054a18.556,18.556,0,0,0,3.086.305c3.24,0,5.082-1.372,5.8-4.316.173-.711.3-1.591.453-2.609.768-5.223,1.93-13.113,11.37-13.113a19.867,19.867,0,0,1,2.626.185c.482.127.936.257,1.389.386a19.2,19.2,0,0,0,5.011.982c2.4,0,4.146-1.21,5.5-3.807,2.219-4.267,4.818-5.163,6.608-5.163a6.052,6.052,0,0,1,3.653,1.31,3.243,3.243,0,0,1,1.246,3.671,3.834,3.834,0,0,1-4.367,2.386,8.836,8.836,0,0,0-1.3-.108c-2.219,0-2.937,1.171-4.026,2.943-.151.245-.309.5-.477.766-.118.185-.239.384-.366.59-1.254,2.044-3.15,5.135-7.483,5.137a12.851,12.851,0,0,1-3.964-.71,12.292,12.292,0,0,0-3.911-.9c-2.388,0-3.987,1.661-5.185,5.386-.559,1.741-.915,3.292-1.231,4.662-.841,3.661-1.4,6.08-4.808,7.076a21.034,21.034,0,0,1-5.85.974,13.933,13.933,0,0,1-3.727-.526,3.663,3.663,0,0,0-.908-.135c-1.107,0-1.42.772-1.636,2.293,0,.015.049,4.279-3.5,4.516-.083.006-.166.01-.247.01Zm1.955-12.383a5.659,5.659,0,0,0-4.915,2.533c-1.543,2.034-1.353,5.109-.366,7.1a3.774,3.774,0,0,0,3.326,2.41h0c.074,0,.148,0,.226-.008a3.057,3.057,0,0,0,2.8-2.16,6.068,6.068,0,0,0,.373-2.035c.2-1.392.495-2.616,1.981-2.616a3.96,3.96,0,0,1,1,.148,13.618,13.618,0,0,0,3.638.513,20.769,20.769,0,0,0,5.754-.96c3.217-.94,3.726-3.155,4.569-6.822.316-1.376.674-2.935,1.237-4.692,1.252-3.889,2.952-5.624,5.514-5.624a12.566,12.566,0,0,1,4.024.917,12.552,12.552,0,0,0,3.851.689c4.14,0,5.9-2.873,7.19-4.971.128-.208.25-.407.368-.594.167-.262.325-.518.475-.764,1.108-1.8,1.907-3.106,4.319-3.106a9.1,9.1,0,0,1,1.357.113,3.5,3.5,0,0,0,3.988-2.154,2.872,2.872,0,0,0-1.128-3.286,5.707,5.707,0,0,0-3.445-1.243c-1.694,0-4.164.864-6.3,4.979-1.417,2.723-3.26,3.992-5.8,3.992a19.417,19.417,0,0,1-5.105-1c-.45-.128-.9-.258-1.363-.38a19.722,19.722,0,0,0-2.557-.178c-9.143,0-10.278,7.715-11.03,12.818-.15,1.026-.282,1.914-.458,2.641-.752,3.081-2.758,4.58-6.136,4.58a18.708,18.708,0,0,1-3.144-.311l-.309-.053a24.159,24.159,0,0,0-3.924-.475" transform="translate(1019.92 2497.889)" fill="#df6a00"/>
    <g id="Grupo_1004339" data-name="Grupo 1004339" transform="translate(1172.861 2537.379)" opacity="0.8" style="mix-blend-mode: multiply;isolation: isolate">
      <g id="Grupo_1004338" data-name="Grupo 1004338" transform="translate(0 0)">
        <g id="Grupo_1004337" data-name="Grupo 1004337" clip-path="url(#clip-path-13)">
          <path id="Trazado_630432" data-name="Trazado 630432" d="M208.955,39.873a2.2,2.2,0,0,1-1.611,2.455c-1.14.159-2.167-.516-3.3-.433a4.406,4.406,0,0,0-2.589,1.019,17.414,17.414,0,0,0-3.194,4.528,9.6,9.6,0,0,1-3.109,3.509c-1.945,1.154-4.274.809-6.329.2-2.716-.8-5.612-1.771-8.316-.367-2.679,1.389-3.852,3.949-4.52,6.755-.955,4.007-1.868,9.042-6.486,10.326a9.465,9.465,0,0,1-4.323.243c-1.227-.23-2.186-1.269-3.475-1.363a3.557,3.557,0,0,0-3.488,1.571,14.394,14.394,0,0,0-.993,2.8c-.481,1.526-1.406,3.648-3.313,3.554a1.936,1.936,0,0,1-.789-.224,3.767,3.767,0,0,0,3.485,2.074c3.421-.229,3.336-4.37,3.336-4.37.228-1.61.574-2.875,2.759-2.3s4.67.959,9.484-.448c4.55-1.328,3.853-5.187,5.924-11.624s5.175-6.1,9.315-4.6c7.7,2.529,10-2.415,11.613-4.944s2.185-4.256,5.978-3.682c3.242.492,5.223-2.457,3.939-4.687" transform="translate(-153.122 -39.873)" fill="#ffaf24"/>
        </g>
      </g>
    </g>
    <path id="Trazado_630433" data-name="Trazado 630433" d="M190.145,60.556s.172-.062.5-.162a14.494,14.494,0,0,1,1.449-.359,12.852,12.852,0,0,1,2.313-.256,6.147,6.147,0,0,1,2.986.629,2.183,2.183,0,0,1,.368.239l.181.131c.033.026.054.036.1.075l.076.074c.1.1.208.2.313.3s.2.241.3.363a2.969,2.969,0,0,1,.637,1.853,4.2,4.2,0,0,1-.62,1.951,10.854,10.854,0,0,1-1.218,1.678c-.452.536-.938,1.035-1.411,1.558a10.536,10.536,0,0,0-1.237,1.653,2.351,2.351,0,0,0-.393,1.8,1.46,1.46,0,0,0,.189.392l.153.171.076.084.1.074a2.1,2.1,0,0,0,.4.275,2.7,2.7,0,0,0,.455.225,8.321,8.321,0,0,0,.97.338,7.16,7.16,0,0,0,1.05.183,6.093,6.093,0,0,0,2.043-.144,15.343,15.343,0,0,0,3.787-1.649c.6-.328,1.2-.664,1.821-.935a11.063,11.063,0,0,1,1.885-.62,6.786,6.786,0,0,1,1.884-.194,3.129,3.129,0,0,1,1.723.554,2.428,2.428,0,0,1,.9,1.4,4.3,4.3,0,0,0,.487,1.283,3.334,3.334,0,0,0,1.683,1.423,2.912,2.912,0,0,0,1.442.148A1.815,1.815,0,0,0,215.92,75l.129-.039-.126.048a2.049,2.049,0,0,1-.375.119,2.879,2.879,0,0,1-1.492-.058,3.539,3.539,0,0,1-1.857-1.413,4.569,4.569,0,0,1-.589-1.334,2.11,2.11,0,0,0-.814-1.164,2.717,2.717,0,0,0-1.512-.417,6.562,6.562,0,0,0-1.743.233,10.655,10.655,0,0,0-1.772.639c-.584.274-1.164.607-1.76.945a15.188,15.188,0,0,1-3.931,1.769,6.805,6.805,0,0,1-2.277.168,7.718,7.718,0,0,1-1.108-.187,8.28,8.28,0,0,1-1.106-.374,3.479,3.479,0,0,1-.527-.265,2.8,2.8,0,0,1-.5-.344l-.121-.1-.106-.118-.21-.24a2.182,2.182,0,0,1-.283-.589,2.03,2.03,0,0,1-.093-.644,2.183,2.183,0,0,1,.032-.312,1.5,1.5,0,0,1,.061-.3,3.248,3.248,0,0,1,.2-.561l.121-.266.141-.248a10.246,10.246,0,0,1,1.345-1.758c.483-.517.98-1.011,1.421-1.518a11.056,11.056,0,0,0,1.189-1.568,3.681,3.681,0,0,0,.6-1.683,2.519,2.519,0,0,0-.491-1.561c-.085-.108-.159-.217-.249-.325s-.2-.208-.3-.312l-.075-.075c-.01-.006-.048-.037-.069-.055l-.158-.121a1.773,1.773,0,0,0-.32-.225,6.106,6.106,0,0,0-2.793-.717,12.685,12.685,0,0,0-2.287.132,15.307,15.307,0,0,0-1.971.39" transform="translate(1014.84 2494.872)" fill="#df6a00"/>
    <path id="Trazado_630434" data-name="Trazado 630434" d="M215.425,92.513a6.325,6.325,0,0,1-6.052-3.925l.652-.223c.069.193,1.715,4.731,7.866,3.113,2.533-.667,4.13-1.682,4.882-3.1.971-1.833.355-4.167-.291-5.995-.67-1.894-.319-3.575.932-4.495a2.964,2.964,0,0,1,3.51-.035c.834.623,2.437,1.605,3.82,1.156.922-.3,1.623-1.21,2.083-2.707l.659.2c-.529,1.723-1.38,2.786-2.529,3.158-1.677.547-3.505-.554-4.446-1.261a2.273,2.273,0,0,0-2.687.041c-1.009.742-1.26,2.093-.69,3.709.692,1.96,1.347,4.477.25,6.547-.849,1.6-2.587,2.726-5.316,3.445a10.4,10.4,0,0,1-2.642.369" transform="translate(1012.296 2492.686)" fill="#df6a00"/>
    <path id="Trazado_630435" data-name="Trazado 630435" d="M219.238,39.429a4.231,4.231,0,0,1-1.714-.331l.307-.618c.158.078,3.885,1.815,7.013-4.331,3.3-6.483,8.487-9.216,15.425-8.119,6.9,1.088,6.381,5.231,6.037,7.971a2.431,2.431,0,0,0,.627,2.353,2.2,2.2,0,0,0,2.219-.062c1.42-.671,2.587-.778,3.282-.306a1.732,1.732,0,0,1,.659,1.675l-.688-.043a1.114,1.114,0,0,0-.359-1.06c-.469-.319-1.443-.186-2.6.358a2.858,2.858,0,0,1-2.919,0c-.534-.389-1.127-1.224-.906-3,.348-2.771.778-6.22-5.46-7.205-6.608-1.044-11.554,1.564-14.7,7.75-2.115,4.156-4.6,4.967-6.221,4.967" transform="translate(1011.218 2499.369)" fill="#df6a00"/>
    <g id="Grupo_1004342" data-name="Grupo 1004342" transform="translate(1132.08 2541.261)" style="mix-blend-mode: screen;isolation: isolate">
      <g id="Grupo_1004341" data-name="Grupo 1004341" transform="translate(0 0)">
        <g id="Grupo_1004340" data-name="Grupo 1004340" clip-path="url(#clip-path-14)">
          <path id="Trazado_630436" data-name="Trazado 630436" d="M116.281,44.829c-4.936-2.014-9,2.663-10.148,7.063-.087.33.364-.048.412-.187a10.182,10.182,0,0,1,3.092-4.894,5.7,5.7,0,0,1,3.249-1.643,11.233,11.233,0,0,1,2.9.443c.243.044.734-.682.489-.783" transform="translate(-106.122 -44.347)" fill="#ffaf24"/>
        </g>
      </g>
    </g>
    <g id="Grupo_1004345" data-name="Grupo 1004345" transform="translate(1157.613 2538.97)" style="mix-blend-mode: screen;isolation: isolate">
      <g id="Grupo_1004344" data-name="Grupo 1004344" transform="translate(0 0)">
        <g id="Grupo_1004343" data-name="Grupo 1004343" clip-path="url(#clip-path-15)">
          <path id="Trazado_630437" data-name="Trazado 630437" d="M149,43.762c-1.184-2.7-4.739-2.249-6.994-1.4a11.7,11.7,0,0,0-6.406,5.853c-.194.407.2.288.334.023a10.6,10.6,0,0,1,6.606-5.3c2.386-.684,4.069.049,5.9,1.513.23.183.651-.489.561-.692" transform="translate(-135.549 -41.706)" fill="#ffaf24"/>
        </g>
      </g>
    </g>
    <g id="Grupo_1004348" data-name="Grupo 1004348" transform="translate(1182.973 2542.813)" style="mix-blend-mode: screen;isolation: isolate">
      <g id="Grupo_1004347" data-name="Grupo 1004347" transform="translate(0 0)">
        <g id="Grupo_1004346" data-name="Grupo 1004346" clip-path="url(#clip-path-16)">
          <path id="Trazado_630438" data-name="Trazado 630438" d="M172.5,46.749c-2.357-1.82-6.155.81-7.641,2.645-.121.152-.127.439.089.212a9.06,9.06,0,0,1,3.393-2.308c1.36-.51,2.486-.141,3.839-.036.154.012.48-.39.32-.512" transform="translate(-164.776 -46.136)" fill="#ffaf24"/>
        </g>
      </g>
    </g>
    <g id="Grupo_1004351" data-name="Grupo 1004351" transform="translate(1172.089 2562.03)" style="mix-blend-mode: screen;isolation: isolate">
      <g id="Grupo_1004350" data-name="Grupo 1004350" transform="translate(0 0)">
        <g id="Grupo_1004349" data-name="Grupo 1004349" clip-path="url(#clip-path-17)">
          <path id="Trazado_630439" data-name="Trazado 630439" d="M156.806,68.284c-3.774.464-5.662,5.3-3.922,8.5.146.269.6-.377.542-.589-.918-3.126-.366-6.629,3.234-7.6.086-.022.258-.328.146-.313" transform="translate(-152.232 -68.283)" fill="#ffaf24"/>
        </g>
      </g>
    </g>
    <g id="Grupo_1004354" data-name="Grupo 1004354" transform="translate(1192.584 2542.254)" style="mix-blend-mode: screen;isolation: isolate">
      <g id="Grupo_1004353" data-name="Grupo 1004353" transform="translate(0 0)">
        <g id="Grupo_1004352" data-name="Grupo 1004352" clip-path="url(#clip-path-18)">
          <path id="Trazado_630440" data-name="Trazado 630440" d="M189.223,46.627c-2.833-2.251-7.112-.837-9.4,1.452-2.721,2.726-3.816,6.624-3.973,10.39-.01.239.4-.181.41-.342a15.5,15.5,0,0,1,3.777-9.543,7.257,7.257,0,0,1,8.61-1.155c.28.146.822-.6.574-.8" transform="translate(-175.853 -45.491)" fill="#ffaf24"/>
        </g>
      </g>
    </g>
    <g id="Grupo_1004357" data-name="Grupo 1004357" transform="translate(1218.253 2535.272)" style="mix-blend-mode: screen;isolation: isolate">
      <g id="Grupo_1004356" data-name="Grupo 1004356" transform="translate(0 0)">
        <g id="Grupo_1004355" data-name="Grupo 1004355" clip-path="url(#clip-path-19)">
          <path id="Trazado_630441" data-name="Trazado 630441" d="M213.386,38.118c-3.282-2.019-6.632.859-7.908,3.9-.2.467.34.149.459-.062,1.479-2.634,4-4.686,7.083-3.323.185.082.534-.41.366-.513" transform="translate(-205.436 -37.445)" fill="#ffaf24"/>
        </g>
      </g>
    </g>
    <g id="Grupo_1004360" data-name="Grupo 1004360" transform="translate(1155.092 2574.097)" style="mix-blend-mode: screen;isolation: isolate">
      <g id="Grupo_1004359" data-name="Grupo 1004359" transform="translate(0 0)">
        <g id="Grupo_1004358" data-name="Grupo 1004358" clip-path="url(#clip-path-20)">
          <path id="Trazado_630442" data-name="Trazado 630442" d="M148.424,87.8c-1.374-2.122-3.469-4.62-6.011-5.306-3.164-.854-6.847.186-9.649,1.7-.073.038-.2.3-.046.233,2.841-1.289,6.666-2.2,9.689-1.047,2.417.925,3.775,3.309,5.5,5.066.169.173.642-.455.52-.643" transform="translate(-132.643 -82.19)" fill="#ffaf24"/>
        </g>
      </g>
    </g>
    <g id="Grupo_1004363" data-name="Grupo 1004363" transform="translate(1180.209 2574.202)" style="mix-blend-mode: screen;isolation: isolate">
      <g id="Grupo_1004362" data-name="Grupo 1004362" transform="translate(0 0)">
        <g id="Grupo_1004361" data-name="Grupo 1004361" clip-path="url(#clip-path-21)">
          <path id="Trazado_630443" data-name="Trazado 630443" d="M180.069,84.419c-1.818-2.278-5.8-2.441-8.38-1.742-3.771,1.023-6.712,3.715-9.894,5.811-.121.08-.342.575-.084.417,2.867-1.744,5.429-3.84,8.576-5.1,2.76-1.1,6.012-.752,9.256,1.347.256.166.7-.518.526-.737" transform="translate(-161.591 -82.311)" fill="#ffaf24"/>
        </g>
      </g>
    </g>
    <g id="Grupo_1004366" data-name="Grupo 1004366" transform="translate(1209.99 2572.751)" style="mix-blend-mode: screen;isolation: isolate">
      <g id="Grupo_1004365" data-name="Grupo 1004365" transform="translate(0 0)">
        <g id="Grupo_1004364" data-name="Grupo 1004364" clip-path="url(#clip-path-22)">
          <path id="Trazado_630444" data-name="Trazado 630444" d="M206.6,83.449c-.583-2.023-3.251-2.705-5.092-2.8a7.1,7.1,0,0,0-5.485,2.521c-.108.124-.193.548.062.312a6.659,6.659,0,0,1,9.975.635c.187.214.592-.485.54-.667" transform="translate(-195.913 -80.639)" fill="#ffaf24"/>
        </g>
      </g>
    </g>
    <path id="Trazado_630445" data-name="Trazado 630445" d="M278.485,21.777a6.559,6.559,0,0,1-5.125,5.5c-5.687,8.575-8.483,20.6-1.026,27.217,7.643,5.687,20.786.934,26.939-5.312-.093-2.146.745-3.728,3.635-4.2,6.059-8.3,8.762-21.345.652-28.056-6.432-4.753-16.592-3.541-25.074,4.848" transform="translate(1004.563 2500.908)" fill="#69c8f3"/>
    <path id="Trazado_630446" data-name="Trazado 630446" d="M280.769,57.2h0a14.026,14.026,0,0,1-8.577-2.583c-3.473-3.082-5.022-7.59-4.492-13.045a32.675,32.675,0,0,1,5.473-14.43.2.2,0,0,1,.117-.081,6.41,6.41,0,0,0,4.98-5.334.18.18,0,0,1,.054-.114c5-4.948,10.849-7.671,16.468-7.671a14.757,14.757,0,0,1,8.853,2.805c4.781,3.957,5.392,9.579,5.063,13.6a29.946,29.946,0,0,1-5.675,14.718.2.2,0,0,1-.124.076c-2.506.4-3.577,1.636-3.475,4a.2.2,0,0,1-.054.142,28.3,28.3,0,0,1-18.61,7.914m-7.323-29.784a32.236,32.236,0,0,0-5.367,14.193c-.519,5.329.986,9.726,4.353,12.713a13.657,13.657,0,0,0,8.337,2.5,27.894,27.894,0,0,0,18.282-7.743c-.081-2.482,1.1-3.851,3.721-4.294a29.534,29.534,0,0,0,5.556-14.463c.322-3.932-.271-9.427-4.917-13.273a14.367,14.367,0,0,0-8.619-2.725c-5.5,0-11.236,2.669-16.155,7.515a6.778,6.778,0,0,1-5.19,5.579" transform="translate(1004.592 2500.938)" fill="#0081b0"/>
    <g id="Grupo_1004369" data-name="Grupo 1004369" transform="translate(1277.129 2521.294)" opacity="0.7" style="mix-blend-mode: multiply;isolation: isolate">
      <g id="Grupo_1004368" data-name="Grupo 1004368" transform="translate(0 0)">
        <g id="Grupo_1004367" data-name="Grupo 1004367" clip-path="url(#clip-path-23)">
          <path id="Trazado_630447" data-name="Trazado 630447" d="M309.209,27.3c-.02.044-.036.089-.056.134-1.1,2.469-2.82,5.647-5.721,6.273-4.369.94-7.055-3.2-9.66-5.9a22.358,22.358,0,0,0-6.918-4.559,22.181,22.181,0,0,0-6.145-1.91c-.5.441-1,.9-1.5,1.392a6.557,6.557,0,0,1-5.126,5.5c-.272.411-.534.832-.794,1.258a37.276,37.276,0,0,1,7.665,2.123,16.72,16.72,0,0,1,7.214,5.438,13.752,13.752,0,0,1,2.3,7.449,14.063,14.063,0,0,1-4.531,10.472,24.827,24.827,0,0,1-3.862,3.011A28.3,28.3,0,0,0,300,50.131c-.094-2.146.745-3.728,3.635-4.2,3.831-5.246,6.316-12.393,5.578-18.635" transform="translate(-273.29 -21.335)" fill="#69c8f3"/>
        </g>
      </g>
    </g>
    <g id="Grupo_1004372" data-name="Grupo 1004372" transform="translate(1277.732 2522.495)" style="mix-blend-mode: multiply;isolation: isolate">
      <g id="Grupo_1004371" data-name="Grupo 1004371" transform="translate(0 0)">
        <g id="Grupo_1004370" data-name="Grupo 1004370" clip-path="url(#clip-path-24)">
          <path id="Trazado_630448" data-name="Trazado 630448" d="M277.827,26.817a6.363,6.363,0,0,1-3.622,2.134s17.534,2.385,25.912,21.9a3.7,3.7,0,0,1,1.148-3.189c-.036-.123-.057-.2-.057-.2-7.991-18.229-21.867-20.457-23.381-20.647" transform="translate(-274.014 -23.261)" fill="#69c8f3"/>
          <path id="Trazado_630449" data-name="Trazado 630449" d="M300.088,51.016a.189.189,0,0,1-.174-.115,37.219,37.219,0,0,0-16-18.174,30.921,30.921,0,0,0-9.763-3.617.191.191,0,0,1-.015-.376,6.179,6.179,0,0,0,3.517-2.069.2.2,0,0,1,.169-.068c1.564.2,15.505,2.455,23.531,20.761l.067.228a.19.19,0,0,1-.062.2,3.5,3.5,0,0,0-1.079,3.034.189.189,0,0,1-.148.193.166.166,0,0,1-.042.005M275.014,28.887c3.512.759,17.508,4.742,24.9,21.079a3.516,3.516,0,0,1,1.1-2.392L301,47.486c-7.78-17.742-21.158-20.225-23.12-20.5a6.4,6.4,0,0,1-2.862,1.9" transform="translate(-273.985 -23.232)" fill="#0081b0"/>
          <path id="Trazado_630450" data-name="Trazado 630450" d="M279.883,22.938a6.942,6.942,0,0,1-1.5,3.366c1.514.19,15.39,2.418,23.381,20.647,0,0,.021.079.056.2a5,5,0,0,1,2.488-1.007c-8.831-23.429-24.422-23.209-24.422-23.209" transform="translate(-274.566 -22.748)" fill="#69c8f3"/>
          <path id="Trazado_630451" data-name="Trazado 630451" d="M301.789,47.315a.16.16,0,0,1-.057-.01.186.186,0,0,1-.127-.13l-.056-.2c-7.932-18.088-21.681-20.315-23.222-20.509a.192.192,0,0,1-.122-.311,6.836,6.836,0,0,0,1.462-3.263.189.189,0,0,1,.186-.17c.666,0,15.907.268,24.6,23.332a.188.188,0,0,1-.014.162.193.193,0,0,1-.134.093,4.817,4.817,0,0,0-2.4.964.183.183,0,0,1-.121.045M278.7,26.132c2.628.42,15.562,3.331,23.183,20.673a5.276,5.276,0,0,1,2.129-.835c-8.262-21.68-22.3-22.813-24-22.868a7.2,7.2,0,0,1-1.315,3.03" transform="translate(-274.537 -22.719)" fill="#0081b0"/>
        </g>
      </g>
    </g>
    <g id="Grupo_1004375" data-name="Grupo 1004375" transform="translate(1273.179 2530.193)" style="mix-blend-mode: screen;isolation: isolate">
      <g id="Grupo_1004374" data-name="Grupo 1004374" transform="translate(0 0)">
        <g id="Grupo_1004373" data-name="Grupo 1004373" clip-path="url(#clip-path-25)">
          <path id="Trazado_630452" data-name="Trazado 630452" d="M273.49,31.7c-4.561,5.026-5.667,12.581-4.047,18.98.068.271.654-.368.622-.6-.919-6.506-.446-12.706,3.595-18.161.161-.217.063-.479-.17-.221" transform="translate(-268.738 -31.591)" fill="#69c8f3"/>
          <path id="Trazado_630453" data-name="Trazado 630453" d="M271.449,55.635a4.055,4.055,0,0,1-.679-1.429c-.019-.211-.328.152-.33.275a2.681,2.681,0,0,0,.612,1.645c.114.139.477-.341.4-.491" transform="translate(-268.963 -34.575)" fill="#69c8f3"/>
        </g>
      </g>
    </g>
    <path id="Trazado_630454" data-name="Trazado 630454" d="M288.038,78.694s2.786,3.81,7.393-.171c0,0,15.863-.261,22.707,13.429,4.754,11.026-9.031,22.054-23.2,20.724-2.09-2.758-5.987-1.332-6.749-.57-10.741-.762-22.244-7.131-20.725-18.253,1.807-7.7,8.151-13.4,20.57-15.158" transform="translate(1081.627 2496.177)" fill="#69c8f3"/>
    <path id="Trazado_630455" data-name="Trazado 630455" d="M297.258,112.947c-.788,0-1.583-.036-2.363-.11a.19.19,0,0,1-.134-.075,3.952,3.952,0,0,0-3.265-1.547,5.366,5.366,0,0,0-3.2,1,.185.185,0,0,1-.147.055c-7.477-.529-14.377-3.637-18.01-8.109A13.039,13.039,0,0,1,267.252,93.8c1.966-8.383,9.133-13.676,20.73-15.322a.191.191,0,0,1,.18.076,4.244,4.244,0,0,0,3.18,1.566,6.178,6.178,0,0,0,3.936-1.768.2.2,0,0,1,.121-.047h.068c1.641,0,16.237.379,22.815,13.533a11.683,11.683,0,0,1-1.214,11.485c-3.787,5.756-11.747,9.624-19.806,9.625Zm-2.245-.482c.74.067,1.5.1,2.245.1h0c7.937,0,15.769-3.8,19.488-9.452A11.317,11.317,0,0,0,317.935,92c-6.557-13.113-21.71-13.314-22.463-13.315a6.488,6.488,0,0,1-4.131,1.815,4.538,4.538,0,0,1-3.413-1.63c-11.367,1.64-18.385,6.824-20.3,15a12.676,12.676,0,0,0,2.812,10.049c3.555,4.377,10.317,7.426,17.659,7.964a5.883,5.883,0,0,1,3.4-1.046,4.334,4.334,0,0,1,3.518,1.631" transform="translate(1081.656 2496.206)" fill="#0081b0"/>
    <g id="Grupo_1004378" data-name="Grupo 1004378" transform="translate(1350.144 2574.7)" opacity="0.7" style="mix-blend-mode: multiply;isolation: isolate">
      <g id="Grupo_1004377" data-name="Grupo 1004377" transform="translate(0 0)">
        <g id="Grupo_1004376" data-name="Grupo 1004376" clip-path="url(#clip-path-26)">
          <path id="Trazado_630456" data-name="Trazado 630456" d="M308.148,101.566a10.947,10.947,0,0,1-5.268-3.782,15.748,15.748,0,0,1-2.276-6.557c-.7-4.259-.823-8.626-2.5-12.541a21.228,21.228,0,0,0-2.489-.162c-4.607,3.981-7.393.172-7.393.172q-1.105.156-2.146.356c.119.353.238.706.344,1.065,2.3,7.783,2.7,20.247-7.593,22.01a22.254,22.254,0,0,1-10.126-.921c3.063,6.571,11.584,10.327,19.676,10.9.762-.761,4.659-2.187,6.749.571,10.694,1,21.169-5.035,23.617-12.8-3.066,2.133-6.568,3.171-10.591,1.689" transform="translate(-268.698 -78.523)" fill="#69c8f3"/>
        </g>
      </g>
    </g>
    <g id="Grupo_1004381" data-name="Grupo 1004381" transform="translate(1369.475 2574.51)" style="mix-blend-mode: multiply;isolation: isolate">
      <g id="Grupo_1004380" data-name="Grupo 1004380" transform="translate(0 0)">
        <g id="Grupo_1004379" data-name="Grupo 1004379" clip-path="url(#clip-path-27)">
          <path id="Trazado_630457" data-name="Trazado 630457" d="M295.32,80.286A4.33,4.33,0,0,1,291.2,78.72a46.612,46.612,0,0,1,.154,33.412,5.638,5.638,0,0,1,3.934-1.018c4.008-16.812,1.111-27.68.036-30.828" transform="translate(-291.006 -78.359)" fill="#69c8f3"/>
          <path id="Trazado_630458" data-name="Trazado 630458" d="M291.321,112.292a.2.2,0,0,1-.1-.03.191.191,0,0,1-.074-.227,46.8,46.8,0,0,0-.15-33.265.19.19,0,0,1,.325-.192,4.246,4.246,0,0,0,3.18,1.564,4.325,4.325,0,0,0,.757-.071.191.191,0,0,1,.214.126c1.016,2.97,4.012,13.978-.03,30.933a.182.182,0,0,1-.207.145,5.553,5.553,0,0,0-3.777.962.188.188,0,0,1-.135.056m.377-32.8a47.66,47.66,0,0,1,.013,32.1,6.424,6.424,0,0,1,2.94-.738c.155,0,.308.008.458.021,3.9-16.488,1.1-27.263.053-30.408a4.521,4.521,0,0,1-.663.049,4.407,4.407,0,0,1-2.8-1.026" transform="translate(-290.977 -78.33)" fill="#0081b0"/>
          <path id="Trazado_630459" data-name="Trazado 630459" d="M299.212,78.523a7.027,7.027,0,0,1-3.269,1.737c1.076,3.148,3.972,14.016-.036,30.828a4,4,0,0,1,2.815,1.588c5.135-14.83.489-34.153.489-34.153" transform="translate(-291.629 -78.333)" fill="#69c8f3"/>
          <path id="Trazado_630460" data-name="Trazado 630460" d="M298.694,112.837a.193.193,0,0,1-.152-.075,3.8,3.8,0,0,0-2.685-1.514.187.187,0,0,1-.134-.079.2.2,0,0,1-.029-.154c4.019-16.855,1.048-27.775.04-30.721a.2.2,0,0,1,.017-.158.188.188,0,0,1,.129-.091,6.9,6.9,0,0,0,3.179-1.695.2.2,0,0,1,.183-.036.191.191,0,0,1,.126.136c.048.193,4.6,19.547-.492,34.259a.193.193,0,0,1-.15.126l-.031,0m-2.582-1.937a4.131,4.131,0,0,1,2.513,1.361c4.544-13.559.993-30.927.442-33.42a7.279,7.279,0,0,1-2.9,1.533c1.067,3.231,3.832,14.051-.052,30.526" transform="translate(-291.6 -78.304)" fill="#0081b0"/>
        </g>
      </g>
    </g>
    <g id="Grupo_1004384" data-name="Grupo 1004384" transform="translate(1350.338 2576.521)" style="mix-blend-mode: screen;isolation: isolate">
      <g id="Grupo_1004383" data-name="Grupo 1004383" transform="translate(0)">
        <g id="Grupo_1004382" data-name="Grupo 1004382" clip-path="url(#clip-path-28)">
          <path id="Trazado_630461" data-name="Trazado 630461" d="M284.9,80.634c-2,.824-4.22,1.06-6.161,2.043a20.994,20.994,0,0,0-5.272,3.924c-2.952,2.945-4.974,7.151-4.466,11.373.06.5.789-.352.782-.652a14.05,14.05,0,0,1,5.068-11.164c2.939-2.617,6.511-3.248,9.89-4.984.134-.07.41-.643.159-.54" transform="translate(-268.921 -80.622)" fill="#69c8f3"/>
          <path id="Trazado_630462" data-name="Trazado 630462" d="M269.761,101.587c-.09-.232-.658.341-.539.588a2.062,2.062,0,0,1,.1.416c.029.122.21.007.253-.029a.682.682,0,0,0,.242-.384,1.093,1.093,0,0,0-.054-.592" transform="translate(-268.959 -83.389)" fill="#69c8f3"/>
        </g>
      </g>
    </g>
    <path id="Trazado_630463" data-name="Trazado 630463" d="M332.283,39.707S345.965,38.27,352.8,48.53c4.789,8.551-.82,20.454-13.679,22.233,0,0-2.532-1.847-6.226.82-8.686.889-23.131-1.856-21.672-14.214S323.267,41.4,324.915,41.207c0,0,4.724.992,7.368-1.5" transform="translate(1211.376 2849.135) rotate(-74)" fill="#69c8f3"/>
    <path id="Trazado_643910" data-name="Trazado 643910" d="M332.283,39.707S345.965,38.27,352.8,48.53c4.789,8.551-.82,20.454-13.679,22.233,0,0-2.532-1.847-6.226.82-8.686.889-23.131-1.856-21.672-14.214S323.267,41.4,324.915,41.207c0,0,4.724.992,7.368-1.5" transform="translate(1531.253 2834.266) rotate(-141)" fill="#69c8f3"/>
    <path id="Trazado_630464" data-name="Trazado 630464" d="M329.764,71.9c-7.018,0-13.073-2.1-16.2-5.611a10.986,10.986,0,0,1-2.559-8.971,18.9,18.9,0,0,1,6.841-12.769,16.978,16.978,0,0,1,7.014-3.558.243.243,0,0,1,.062,0,11.8,11.8,0,0,0,2.153.19,7.392,7.392,0,0,0,5.046-1.643.191.191,0,0,1,.111-.051c.027,0,.678-.07,1.769-.07,3.892,0,13.527.875,18.93,8.978a14.044,14.044,0,0,1,.168,13.131c-2.531,5.092-7.628,8.516-13.981,9.4a.2.2,0,0,1-.139-.035A4,4,0,0,0,336.8,70.3a6.573,6.573,0,0,0-3.82,1.408.187.187,0,0,1-.092.035,30.846,30.846,0,0,1-3.125.155ZM324.879,41.37a16.712,16.712,0,0,0-6.788,3.472,18.529,18.529,0,0,0-6.7,12.52,10.621,10.621,0,0,0,2.467,8.673c3.052,3.433,9,5.482,15.911,5.482h0a30.191,30.191,0,0,0,3.036-.148,6.905,6.905,0,0,1,4-1.448,4.429,4.429,0,0,1,2.338.614c6.194-.877,11.158-4.22,13.623-9.179a13.481,13.481,0,0,0-.154-12.763c-5.292-7.937-14.775-8.795-18.6-8.795-.882,0-1.48.045-1.667.062a7.8,7.8,0,0,1-5.259,1.7h0a12.223,12.223,0,0,1-2.2-.192" transform="translate(1211.412 2849.116) rotate(-74)" fill="#0081b0"/>
    <path id="Trazado_643911" data-name="Trazado 643911" d="M329.764,71.9c-7.018,0-13.073-2.1-16.2-5.611a10.986,10.986,0,0,1-2.559-8.971,18.9,18.9,0,0,1,6.841-12.769,16.978,16.978,0,0,1,7.014-3.558.243.243,0,0,1,.062,0,11.8,11.8,0,0,0,2.153.19,7.392,7.392,0,0,0,5.046-1.643.191.191,0,0,1,.111-.051c.027,0,.678-.07,1.769-.07,3.892,0,13.527.875,18.93,8.978a14.044,14.044,0,0,1,.168,13.131c-2.531,5.092-7.628,8.516-13.981,9.4a.2.2,0,0,1-.139-.035A4,4,0,0,0,336.8,70.3a6.573,6.573,0,0,0-3.82,1.408.187.187,0,0,1-.092.035,30.846,30.846,0,0,1-3.125.155ZM324.879,41.37a16.712,16.712,0,0,0-6.788,3.472,18.529,18.529,0,0,0-6.7,12.52,10.621,10.621,0,0,0,2.467,8.673c3.052,3.433,9,5.482,15.911,5.482h0a30.191,30.191,0,0,0,3.036-.148,6.905,6.905,0,0,1,4-1.448,4.429,4.429,0,0,1,2.338.614c6.194-.877,11.158-4.22,13.623-9.179a13.481,13.481,0,0,0-.154-12.763c-5.292-7.937-14.775-8.795-18.6-8.795-.882,0-1.48.045-1.667.062a7.8,7.8,0,0,1-5.259,1.7h0a12.223,12.223,0,0,1-2.2-.192" transform="translate(1531.249 2834.225) rotate(-141)" fill="#0081b0"/>
    <g id="Grupo_1004387" data-name="Grupo 1004387" transform="translate(1336.786 2555.588) rotate(-74)" opacity="0.7" style="mix-blend-mode: multiply;isolation: isolate">
      <g id="Grupo_1004386" data-name="Grupo 1004386" transform="translate(0 0)">
        <g id="Grupo_1004385" data-name="Grupo 1004385" clip-path="url(#clip-path-29)">
          <path id="Trazado_630465" data-name="Trazado 630465" d="M352.239,57.353a7.282,7.282,0,0,1-5.816-.585c-1.606-1.035-2.31-3.079-2.946-4.776-1.623-4.328-3.786-9.051-7.223-12.318a22.729,22.729,0,0,0-3.113.033c-2.645,2.492-7.368,1.5-7.368,1.5a8.3,8.3,0,0,0-1.708.489,20.7,20.7,0,0,1,5.868,9.2c1.075,3.236,1.524,6.77-.08,9.921-2.318,4.56-7.223,7.13-12.252,7.82,4.669,2.807,11.309,3.445,16.155,2.948,3.695-2.667,6.226-.82,6.226-.82,9.469-1.31,15-8.109,15.35-15.017a8.652,8.652,0,0,1-3.093,1.607" transform="translate(-317.6 -39.64)" fill="#69c8f3"/>
        </g>
      </g>
    </g>
    <g id="Grupo_1005316" data-name="Grupo 1005316" transform="translate(1310.043 2604.127) rotate(-141)" opacity="0.7" style="mix-blend-mode: multiply;isolation: isolate">
      <g id="Grupo_1004386-2" data-name="Grupo 1004386" transform="translate(0 0)">
        <g id="Grupo_1004385-2" data-name="Grupo 1004385" clip-path="url(#clip-path-29)">
          <path id="Trazado_630465-2" data-name="Trazado 630465" d="M352.239,57.353a7.282,7.282,0,0,1-5.816-.585c-1.606-1.035-2.31-3.079-2.946-4.776-1.623-4.328-3.786-9.051-7.223-12.318a22.729,22.729,0,0,0-3.113.033c-2.645,2.492-7.368,1.5-7.368,1.5a8.3,8.3,0,0,0-1.708.489,20.7,20.7,0,0,1,5.868,9.2c1.075,3.236,1.524,6.77-.08,9.921-2.318,4.56-7.223,7.13-12.252,7.82,4.669,2.807,11.309,3.445,16.155,2.948,3.695-2.667,6.226-.82,6.226-.82,9.469-1.31,15-8.109,15.35-15.017a8.652,8.652,0,0,1-3.093,1.607" transform="translate(-317.6 -39.64)" fill="#69c8f3"/>
        </g>
      </g>
    </g>
    <g id="Grupo_1004390" data-name="Grupo 1004390" transform="translate(1338.871 2547.872) rotate(-74)" style="mix-blend-mode: multiply;isolation: isolate">
      <g id="Grupo_1004389" data-name="Grupo 1004389" transform="translate(0 0)">
        <g id="Grupo_1004388" data-name="Grupo 1004388" clip-path="url(#clip-path-31)">
          <path id="Trazado_630466" data-name="Trazado 630466" d="M331.237,41.456a11.926,11.926,0,0,1-4.208-.008c3.135,1.972,13.142,10.044,7.975,30.375a7.312,7.312,0,0,1,3.085-1.373c3.006-18.124-3.594-26.2-6.852-28.994" transform="translate(-326.84 -39.756)" fill="#69c8f3"/>
          <path id="Trazado_630467" data-name="Trazado 630467" d="M334.975,71.984a.191.191,0,0,1-.184-.237c5.123-20.161-4.744-28.187-7.892-30.168a.191.191,0,0,1-.076-.231.189.189,0,0,1,.215-.116,11.851,11.851,0,0,0,2.142.188,10.434,10.434,0,0,0,1.99-.181.187.187,0,0,1,.16.043,20.719,20.719,0,0,1,5.831,8.827c2.03,5.6,2.4,12.441,1.085,20.343a.184.184,0,0,1-.156.155,7.2,7.2,0,0,0-3,1.341.2.2,0,0,1-.112.036M327.8,41.728c3.705,2.629,12.061,10.883,7.476,29.625a7.347,7.347,0,0,1,2.614-1.1c1-6.124,2.26-20.836-6.741-28.627a10.818,10.818,0,0,1-1.972.171,12.783,12.783,0,0,1-1.377-.073" transform="translate(-326.811 -39.727)" fill="#0081b0"/>
          <path id="Trazado_630468" data-name="Trazado 630468" d="M335.029,39.717a6.3,6.3,0,0,1-3.151,1.509c3.258,2.79,9.859,10.871,6.853,28.994a4.384,4.384,0,0,1,3.14.553c5.209-21.082-6.842-31.056-6.842-31.056" transform="translate(-327.481 -39.527)" fill="#69c8f3"/>
          <path id="Trazado_630469" data-name="Trazado 630469" d="M341.843,70.934a.2.2,0,0,1-.113-.036,4,4,0,0,0-2.181-.587,5.029,5.029,0,0,0-.816.068.185.185,0,0,1-.166-.053.189.189,0,0,1-.053-.165c1-6.057,2.355-20.987-6.789-28.819a.191.191,0,0,1,.088-.331,6.037,6.037,0,0,0,3.057-1.461.192.192,0,0,1,.252-.008c.122.1,12.082,10.292,6.9,31.249a.187.187,0,0,1-.119.132.183.183,0,0,1-.064.012m-2.294-1a4.561,4.561,0,0,1,2.169.515c4.689-19.409-5.466-29.37-6.714-30.5a6.34,6.34,0,0,1-2.745,1.359,20.948,20.948,0,0,1,5.545,8.578c2.009,5.538,2.389,12.3,1.128,20.087a5.507,5.507,0,0,1,.617-.036" transform="translate(-327.453 -39.498)" fill="#0081b0"/>
        </g>
      </g>
    </g>
    <g id="Grupo_1005317" data-name="Grupo 1005317" transform="translate(1303.754 2599.193) rotate(-141)" style="mix-blend-mode: multiply;isolation: isolate">
      <g id="Grupo_1004389-2" data-name="Grupo 1004389" transform="translate(0 0)">
        <g id="Grupo_1004388-2" data-name="Grupo 1004388" clip-path="url(#clip-path-31)">
          <path id="Trazado_630466-2" data-name="Trazado 630466" d="M331.237,41.456a11.926,11.926,0,0,1-4.208-.008c3.135,1.972,13.142,10.044,7.975,30.375a7.312,7.312,0,0,1,3.085-1.373c3.006-18.124-3.594-26.2-6.852-28.994" transform="translate(-326.84 -39.756)" fill="#69c8f3"/>
          <path id="Trazado_630467-2" data-name="Trazado 630467" d="M334.975,71.984a.191.191,0,0,1-.184-.237c5.123-20.161-4.744-28.187-7.892-30.168a.191.191,0,0,1-.076-.231.189.189,0,0,1,.215-.116,11.851,11.851,0,0,0,2.142.188,10.434,10.434,0,0,0,1.99-.181.187.187,0,0,1,.16.043,20.719,20.719,0,0,1,5.831,8.827c2.03,5.6,2.4,12.441,1.085,20.343a.184.184,0,0,1-.156.155,7.2,7.2,0,0,0-3,1.341.2.2,0,0,1-.112.036M327.8,41.728c3.705,2.629,12.061,10.883,7.476,29.625a7.347,7.347,0,0,1,2.614-1.1c1-6.124,2.26-20.836-6.741-28.627a10.818,10.818,0,0,1-1.972.171,12.783,12.783,0,0,1-1.377-.073" transform="translate(-326.811 -39.727)" fill="#0081b0"/>
          <path id="Trazado_630468-2" data-name="Trazado 630468" d="M335.029,39.717a6.3,6.3,0,0,1-3.151,1.509c3.258,2.79,9.859,10.871,6.853,28.994a4.384,4.384,0,0,1,3.14.553c5.209-21.082-6.842-31.056-6.842-31.056" transform="translate(-327.481 -39.527)" fill="#69c8f3"/>
          <path id="Trazado_630469-2" data-name="Trazado 630469" d="M341.843,70.934a.2.2,0,0,1-.113-.036,4,4,0,0,0-2.181-.587,5.029,5.029,0,0,0-.816.068.185.185,0,0,1-.166-.053.189.189,0,0,1-.053-.165c1-6.057,2.355-20.987-6.789-28.819a.191.191,0,0,1,.088-.331,6.037,6.037,0,0,0,3.057-1.461.192.192,0,0,1,.252-.008c.122.1,12.082,10.292,6.9,31.249a.187.187,0,0,1-.119.132.183.183,0,0,1-.064.012m-2.294-1a4.561,4.561,0,0,1,2.169.515c4.689-19.409-5.466-29.37-6.714-30.5a6.34,6.34,0,0,1-2.745,1.359,20.948,20.948,0,0,1,5.545,8.578c2.009,5.538,2.389,12.3,1.128,20.087a5.507,5.507,0,0,1,.617-.036" transform="translate(-327.453 -39.498)" fill="#0081b0"/>
        </g>
      </g>
    </g>
    <g id="Grupo_1004393" data-name="Grupo 1004393" transform="translate(1310.442 2540.591)" style="mix-blend-mode: screen;isolation: isolate">
      <g id="Grupo_1004392" data-name="Grupo 1004392" transform="translate(0 0)">
        <g id="Grupo_1004391" data-name="Grupo 1004391" clip-path="url(#clip-path-33)">
          <path id="Trazado_630470" data-name="Trazado 630470" d="M322.085,43.581c-3.171.857-5.8,3.781-7.465,6.5a20,20,0,0,0-2.933,10.764c.009.441.687-.28.711-.506.712-6.391,2.961-13.56,9.5-16.28.128-.053.425-.541.182-.476" transform="translate(-311.683 -43.575)" fill="#69c8f3"/>
          <path id="Trazado_630471" data-name="Trazado 630471" d="M312.554,64.573c-.024-.236-.345.176-.354.294a2.958,2.958,0,0,0,.318,1.842c.142.214.457-.3.422-.458a13.954,13.954,0,0,1-.385-1.678" transform="translate(-311.749 -46.344)" fill="#69c8f3"/>
        </g>
      </g>
    </g>
  </g>
</svg>
