<svg id="Layer_1" enable-background="new 0 0 512 512" viewBox="0 0 512 512" xmlns="http://www.w3.org/2000/svg"><g><path d="m245.002 21.996c-135.311 0-245.002 109.691-245.002 245.002 0 40.121 9.645 77.988 26.741 111.413l228.82 18.733 107.609 84.512c75.61-41.712 126.834-122.198 126.834-214.657.001-135.312-109.691-245.003-245.002-245.003z" fill="#02c0fc"/><path d="m281.422 273.402c-1.246-7.364-2.109-14.917-2.828-22.66h-.001l-44.832-53.151-36.393-98.186c-7.632-1.287-12.683-1.227-12.683-1.227s-61.355-.764-79.717 57.572c-13.771 43.752-11.12 82.799-17.021 117.651-3.637 21.488 11.329 41.757 32.901 44.857 15.375 2.209 36.077 3.793 63.837 3.793 27.759 0 48.462-1.584 63.836-3.793 21.572-3.099 36.539-23.368 32.901-44.856z" fill="#2a428b"/><path d="m184.684 160.812c22.656 35.225 65.446 69.432 65.446 69.432s3.668 23.192 28.462 20.498h.001c-2.683-28.905-3.33-60.484-14.192-94.991-13.096-41.605-48.055-53.146-67.034-56.345 0 0-35.338 26.182-12.683 61.406z" fill="#3f57a0"/><path d="m69.892 348.857-11.69 2.907c-14.249 3.544-25.772 13.529-31.461 26.646 11.323 22.138 25.926 42.315 43.151 59.918l21.768-35.552z" fill="#bbf0f9"/><path d="m345.676 388.351c-3.355-17.896-16.84-32.192-34.51-36.586l-12.07-3.002-24.402 91.409 24.402 65.824c22.716-5.12 44.234-13.395 64.075-24.34z" fill="#e8f8fc"/><path d="m224.378 330.181-4.806-35.992h-69.775l-4.807 35.991v.001l12.517 94.083h51.234l15.637-94.082z" fill="#ce7867"/><path d="" fill="#fc9460"/><path d="m267.203 210.525c-1.537-.968-3.421-1.147-5.145-.575-2.845.944-5.747.669-8.845-.712l-12.146 15.927 9.972 20.532c10.475-.084 13.039-7.044 13.557-11.83.243-2.242.78-4.48 1.611-6.692 1.075-2.857 2.607-6.373 3.586-10.048.674-2.53-.373-5.207-2.59-6.602z" fill="#e28b7d"/><path d="m184.684 160.812-.018-.025c-1.988-.378-4.016-.812-6.124-1.365-26.576-6.976-28.288 23.948-36.077 52.314l4.159 8.7-9.862 7.799c-2.731 6.104-6.152 11.608-10.688 15.96-4.566 4.382-6.193 11.016-4.306 17.056 3.967 12.695 8.881 24.094 14.684 34.027 8.471 14.497 21.299 25.771 37.097 32.607 7.076 3.061 15.19 3.061 22.265 0 10.154-4.393 19.073-10.63 26.405-18.368l2.157-77.425z" fill="#e28b7d"/><path d="m253.214 209.237c-1.966-.856-3.771-2.175-5.214-3.982-6.213-7.779-16.11-22.886-20.948-44.794-.421-1.905-2.428-2.999-4.238-2.273-5.941 2.381-19.324 6.175-38.147 2.599l.018.025s-45.286 87.087 37.537 148.706c4.075-4.301 7.667-9.06 10.693-14.239 8.343-14.276 14.854-31.577 19.358-51.456 1.265-8.05 2.582-22.633.941-34.586z" fill="#efa29a"/><g><g><g><path d="m198.864 216.065c-7.932 7.559 3.526 19.131 11.723 11.886 3.083-2.725 7.776-2.724 10.858 0 8.19 7.238 19.668-4.314 11.723-11.886-9.545-9.097-24.747-9.108-34.304 0z" fill="#bf6b5e"/></g></g></g><path d="m142.466 211.737c-1.569 5.715-3.387 11.323-5.703 16.499 2.946 2.397 7.392 3.042 11.155-.284 3.083-2.725 7.776-2.724 10.858 0 8.19 7.238 19.668-4.314 11.723-11.886-7.652-7.293-18.933-8.731-28.033-4.329z" fill="#bf6b5e"/><g><path d="m167.891 261.291c-6.442 0-11.296 4.15-10.239 8.694 3.247 13.951 14.12 24.205 27.032 24.205 12.913 0 23.785-10.254 27.032-24.205 1.058-4.544-3.796-8.694-10.239-8.694z" fill="#e2338f"/></g><g><path d="m265.6 184.686 4.645-1.646c2.543-.902 4.242-3.307 4.242-6.005v-14.802c0-40.413-28.491-75.562-68.206-83.047-6.662-1.256-13.856-1.971-21.597-1.971v90.386l21.508 9.13c22.788 1.409 43.649 4.772 59.408 7.955z" fill="#ffc242"/><path d="m99.123 183.04 4.817 1.707c15.611-3.199 36.391-6.594 59.23-8.012l21.515-9.133v-90.387c-7.896 0-15.22.744-21.993 2.047-39.539 7.602-67.811 42.709-67.811 82.972v14.802c-.001 2.698 1.699 5.103 4.242 6.004z" fill="#fea53d"/><path d="m236.139 179.713c-5.039-11.622-7.647-24.154-7.647-36.828v-50.298c0-15.426-21.803-22.887-21.803-22.887l-15.746 64.76 11.069 42.038c11.996.607 23.522 1.778 34.127 3.215z" fill="#ffda4c"/><path d="m168.351 176.45 11.401-35.805-17.072-70.944s-21.803 7.46-21.803 22.887v50.298c0 12.684-2.613 25.227-7.66 36.857 10.869-1.49 22.739-2.699 35.134-3.293z" fill="#ffda4c"/><path d="m184.684 176.05c7.463 0 14.83.261 22.005.714v-63.319l-22.005-15.102-22.005 15.101v63.322c7.163-.454 14.529-.716 22.005-.716z" fill="#fef156"/><path d="m195.22 58.232h-21.072c-6.308 0-11.469 5.161-11.469 11.469v43.744c2.956 9.339 11.723 16.157 22.005 16.157 10.283 0 19.049-6.819 22.005-16.157v-43.744c0-6.308-5.161-11.469-11.469-11.469z" fill="#fffbb3"/><path d="m162.678 165.311c-40.74 2.132-71.265 9.372-72.758 9.732-7.737 1.862-12.499 9.643-10.638 17.38 1.862 7.737 9.645 12.502 17.381 10.638.341-.082 30.1-7.142 69.135-9.048l9.525-16.488z" fill="#ffc242"/><path d="m279.449 175.043c-1.751-.422-43.469-10.319-94.765-10.319-7.578 0-14.944.217-22.006.587-.017.023-12.693 16.593 3.12 28.702 6.095-.298 12.415-.471 18.886-.471 47.722 0 87.633 9.426 88.022 9.519 1.133.273 2.267.403 3.384.403 6.506-.001 12.408-4.437 13.997-11.041 1.861-7.737-2.902-15.518-10.638-17.38z" fill="#ffda4c"/></g><path d="m347.903 99.405s-10.047 115.004 88.186 161.885l33.47-7.763c26.744-37.279 42.441-82.665 42.441-131.636 0-9.298-.585-18.461-1.692-27.467-.525-4.269-3.794-7.686-8.022-8.471-31.666-5.877-65.657-9.076-101.041-9.076-8.833 0-17.579.2-26.224.59z" fill="#5071b7"/><path d="m406.601 313.479c24.635-15.96 46.013-36.329 62.958-59.951-101.901-36.908-97.98-144.706-94.539-176.06-25.986 1.174-51.056 4.076-74.817 8.486-4.229.785-7.497 4.202-8.022 8.471-1.107 9.006-1.692 18.169-1.692 27.467 0 79.999 41.882 150.436 105.398 191.587 3.254 2.107 7.461 2.107 10.714 0z" fill="#3f57a0"/><g fill="#fef156"><path d="m273.737 57.314 11.455 7.557c4.382 2.891 10.39 2.109 13.557-2.077 3.471-4.587 2.305-11.073-2.42-14.19l-11.737-7.743c-4.544-2.998-10.657-1.745-13.655 2.799-2.996 4.543-1.743 10.656 2.8 13.654z"/><path d="m299.206 14.219 10.698 21.6c2.161 4.784 7.659 7.33 12.572 5.482 5.384-2.025 7.861-8.132 5.531-13.291l-11.153-22.53c-2.499-5.048-8.716-6.975-13.632-4.225-4.578 2.562-6.345 8.263-4.016 12.964z"/></g><path d="m95.386 461.006c21.4 16.528 45.604 29.599 71.785 38.364l17.513-55.291z" fill="#1d8df2"/><path d="m188.089 446.404 14.107 61.863c13.9 2.45 28.203 3.733 42.806 3.733 18.589 0 36.69-2.082 54.093-6.004v-44.99z" fill="#27a6ff"/><path d="m106.136 393.593s-12.503 43.363 7.291 67.413h53.744l9.849-43.997s-12.558-39.297-70.884-23.416z" fill="#27a6ff"/><path d="m194.637 412.823 7.56 48.183h53.364l6.017-71.207c-43.256-8.092-66.941 23.024-66.941 23.024z" fill="#02c0fc"/><path d="m104.266 340.309-34.373 8.549v89.471c7.958 8.132 16.476 15.712 25.494 22.678h18.041v-64.54l11.965-37.238z" fill="#ffda4c"/><path d="m265.103 340.309-21.51 30.234 11.968 26.601v63.862h43.535v-112.243z" fill="#fef156"/><path d="m199.996 405.66-5.36 2.805h-19.905l-5.34-2.805-2.221 4.052v89.658c11.329 3.793 23.026 6.783 35.026 8.897v-98.555z" fill="#6ad9fb"/><path d="m111.383 391.163c7.07 29.327 63.349 17.302 63.349 17.302l-29.742-78.285-40.725 10.128c.382 8.677 1.809 28.833 7.118 50.855z" fill="#bbf0f9"/><path d="m257.985 391.163c5.309-22.022 6.736-42.178 7.118-50.854l-40.725-10.128-29.742 78.285c.001-.001 56.28 12.024 63.349-17.303z" fill="#e8f8fc"/><path d="m431.996 155.242-58.236-50.105c-18.81.936-37.339 2.811-55.397 5.658-.212 3.712-.318 7.419-.318 11.097 0 19.784 2.961 39.154 8.586 57.605 12.57 41.23 38.478 77.867 74.614 104.235 16.516-12.051 30.887-26.251 42.833-42.049z" fill="#3ecd8d"/><path d="m373.76 105.137c.586 39.735 11.712 102.317 70.318 136.546 14.193-18.77 24.958-39.798 31.783-62.187 5.625-18.451 8.585-37.82 8.585-57.605 0-3.677-.107-7.384-.318-11.097-26.797-4.224-54.614-6.361-82.883-6.361-9.219 0-18.382.251-27.485.704z" fill="#95db76"/><path d="m388.155 161.031c-4.582-4.84-12.254-4.945-16.967-.232-4.548 4.549-4.632 11.897-.188 16.548l21.674 22.4 12.712-20.857z" fill="#bbf0f9"/><path d="m436.749 155.672c-4.635-4.635-12.15-4.635-16.785 0l-27.003 27.003c-4.47 4.47-5 11.746-.828 16.495 4.571 5.204 12.505 5.397 17.325.577l27.29-27.29c4.635-4.635 4.635-12.15.001-16.785z" fill="#e8f8fc"/></g><g/><g/><g/><g/><g/><g/><g/><g/><g/><g/><g/><g/><g/><g/><g/></svg>