<svg id="Layer_1" enable-background="new 0 0 511.674 511.674" height="512" viewBox="0 0 511.674 511.674" width="512" xmlns="http://www.w3.org/2000/svg"><g><path d="m265.046 9.214c-45.052 0-87.283 12.08-123.629 33.177l370.257 213.45c0-136.208-110.419-246.627-246.628-246.627z" fill="#fec502"/><path d="m278.56 502.096c102.598-5.54 190.275-74.273 221.285-170.633 8.714-27.076 12.655-55.268 11.664-84.209-6.041-26.902-20.454-50.638-40.374-68.315-9.832-8.725-15.374-21.302-15.374-34.447 0-46.47-37.672-84.142-84.142-84.142h-116.976c-17.767 0-35.294-4.537-50.626-13.515-10.91-6.388-23.596-10.069-37.143-10.116-.025 0-.048-.006-.073-.006-.063 0-.127 0-.19 0-6.899 0-13.575.949-19.912 2.711-59.453 32.579-104.01 88.942-120.884 156.289v60.128h-7.397c0 20.174 2.471 40.47 7.397 60.128 4.757 18.987 11.716 37.098 20.589 54.053 44.673 85.369 134.912 137.324 232.156 132.074z" fill="#ffa50a"/><g><path d="m13.564 70.119h402.818v290.134h-402.818z" fill="#b6fff6"/><path d="m142.353 70.119h145.239v290.134h-145.239z" fill="#97f4ec"/><path d="m409.293 81.002v268.368h-388.641v-268.368zm20.652-20.653h-429.945v309.673h429.945z" fill="#fff"/><path d="m88.247 349.37h-67.595v-268.368h67.595v-20.653h-88.247v309.673h88.247z" fill="#f5f0f0"/><path d="m466.027 329.173-25.801-25.801c-5.406-5.406-1.577-14.648 6.068-14.648h41.904c.428-4.281.649-8.622.649-13.016 0-71.438-57.912-129.35-129.35-129.35s-129.35 57.912-129.35 129.35 57.912 129.35 129.35 129.35c51.935 0 96.712-30.612 117.296-74.772-3.329 2.183-7.841 1.813-10.766-1.113z" fill="#5c2481"/><circle cx="359.497" cy="275.709" fill="#8757f3" r="99.016"/><path d="m309.661 275.709c0-8.796 6.171-16.482 14.957-18.261 7.494-1.518 15.135 1.915 19.39 8.268l1.626 2.428c1.431 2.138 3.813 3.359 6.292 3.359.732 0 1.473-.106 2.201-.327 3.189-.969 5.37-3.911 5.37-7.245 0 0 .181-30.565.084-52.477-.031-7.098 3.369-13.318 7.646-18.324 5.515-6.455 1.111-16.406-7.378-16.436-.345-.001-.69-.001-1.036.002-54.575.37-98.908 45.519-98.325 100.093.579 54.187 44.685 97.936 99.01 97.936h.255c6.306-.016 8.27-8.486 2.696-11.434-31.396-16.606-52.788-49.596-52.788-87.582zm34.693-65.363v14.662c0 4.208-5.454 5.866-7.796 2.369 0 0-2.886-4.299-5.026-7.473-1.36-2.017-1.258-4.693.275-6.582 1.648-2.03 3.375-3.994 5.175-5.886 2.663-2.799 7.372-.954 7.372 2.91z" fill="#6a2bc2"/><path d="m331.034 233.207 28.463 42.502v-73.933" style="fill:none;stroke:#fff;stroke-width:15.143;stroke-linecap:round;stroke-linejoin:round;stroke-miterlimit:10"/><g><path d="m231.299 394.21-73.785-52.794v105.902c0 11.361 9.21 20.571 20.571 20.571h129c15.014 0 27.186-12.171 27.186-27.186v-120.172z" fill="#fff"/><g fill="#f5f0f0"><path d="m211.826 390.647c-2.084-2.775-6.042-3.174-8.634-.951l-16.652 14.284c-9.125 7.827-23.229 1.344-23.229-10.679v-47.738l-34.984-25.032v120.172c0 15.014 12.171 27.186 27.186 27.186h34.984c-3.217 0-6.304-1.3-9.169-3.343-13.119-9.357-13.651-28.715-1.42-39.206l30.873-26.482c2.403-2.063 2.947-5.678 1.045-8.211z"/><path d="m334.271 320.531-85.481 61.163 9.724 6.958c-1.004.382-1.92 1.042-2.625 1.972-1.921 2.533-1.383 6.166 1.03 8.236l52.622 45.137c1.122.962 2.499 1.433 3.869 1.433 1.727 0 3.444-.748 4.625-2.204 2.05-2.528 1.562-6.274-.908-8.393l-28.027-24.041c-10.643-9.129-9.909-25.819 1.495-33.978l43.676-31.251z"/></g><path d="m309.623 297.177-156.456-.35c-22.587-.05-33.533 28.207-16.353 42.871.285.243.576.482.874.716l15.655 12.314 60.163 43.965c10.614 7.757 25.012 7.812 35.685.137l60.064-43.192 16.06-13.135c.303-.248.6-.501.889-.758 16.669-14.829 5.731-42.518-16.581-42.568z" fill="#00b7f0"/><path d="m175.112 338.91c-12.554-11.732-3.781-32.877 13.402-32.877h139.97c-4.325-5.261-10.858-8.838-18.861-8.856-2.418-.005-111.546-.249-156.456-.35-.002 0-.003 0-.005 0-7.744-.016-14.62 3.373-19.246 9.205h.003c-8.066 10.169-7.71 25.349 3.768 34.382l15.655 12.314s60.163 43.965 60.163 43.965c10.614 7.757 25.012 7.812 35.685.136l1.856-1.335c-14.287-10.6-67.732-48.92-75.934-56.584z" fill="#0091c8"/></g><path d="m466.027 313.013-25.801-25.801c-5.406-5.406-1.577-14.648 6.068-14.648h51.602c7.645 0 11.473 9.243 6.068 14.648l-25.801 25.801c-3.352 3.351-8.785 3.351-12.136 0z" fill="#5c2481"/><path d="m214.973 141.867c0 31.275-43.233 98.955-63.687 129.227-5.019 7.427-15.961 7.427-20.979 0-20.455-30.271-63.687-97.951-63.687-129.227 0-40.967 33.21-74.177 74.177-74.177s74.176 33.21 74.176 74.177z" fill="#97f4ec"/><path d="m214.973 110.888c0 31.275-43.233 98.955-63.687 129.227-5.019 7.427-15.961 7.427-20.979 0-20.455-30.271-63.687-97.951-63.687-129.227 0-40.967 33.21-74.177 74.177-74.177s74.176 33.21 74.176 74.177z" fill="#fb3d80"/><path d="m177.328 137.774c2.241-20.924-13.786-39.84-34.808-40.801-.267-.012-.533-.022-.798-.028-20.594-.506-30.187-25.615-15.261-39.813 4.884-4.646 10.447-8.689 16.591-11.926 4.12-2.171 2.592-8.484-2.065-8.496-.063 0-.127 0-.19 0-40.967 0-74.177 33.21-74.177 74.177 0 31.275 43.233 98.955 63.687 129.227 5.019 7.427 15.961 7.427 20.98 0 2.358-3.49 5.022-7.482 7.885-11.854-6.591-10.065-14.248-22.166-21.74-34.922-5.51-9.383-.181-21.452 10.483-23.614 14.935-3.026 27.62-15.211 29.413-31.95z" fill="#e21e69"/><circle cx="140.796" cy="110.888" fill="#fff" r="36.749"/><path d="m128.397 109.879c0-11.24 5.049-21.297 13.001-28.035 3.167-2.683 1.156-7.893-2.987-7.629-.126.008-.251.017-.377.026-18.129 1.336-32.752 16.095-33.91 34.237-1.364 21.387 15.578 39.159 36.672 39.159.199 0 .398-.002.596-.005 4.118-.066 5.826-5.408 2.471-7.795-9.361-6.66-15.466-17.595-15.466-29.958z" fill="#f5f0f0"/></g></g></svg>