<svg id="Grupo_1005197" data-name="Grupo 1005197" xmlns="http://www.w3.org/2000/svg" xmlns:xlink="http://www.w3.org/1999/xlink" width="641.667" height="94.803" viewBox="0 0 641.667 94.803">
  <defs>
    <clipPath id="clip-path">
      <rect id="Rectángulo_347777" data-name="Rectángulo 347777" width="641.667" height="94.803" fill="none"/>
    </clipPath>
  </defs>
  <g id="Grupo_1005196" data-name="Grupo 1005196" transform="translate(0 0)" clip-path="url(#clip-path)">
    <path id="Trazado_643581" data-name="Trazado 643581" d="M156.518,26.262h-7.386s-11.313,16.409-11.54,32.209c-.174,12.233,3.924,16.618,6.463,18,1.929,1.052,8.787,1.038,11.969.971,3.182.067,10.041.081,11.969-.971,2.539-1.384,6.637-5.77,6.463-18-.227-15.8-11.54-32.209-11.54-32.209Z" transform="translate(82.077 15.666)" fill="#fbcb43"/>
    <rect id="Rectángulo_347756" data-name="Rectángulo 347756" width="13.81" height="4.188" transform="translate(231.212 37.741)" fill="#f5b400"/>
    <path id="Trazado_643582" data-name="Trazado 643582" d="M158.321,20.013H145.969a1.964,1.964,0,0,0-1.959,1.959v2.965a1.964,1.964,0,0,0,1.959,1.959h12.352a1.964,1.964,0,0,0,1.959-1.959V21.972a1.964,1.964,0,0,0-1.959-1.959" transform="translate(85.909 11.939)" fill="#fbcb43"/>
    <path id="Trazado_643583" data-name="Trazado 643583" d="M140.368,50.817a46.992,46.992,0,0,0-.105,13.3c.346,2.942,2.6,2.51,2.6.086a112.483,112.483,0,0,1,1.089-18.608c.864-5.111,4.205-14.814,4.622-16.012h-1.53c-.589,1.229-5.471,11.615-6.672,21.234" transform="translate(83.426 17.647)" fill="#f5b400"/>
    <path id="Trazado_643584" data-name="Trazado 643584" d="M145.387,49.885c-.3,5.749-.069,12.413.479,14.75.434,1.854,2.079,2.521,2.682.174.752-2.923,1.261-33.1,1.3-35.226H148.01c-.217,1.375-2.339,14.848-2.623,20.3" transform="translate(86.651 17.647)" fill="#f5b400"/>
    <path id="Trazado_643585" data-name="Trazado 643585" d="M154.833,29.583h-1.528c.415,1.2,3.757,10.9,4.62,16.012A112.486,112.486,0,0,1,159.014,64.2c0,2.424,2.251,2.856,2.6-.086a46.993,46.993,0,0,0-.105-13.3c-1.2-9.619-6.083-20-6.672-21.234" transform="translate(91.454 17.647)" fill="#f5b400"/>
    <path id="Trazado_643586" data-name="Trazado 643586" d="M152.32,29.583h-1.834c.035,2.128.544,32.3,1.3,35.225.6,2.347,2.248,1.681,2.682-.172.548-2.337.779-9,.479-14.75-.284-5.455-2.406-18.929-2.623-20.3" transform="translate(89.772 17.647)" fill="#f5b400"/>
    <rect id="Rectángulo_347757" data-name="Rectángulo 347757" width="13.737" height="2.174" transform="translate(231.284 29.777)" fill="#b2b2b2"/>
    <path id="Trazado_643587" data-name="Trazado 643587" d="M146.231,22.963h9.088V11.423h-9.088Z" transform="translate(87.234 6.814)" fill="#999"/>
    <path id="Trazado_643588" data-name="Trazado 643588" d="M134.934,9.026l6.9,4.24L144.2,7.051,136.39,5.141Z" transform="translate(80.495 3.067)" fill="#fbcb43"/>
    <path id="Trazado_643589" data-name="Trazado 643589" d="M142.471,8.223l.52-1.1L136.962,6Z" transform="translate(81.704 3.581)" fill="#f5b400"/>
    <path id="Trazado_643590" data-name="Trazado 643590" d="M141.276,11l.445-1.062-5.465-2.251Z" transform="translate(81.284 4.585)" fill="#f5b400"/>
    <path id="Trazado_643591" data-name="Trazado 643591" d="M141.815,9.632l.407-1.134-5.513-1.665Z" transform="translate(81.553 4.076)" fill="#f5b400"/>
    <rect id="Rectángulo_347758" data-name="Rectángulo 347758" width="9.499" height="3.578" transform="matrix(0.84, -0.543, 0.543, 0.84, 222.674, 25.085)" fill="#999"/>
    <path id="Trazado_643592" data-name="Trazado 643592" d="M141.338,12.971a2.294,2.294,0,0,0,1.545,2.38S141.174,21.8,132.41,29.5c-1.218,1.071.174,1.126,3.03.26s7.129-3.726,8.32-5.977c.683-1.292,1.7-1.391,2.211-1.82s.8-.778.8-2.416V17.3c0-1.119,0-2.123,1.386-2.123.567,0,3.552.046,3.552.046l-7.7-4.652s-2.467.5-2.671,2.4" transform="translate(78.725 6.305)" fill="#fbcb43"/>
    <path id="Trazado_643593" data-name="Trazado 643593" d="M158.919,13.128c-3.578-3.116-17.193-7.271-17.193-7.271S140.3,9.81,139.59,11.541c-.924,2.248-.516,3.282.714,3.982,2.586,1.469,6.225,3.535,10.192,5.382,0-1.66,1.4-5.639,4.687-5.639,3.707,0,4.4,4.023,4.4,5.639.624-.315,1.989-1.921,3.808-1.921h8.784V17.253H163.78s-3.632-3.056-4.861-4.125" transform="translate(82.971 3.494)" fill="#b2b2b2"/>
    <path id="Trazado_643594" data-name="Trazado 643594" d="M141.285,10.231a.981.981,0,1,0,.98.98.981.981,0,0,0-.98-.98" transform="translate(83.698 6.103)" fill="#d8d8d8"/>
    <path id="Trazado_643595" data-name="Trazado 643595" d="M151.863,10.732c-2.058-.964-9.234-3.568-9.234-3.568l-1.387,3.915s1.485.4,1.62,1.522a2.4,2.4,0,0,1-.809,2.16s3.488,1.309,4.976,1.871,3.278-2.321,5.21-2.61,2.35-.3,2.511-.98c.232-.982-1.766-1.783-2.887-2.309" transform="translate(84.257 4.274)" fill="#d8d8d8"/>
    <path id="Trazado_643596" data-name="Trazado 643596" d="M108.5,4.108c-1.025-4.18-4.686-5.015-6.479-3.2s-6.287,2.647-8.069,1.81S89.186,2.3,88,4.385c-1.664,2.934-1.046,4.459,1.74,7.108a22.3,22.3,0,0,1,4.705,6.685c.54,1.113.311,2.926.013,5.984s4.338,7.809,4.786,10.67.736,14.275.736,14.275.766-3.065,1.178-5.141-.875-8.233-.2-11.533c.5-2.465,3.413-4.5,5.039-5.286s2.553-3.674,2.5-6.773,3.115-3.728,5.741-4.842,2.25-4.6,0-7.1-4.716-.147-5.741-4.327" transform="translate(51.952 0)" fill="#87c133"/>
    <path id="Trazado_643597" data-name="Trazado 643597" d="M103.627,13.828c-.789.84-3.2,4.006-3.2,4.006a34.237,34.237,0,0,0,.139-4.772,15.19,15.19,0,0,1,.964-6.87c.774-1.906,1.823-4.972,1.823-4.972s-2.369,2.3-2.926,4.25-1.324,6.2-1.324,6.2a21.777,21.777,0,0,0-3.134-4.6A12.185,12.185,0,0,0,89.621,3.8s2.165,1.881,4.951,3.91a12.93,12.93,0,0,1,4.2,5.564,14.026,14.026,0,0,1,.324,7.245c-.348,1.531-.792,3.83-.792,3.83s-.908-5.851-2.831-8.776a44.9,44.9,0,0,1-3.035-6.618,11.521,11.521,0,0,0,2.409,6.686c1.435,2.02,2.526,6.915,3.134,9.683.322,1.462-.139,3.623-.07,4.876s.393,4.248.393,4.248a75.215,75.215,0,0,1,.468-8.259,28.5,28.5,0,0,1,2.693-8.353c1.868-3.343,7.034-8.042,7.034-8.042a29.361,29.361,0,0,0-4.876,4.036" transform="translate(53.463 0.728)" fill="#6fa511"/>
    <path id="Trazado_643598" data-name="Trazado 643598" d="M104.559,40.155c-.3-3.813-1.277-7.949-.656-11.12.793-4.05,1.438-8.738,0-11.993-1.223-2.77-4.269-2.146-6.009-3.7s-.166-5.6-3.3-7.5a8.4,8.4,0,0,0-9.255.4c-1.9,1.611-1.938,3.68-4.288,5.738-2.88,2.519-4.448,4.429-3.257,8.639,1.205,4.258,5.639,4.528,7.07,6.434s.714,5.481,3.377,7.8,10.92.065,13.191,3.4a20.946,20.946,0,0,1,3.268,6.833,31.4,31.4,0,0,1,.645,7.505l.726,1.549a67.592,67.592,0,0,0-.615-10.213c-.367-2.044-.79-2.47-.894-3.766" transform="translate(46.166 2.772)" fill="#608e07"/>
    <path id="Trazado_643599" data-name="Trazado 643599" d="M99.842,29.892c-.538-3.453-.26-11.634-.26-11.634a14.1,14.1,0,0,0-.833,4.208c-.048,1.371,0,5.641,0,5.641s-4.09-6.99-7.229-10.167C88.347,14.727,87.7,7.2,87.7,7.2a18.059,18.059,0,0,0,.286,5.776A12.812,12.812,0,0,0,89.813,17.5a31.713,31.713,0,0,0-5.746-2.2,43.993,43.993,0,0,0-5.494-.778s5.957,1.828,6.832,2.224,3.693,1.073,5.877,2.859a31.34,31.34,0,0,1,2.146,2.344s-4.8-.723-9-.991a24.448,24.448,0,0,1-5.451-.685,11.833,11.833,0,0,0,5.123,1.49c1.031.1,7.544.584,8.5.9s2.4,1.846,3.654,3.415a51.955,51.955,0,0,1,2.939,5.4c.343.671,1.269,2.107,2.364,4.282.546,1.082,2.44,5.275,2.44,5.275s-.848-2.879-1.962-5.692c-.829-2.087-1.957-3.985-2.186-5.455" transform="translate(46.872 4.294)" fill="#6fa511"/>
    <path id="Trazado_643600" data-name="Trazado 643600" d="M122.865,12.611c-2.531-1.831-2.387-4.127-4.29-5.736a8.4,8.4,0,0,0-9.255-.4c-3.136,1.906-2.281,4.186-4.022,5.736s-5.21,1.52-6.434,4.29c-1.438,3.257-1.747,8.023-1.295,12.153.351,3.212-1.461,10.625-2.43,15.408a51.846,51.846,0,0,0-.639,9.212l1.921-.632a24.144,24.144,0,0,1,.346-7.07,25.326,25.326,0,0,1,3.276-7.707c2.27-3.335,10.528-1.081,13.191-3.4s3.184-5.257,4.614-7.164,6.34-2.018,7.545-6.274c1.193-4.21.875-5.958-2.529-8.42" transform="translate(56.37 3.151)" fill="#6fa511"/>
    <path id="Trazado_643601" data-name="Trazado 643601" d="M108.846,17.948c2.184-1.787,5-2.462,5.878-2.859s6.83-2.224,6.83-2.224a29.565,29.565,0,0,0-5.441.565,27.776,27.776,0,0,0-5.8,2.414,12.829,12.829,0,0,0,1.828-4.528,11.7,11.7,0,0,0,.278-4.726s-.64,6.477-3.813,9.689c-3.137,3.177-7.229,10.167-7.229,10.167s.048-4.269,0-5.639a14.043,14.043,0,0,0-.833-4.21s.278,8.182-.26,11.636-4.148,11.145-4.148,11.145,2.234-3.787,2.78-4.869c1.1-2.174,1.681-4.015,2.026-4.686a51.2,51.2,0,0,1,2.939-5.4c1.248-1.569,2.7-3.1,3.653-3.417a66.429,66.429,0,0,1,6.712-.6,51.866,51.866,0,0,1,7.307.08,34.856,34.856,0,0,0-5.163-.873c-3.892-.477-9.689.675-9.689.675a30.923,30.923,0,0,1,2.144-2.344" transform="translate(57.35 3.931)" fill="#608e07"/>
    <path id="Trazado_643602" data-name="Trazado 643602" d="M98.306,33.328c-4.43.153-9.507,1.8-8.572,8.819.987,7.408,2.816,20.444,2.816,20.444h11.51s1.831-13.036,2.818-20.444c.936-7.018-4.141-8.666-8.572-8.819" transform="translate(53.463 19.882)" fill="#e88416"/>
    <path id="Trazado_643603" data-name="Trazado 643603" d="M93.139,39.8a26.633,26.633,0,0,0,5.594.838,9.055,9.055,0,0,0,4.954-1.047,6.938,6.938,0,0,0-4.175-1.363A42.765,42.765,0,0,0,93.139,39.8" transform="translate(55.562 22.791)" fill="#d8720e"/>
    <path id="Trazado_643604" data-name="Trazado 643604" d="M91.589,49.339a9.061,9.061,0,0,0,4.954,1.047,15.032,15.032,0,0,0,5-.956s-3.64-.746-5.764-.944a8.727,8.727,0,0,0-4.186.853" transform="translate(54.637 28.909)" fill="#d8720e"/>
    <path id="Trazado_643605" data-name="Trazado 643605" d="M90.736,42.754A9.061,9.061,0,0,0,95.69,43.8a26.633,26.633,0,0,0,5.594-.838s-4.175-.928-6.3-1.126a8.783,8.783,0,0,0-4.248.916" transform="translate(54.128 24.944)" fill="#d8720e"/>
    <path id="Trazado_643606" data-name="Trazado 643606" d="M98.922,44.176c-2.125.2-6.3,1.126-6.3,1.126a26.758,26.758,0,0,0,5.594.838,9.069,9.069,0,0,0,4.954-1.049,8.77,8.77,0,0,0-4.248-.915" transform="translate(55.253 26.339)" fill="#d8720e"/>
    <path id="Trazado_643607" data-name="Trazado 643607" d="M105.524,47.167c-24.742,0-28,18.089-28,18.089H86.17C87.836,61.93,93,54.366,105.524,54.337c12.523.029,17.688,7.593,19.355,10.919h8.648s-3.262-18.089-28-18.089" transform="translate(46.245 28.137)" fill="#6fa511"/>
    <path id="Trazado_643608" data-name="Trazado 643608" d="M102.293,51.658C89.77,51.687,84.6,59.251,82.938,62.577h38.71c-1.667-3.326-6.832-10.89-19.355-10.919" transform="translate(49.476 30.816)" fill="#87c133"/>
    <path id="Trazado_643609" data-name="Trazado 643609" d="M98.572,32.808H96.111c-2.462,0-4.723,2.369-4.723,2.369h11.73a6.137,6.137,0,0,0-4.545-2.369" transform="translate(54.517 19.571)" fill="#a85204"/>
    <path id="Trazado_643610" data-name="Trazado 643610" d="M83.869,4.108C82.844-.072,79.183-.907,77.39.9S71.1,3.55,69.321,2.714s-4.767-.417-5.95,1.672c-1.664,2.934-1.046,4.459,1.74,7.108a22.3,22.3,0,0,1,4.705,6.685c.54,1.113.311,2.926.013,5.984s4.338,7.809,4.786,10.67.736,14.275.736,14.275.766-3.065,1.178-5.141-.875-8.233-.2-11.533c.5-2.465,3.413-4.5,5.039-5.286s2.553-3.674,2.5-6.773,3.115-3.728,5.741-4.842,2.25-4.6,0-7.1-4.716-.147-5.741-4.327" transform="translate(37.258 0)" fill="#87c133"/>
    <path id="Trazado_643611" data-name="Trazado 643611" d="M79,13.828c-.79.84-3.2,4.006-3.2,4.006a34.24,34.24,0,0,0,.139-4.772,15.19,15.19,0,0,1,.964-6.87c.774-1.906,1.823-4.972,1.823-4.972s-2.369,2.3-2.926,4.25-1.324,6.2-1.324,6.2a21.777,21.777,0,0,0-3.134-4.6A12.185,12.185,0,0,0,64.989,3.8s2.165,1.881,4.951,3.91a12.93,12.93,0,0,1,4.2,5.564,14.026,14.026,0,0,1,.324,7.245c-.348,1.531-.792,3.83-.792,3.83s-.907-5.851-2.831-8.776A44.9,44.9,0,0,1,67.81,8.952a11.535,11.535,0,0,0,2.409,6.686c1.435,2.02,2.526,6.915,3.134,9.683.323,1.462-.139,3.623-.07,4.876s.393,4.248.393,4.248a75.221,75.221,0,0,1,.468-8.259,28.451,28.451,0,0,1,2.693-8.353c1.868-3.343,7.034-8.042,7.034-8.042A29.36,29.36,0,0,0,79,13.828" transform="translate(38.769 0.728)" fill="#6fa511"/>
    <path id="Trazado_643612" data-name="Trazado 643612" d="M79.927,40.155c-.3-3.813-1.277-7.949-.656-11.12.793-4.05,1.44-8.738,0-11.993-1.223-2.77-4.269-2.146-6.009-3.7s-.166-5.6-3.3-7.5a8.4,8.4,0,0,0-9.255.4c-1.9,1.611-1.938,3.68-4.288,5.738-2.88,2.519-4.448,4.429-3.257,8.639,1.205,4.258,5.639,4.528,7.07,6.434s.714,5.481,3.377,7.8,10.92.065,13.191,3.4a20.914,20.914,0,0,1,3.268,6.833,31.448,31.448,0,0,1,.647,7.505l.725,1.549a67.592,67.592,0,0,0-.615-10.213c-.367-2.044-.79-2.47-.894-3.766" transform="translate(31.472 2.772)" fill="#608e07"/>
    <path id="Trazado_643613" data-name="Trazado 643613" d="M75.21,29.892c-.538-3.453-.26-11.634-.26-11.634a14.1,14.1,0,0,0-.833,4.208c-.048,1.371,0,5.641,0,5.641s-4.09-6.99-7.228-10.167C63.715,14.727,63.068,7.2,63.068,7.2a18.059,18.059,0,0,0,.286,5.776A12.812,12.812,0,0,0,65.181,17.5a31.713,31.713,0,0,0-5.746-2.2,43.993,43.993,0,0,0-5.494-.778s5.957,1.828,6.832,2.224,3.693,1.073,5.877,2.859A31.342,31.342,0,0,1,68.8,21.951s-4.8-.723-9-.991a24.456,24.456,0,0,1-5.452-.685,11.833,11.833,0,0,0,5.123,1.49c1.031.1,7.544.584,8.5.9s2.4,1.846,3.655,3.415a51.679,51.679,0,0,1,2.938,5.4c.345.671,1.271,2.107,2.366,4.282.546,1.082,2.441,5.275,2.441,5.275s-.849-2.879-1.964-5.692c-.827-2.087-1.956-3.985-2.186-5.455" transform="translate(32.178 4.294)" fill="#6fa511"/>
    <path id="Trazado_643614" data-name="Trazado 643614" d="M98.233,12.611c-2.531-1.831-2.387-4.127-4.29-5.736a8.4,8.4,0,0,0-9.255-.4c-3.136,1.906-2.281,4.186-4.022,5.736s-5.21,1.52-6.434,4.29c-1.438,3.257-1.747,8.023-1.295,12.153.351,3.212-1.461,10.625-2.43,15.408a51.847,51.847,0,0,0-.639,9.212l1.921-.632a24.143,24.143,0,0,1,.346-7.07,25.325,25.325,0,0,1,3.276-7.707c2.27-3.335,10.528-1.081,13.191-3.4s3.184-5.257,4.614-7.164,6.341-2.018,7.545-6.274c1.193-4.21.875-5.958-2.529-8.42" transform="translate(41.676 3.151)" fill="#6fa511"/>
    <path id="Trazado_643615" data-name="Trazado 643615" d="M84.214,17.948c2.184-1.787,5-2.462,5.879-2.859s6.83-2.224,6.83-2.224a29.565,29.565,0,0,0-5.441.565,27.776,27.776,0,0,0-5.8,2.414,12.829,12.829,0,0,0,1.828-4.528,11.7,11.7,0,0,0,.278-4.726s-.64,6.477-3.813,9.689c-3.137,3.177-7.229,10.167-7.229,10.167s.048-4.269,0-5.639a14.043,14.043,0,0,0-.833-4.21s.278,8.182-.26,11.636S71.5,39.378,71.5,39.378s2.234-3.787,2.78-4.869c1.1-2.174,1.681-4.015,2.026-4.686a51.2,51.2,0,0,1,2.939-5.4c1.248-1.569,2.7-3.1,3.653-3.417a66.429,66.429,0,0,1,6.712-.6,51.866,51.866,0,0,1,7.307.08,34.856,34.856,0,0,0-5.163-.873c-3.891-.477-9.689.675-9.689.675a30.926,30.926,0,0,1,2.144-2.344" transform="translate(42.656 3.931)" fill="#608e07"/>
    <path id="Trazado_643616" data-name="Trazado 643616" d="M73.674,33.328c-4.43.153-9.507,1.8-8.572,8.819.987,7.408,2.818,20.444,2.818,20.444H79.428s1.831-13.036,2.818-20.444c.936-7.018-4.141-8.666-8.572-8.819" transform="translate(38.769 19.882)" fill="#e88416"/>
    <path id="Trazado_643617" data-name="Trazado 643617" d="M68.507,39.8a26.633,26.633,0,0,0,5.594.838,9.061,9.061,0,0,0,4.954-1.047,6.94,6.94,0,0,0-4.177-1.363A42.783,42.783,0,0,0,68.507,39.8" transform="translate(40.868 22.791)" fill="#d8720e"/>
    <path id="Trazado_643618" data-name="Trazado 643618" d="M66.957,49.339a9.061,9.061,0,0,0,4.954,1.047,15.032,15.032,0,0,0,5-.956s-3.64-.746-5.764-.944a8.727,8.727,0,0,0-4.186.853" transform="translate(39.943 28.909)" fill="#d8720e"/>
    <path id="Trazado_643619" data-name="Trazado 643619" d="M66.1,42.754A9.061,9.061,0,0,0,71.058,43.8a26.633,26.633,0,0,0,5.594-.838s-4.177-.928-6.3-1.126a8.783,8.783,0,0,0-4.248.916" transform="translate(39.434 24.944)" fill="#d8720e"/>
    <path id="Trazado_643620" data-name="Trazado 643620" d="M74.29,44.176c-2.125.2-6.3,1.126-6.3,1.126a26.758,26.758,0,0,0,5.594.838,9.069,9.069,0,0,0,4.954-1.049,8.77,8.77,0,0,0-4.248-.915" transform="translate(40.559 26.339)" fill="#d8720e"/>
    <path id="Trazado_643621" data-name="Trazado 643621" d="M73.94,32.808H71.479c-2.462,0-4.723,2.369-4.723,2.369h11.73a6.137,6.137,0,0,0-4.545-2.369" transform="translate(39.823 19.571)" fill="#a85204"/>
    <path id="Trazado_643622" data-name="Trazado 643622" d="M80.892,47.167c-24.742,0-28,18.089-28,18.089h8.649c1.667-3.326,6.832-10.89,19.355-10.919,12.523.029,17.688,7.593,19.355,10.919H108.9s-3.262-18.089-28-18.089" transform="translate(31.551 28.137)" fill="#6fa511"/>
    <path id="Trazado_643623" data-name="Trazado 643623" d="M77.661,51.658c-12.523.029-17.688,7.593-19.355,10.919h38.71c-1.667-3.326-6.832-10.89-19.355-10.919" transform="translate(34.782 30.816)" fill="#87c133"/>
    <path id="Trazado_643624" data-name="Trazado 643624" d="M267.249,13.715c-6.048-3.474-7.006,2.19-3.34,5.4a54.991,54.991,0,0,0,9.325,6.108s.733-7.649-5.986-11.508" transform="translate(156.151 7.532)" fill="#608e07"/>
    <path id="Trazado_643625" data-name="Trazado 643625" d="M273.638,14.443c-5.655,3.734-4.6,10.373-4.6,10.373a48.046,48.046,0,0,0,7.81-5.84c3.025-3,1.881-7.895-3.211-4.533" transform="translate(160.447 7.939)" fill="#608e07"/>
    <path id="Trazado_643626" data-name="Trazado 643626" d="M273.521,20.059c-2.5,0-6.535,2.585-7.073,9.372-.707,8.918-5.447,6.7-5.436,15.978,0,5.24,7.414,7.738,12.509,7.738s12.5-2.5,12.509-7.738c.011-9.281-4.729-7.06-5.436-15.978-.538-6.787-4.569-9.372-7.073-9.372" transform="translate(155.706 11.966)" fill="#fbcb43"/>
    <path id="Trazado_643627" data-name="Trazado 643627" d="M271.259,22.481a1.936,1.936,0,1,0,1.935,1.935,1.936,1.936,0,0,0-1.935-1.935" transform="translate(160.663 13.411)" fill="#ffe197"/>
    <path id="Trazado_643628" data-name="Trazado 643628" d="M283.919,13.715c-6.048-3.474-7.006,2.19-3.34,5.4a54.991,54.991,0,0,0,9.325,6.108s.733-7.649-5.985-11.508" transform="translate(166.095 7.532)" fill="#608e07"/>
    <path id="Trazado_643629" data-name="Trazado 643629" d="M290.308,14.443c-5.655,3.734-4.6,10.373-4.6,10.373a48.047,48.047,0,0,0,7.81-5.84c3.025-3,1.881-7.895-3.211-4.533" transform="translate(170.392 7.939)" fill="#608e07"/>
    <path id="Trazado_643630" data-name="Trazado 643630" d="M290.191,20.059c-2.5,0-6.535,2.585-7.073,9.372-.707,8.918-5.447,6.7-5.436,15.978,0,5.24,7.414,7.738,12.509,7.738s12.5-2.5,12.509-7.738c.011-9.281-4.729-7.06-5.436-15.978-.538-6.787-4.569-9.372-7.073-9.372" transform="translate(165.65 11.966)" fill="#fbcb43"/>
    <path id="Trazado_643631" data-name="Trazado 643631" d="M287.929,22.481a1.936,1.936,0,1,0,1.937,1.935,1.935,1.935,0,0,0-1.937-1.935" transform="translate(170.609 13.411)" fill="#ffe197"/>
    <path id="Trazado_643632" data-name="Trazado 643632" d="M300.535,13.715c-6.048-3.474-7.006,2.19-3.34,5.4a54.94,54.94,0,0,0,9.324,6.108s.734-7.649-5.984-11.508" transform="translate(176.007 7.532)" fill="#608e07"/>
    <path id="Trazado_643633" data-name="Trazado 643633" d="M306.924,14.443c-5.655,3.734-4.6,10.373-4.6,10.373a48.046,48.046,0,0,0,7.81-5.84c3.025-3,1.881-7.895-3.211-4.533" transform="translate(180.304 7.939)" fill="#608e07"/>
    <path id="Trazado_643634" data-name="Trazado 643634" d="M306.808,20.059c-2.5,0-6.535,2.585-7.073,9.372-.707,8.918-5.447,6.7-5.436,15.978,0,5.24,7.414,7.738,12.509,7.738s12.5-2.5,12.509-7.738c.011-9.281-4.729-7.06-5.436-15.978-.538-6.787-4.569-9.372-7.073-9.372" transform="translate(175.563 11.966)" fill="#fbcb43"/>
    <path id="Trazado_643635" data-name="Trazado 643635" d="M304.546,22.481a1.936,1.936,0,1,0,1.937,1.935,1.936,1.936,0,0,0-1.937-1.935" transform="translate(180.52 13.411)" fill="#ffe197"/>
    <path id="Trazado_643636" data-name="Trazado 643636" d="M264.082,51.839h71.605a20.247,20.247,0,0,0,2.72-6.314H261.361a20.249,20.249,0,0,0,2.721,6.314" transform="translate(155.914 27.158)" fill="#d8720e"/>
    <path id="Trazado_643637" data-name="Trazado 643637" d="M261.012,45.785c0,.327.035.647.051.969h78.06c.016-.323.051-.642.051-.969V37.357H261.012Z" transform="translate(155.706 22.285)" fill="#d8720e"/>
    <path id="Trazado_643638" data-name="Trazado 643638" d="M280.408,58.027h34.7A22.12,22.12,0,0,0,330.6,51.761H264.923a22.12,22.12,0,0,0,15.485,6.266" transform="translate(158.039 30.878)" fill="#d8720e"/>
    <path id="Trazado_643639" data-name="Trazado 643639" d="M261.552,46.886H338.6a19.886,19.886,0,0,0,.508-3.643h-78.06a20.027,20.027,0,0,0,.508,3.643" transform="translate(155.725 25.796)" fill="#e88416"/>
    <path id="Trazado_643640" data-name="Trazado 643640" d="M266.031,53.123H331.7a21.148,21.148,0,0,0,2.966-3.643H263.065a21.149,21.149,0,0,0,2.966,3.643" transform="translate(156.931 29.517)" fill="#e88416"/>
    <path id="Trazado_643641" data-name="Trazado 643641" d="M344.911,34.992H260.334a3.933,3.933,0,0,0,0,7.866h84.577a3.933,3.933,0,0,0,0-7.866" transform="translate(152.956 20.874)" fill="#e88416"/>
    <path id="Trazado_643642" data-name="Trazado 643642" d="M338.854,1.972H266.286a9.806,9.806,0,0,0-9.795,9.795V58.75h4.565V11.767a5.236,5.236,0,0,1,5.23-5.23h72.568a5.235,5.235,0,0,1,5.229,5.23V58.75h4.566V11.767a9.806,9.806,0,0,0-9.795-9.795" transform="translate(153.009 1.176)" fill="#e88416"/>
    <path id="Trazado_643643" data-name="Trazado 643643" d="M242.136,4.905c-1.148-4.679-5.248-5.615-7.255-3.587s-7.041,2.963-9.035,2.028-5.337-.468-6.662,1.871c-1.862,3.286-1.17,4.992,1.949,7.959A24.982,24.982,0,0,1,226.4,20.66c.605,1.247.348,3.276.016,6.7s4.857,8.743,5.36,11.947.822,15.983.822,15.983.859-3.433,1.32-5.756-.98-9.22-.228-12.914c.562-2.76,3.822-5.04,5.642-5.918s2.859-4.114,2.8-7.584,3.488-4.175,6.429-5.422,2.518-5.147,0-7.948-5.281-.164-6.429-4.844" transform="translate(130.142 0.183)" fill="#87c133"/>
    <path id="Trazado_643644" data-name="Trazado 643644" d="M236.678,15.79c-.884.94-3.587,4.485-3.587,4.485a38.406,38.406,0,0,0,.155-5.342,17.041,17.041,0,0,1,1.079-7.694c.867-2.135,2.042-5.566,2.042-5.566s-2.652,2.574-3.276,4.758-1.482,6.942-1.482,6.942A24.449,24.449,0,0,0,228.1,8.224a13.646,13.646,0,0,0-7.1-3.666s2.424,2.106,5.543,4.376a14.466,14.466,0,0,1,4.707,6.231,15.713,15.713,0,0,1,.364,8.112c-.391,1.716-.888,4.29-.888,4.29s-1.017-6.552-3.169-9.828a50.244,50.244,0,0,1-3.4-7.41,12.911,12.911,0,0,0,2.7,7.488c1.608,2.261,2.828,7.742,3.509,10.842.361,1.638-.156,4.055-.078,5.459s.439,4.758.439,4.758a84.127,84.127,0,0,1,.524-9.247,31.921,31.921,0,0,1,3.016-9.354c2.091-3.744,7.877-9,7.877-9a32.8,32.8,0,0,0-5.46,4.518" transform="translate(131.834 0.998)" fill="#6fa511"/>
    <path id="Trazado_643645" data-name="Trazado 643645" d="M237.721,45.269c-.342-4.269-1.431-8.9-.734-12.451.889-4.536,1.611-9.784,0-13.43-1.37-3.1-4.78-2.4-6.728-4.137s-.187-6.268-3.7-8.4-8.051-1.512-10.363.444c-2.131,1.8-2.171,4.121-4.8,6.425-3.225,2.823-4.981,4.96-3.647,9.673,1.349,4.767,6.314,5.069,7.916,7.2s.8,6.137,3.781,8.733,12.228.072,14.77,3.806a23.477,23.477,0,0,1,3.661,7.651,35.213,35.213,0,0,1,.722,8.406l.813,1.732a75.542,75.542,0,0,0-.688-11.436c-.41-2.288-.884-2.765-1-4.216" transform="translate(123.664 3.287)" fill="#608e07"/>
    <path id="Trazado_643646" data-name="Trazado 643646" d="M232.44,33.778c-.6-3.867-.291-13.028-.291-13.028a15.778,15.778,0,0,0-.934,4.715c-.053,1.534,0,6.314,0,6.314s-4.58-7.828-8.095-11.385c-3.552-3.6-4.277-12.027-4.277-12.027a20.226,20.226,0,0,0,.321,6.469,14.35,14.35,0,0,0,2.045,5.069,35.5,35.5,0,0,0-6.434-2.467,49.63,49.63,0,0,0-6.152-.869s6.67,2.045,7.649,2.489,4.137,1.2,6.581,3.2a34.6,34.6,0,0,1,2.4,2.623s-5.377-.808-10.079-1.11c-4.877-.31-6.1-.766-6.1-.766a13.252,13.252,0,0,0,5.736,1.668c1.154.11,8.446.653,9.512,1.009s2.693,2.066,4.092,3.824a57.421,57.421,0,0,1,3.29,6.048c.385.75,1.423,2.36,2.649,4.794.611,1.212,2.733,5.906,2.733,5.906s-.95-3.222-2.2-6.373c-.928-2.336-2.19-4.461-2.448-6.107" transform="translate(124.454 4.991)" fill="#6fa511"/>
    <path id="Trazado_643647" data-name="Trazado 643647" d="M258.218,14.428c-2.834-2.05-2.673-4.62-4.8-6.423-2.313-1.957-6.852-2.58-10.363-.445s-2.554,4.687-4.5,6.423-5.834,1.7-7.2,4.8c-1.611,3.647-1.957,8.982-1.451,13.607.393,3.6-1.636,11.9-2.721,17.254a58.028,58.028,0,0,0-.715,10.314l2.151-.709a26.99,26.99,0,0,1,.39-7.916,28.326,28.326,0,0,1,3.667-8.628c2.542-3.734,11.787-1.21,14.77-3.806S251,33.017,252.6,30.882s7.1-2.259,8.449-7.026c1.335-4.715.979-6.67-2.832-9.428" transform="translate(135.088 3.712)" fill="#6fa511"/>
    <path id="Trazado_643648" data-name="Trazado 643648" d="M242.521,20.4c2.446-2,5.6-2.757,6.581-3.2s7.649-2.491,7.649-2.491a33.028,33.028,0,0,0-6.092.632,31.092,31.092,0,0,0-6.492,2.7,14.387,14.387,0,0,0,2.045-5.071,13.124,13.124,0,0,0,.311-5.291s-.717,7.253-4.269,10.85c-3.514,3.557-8.093,11.385-8.093,11.385s.053-4.782,0-6.316a15.774,15.774,0,0,0-.934-4.713s.311,9.161-.292,13.028-4.644,12.48-4.644,12.48,2.5-4.24,3.113-5.452c1.226-2.435,1.882-4.5,2.267-5.248a57.718,57.718,0,0,1,3.29-6.048c1.4-1.758,3.024-3.469,4.092-3.824s6.361-.562,7.515-.667a58.034,58.034,0,0,1,8.182.089,38.993,38.993,0,0,0-5.781-.979c-4.359-.533-10.85.755-10.85.755a34.951,34.951,0,0,1,2.4-2.623" transform="translate(136.186 4.584)" fill="#608e07"/>
    <path id="Trazado_643649" data-name="Trazado 643649" d="M239.492,38.99l-6.986-.765-6.148.765a13.564,13.564,0,0,0-8.679,9.725c-2.069,7.893,5.047,14.356,5.047,14.356h16.767S248,57.96,247.482,49.308a10.9,10.9,0,0,0-7.991-10.318" transform="translate(129.63 22.803)" fill="#dc4437"/>
    <path id="Trazado_643650" data-name="Trazado 643650" d="M238.8,44.338c-27.7,0-31.356,20.254-31.356,20.254h9.685C219,60.869,224.78,52.4,238.8,52.367c14.022.032,19.807,8.5,21.672,12.225h9.685S266.505,44.338,238.8,44.338" transform="translate(123.751 26.45)" fill="#6fa511"/>
    <path id="Trazado_643651" data-name="Trazado 643651" d="M235.184,49.367c-14.022.032-19.807,8.5-21.672,12.225h43.343c-1.865-3.723-7.649-12.193-21.672-12.225" transform="translate(127.37 29.45)" fill="#87c133"/>
    <path id="Trazado_643652" data-name="Trazado 643652" d="M220.474,42.538a44.6,44.6,0,0,0,12.064-1.118,30.643,30.643,0,0,0-6.183-1.189,6.958,6.958,0,0,0-5.88,2.307" transform="translate(131.523 23.979)" fill="#ce352e"/>
    <path id="Trazado_643653" data-name="Trazado 643653" d="M233.589,41.694a19.8,19.8,0,0,0-7.4,1.667s3.041.608,6.937,1.012a19.578,19.578,0,0,0,6.939-.506,8.515,8.515,0,0,0-6.476-2.173" transform="translate(134.932 24.868)" fill="#ce352e"/>
    <path id="Trazado_643654" data-name="Trazado 643654" d="M231.018,36.993h-2.756c-2.757,0-5.289,2.653-5.289,2.653h13.135a6.874,6.874,0,0,0-5.09-2.653" transform="translate(133.014 22.068)" fill="#c12d25"/>
    <path id="Trazado_643655" data-name="Trazado 643655" d="M213.247,4.905C212.1.226,208-.71,205.994,1.318s-7.042,2.963-9.036,2.028-5.337-.468-6.662,1.871c-1.862,3.286-1.17,4.992,1.949,7.959a24.983,24.983,0,0,1,5.267,7.485c.605,1.247.35,3.276.016,6.7s4.857,8.743,5.36,11.947.822,15.983.822,15.983.859-3.433,1.32-5.756-.98-9.22-.228-12.914c.564-2.76,3.822-5.04,5.642-5.918s2.859-4.114,2.8-7.584,3.488-4.175,6.429-5.422,2.519-5.147,0-7.948-5.281-.164-6.429-4.844" transform="translate(112.909 0.183)" fill="#87c133"/>
    <path id="Trazado_643656" data-name="Trazado 643656" d="M207.79,15.79c-.884.94-3.589,4.485-3.589,4.485a38.4,38.4,0,0,0,.155-5.342,17.041,17.041,0,0,1,1.079-7.694c.867-2.135,2.042-5.566,2.042-5.566s-2.65,2.574-3.276,4.758-1.48,6.942-1.48,6.942a24.489,24.489,0,0,0-3.512-5.149,13.646,13.646,0,0,0-7.1-3.666s2.424,2.106,5.543,4.376a14.469,14.469,0,0,1,4.708,6.231,15.747,15.747,0,0,1,.364,8.112c-.393,1.716-.888,4.29-.888,4.29s-1.019-6.552-3.169-9.828a50.072,50.072,0,0,1-3.4-7.41,12.9,12.9,0,0,0,2.7,7.488c1.608,2.261,2.829,7.742,3.511,10.842.361,1.638-.158,4.055-.08,5.459s.441,4.758.441,4.758a84.129,84.129,0,0,1,.524-9.247,31.888,31.888,0,0,1,3.014-9.354c2.091-3.744,7.879-9,7.879-9a32.724,32.724,0,0,0-5.46,4.518" transform="translate(114.6 0.998)" fill="#6fa511"/>
    <path id="Trazado_643657" data-name="Trazado 643657" d="M208.832,45.269c-.342-4.269-1.429-8.9-.734-12.451.888-4.536,1.611-9.784,0-13.43-1.37-3.1-4.78-2.4-6.728-4.137s-.187-6.268-3.7-8.4-8.051-1.512-10.363.444c-2.131,1.8-2.171,4.121-4.8,6.425-3.225,2.823-4.981,4.96-3.646,9.673,1.349,4.767,6.314,5.069,7.916,7.2s.8,6.137,3.781,8.733,12.228.072,14.77,3.806a23.446,23.446,0,0,1,3.659,7.651,35.167,35.167,0,0,1,.723,8.406l.813,1.732a75.546,75.546,0,0,0-.688-11.436c-.41-2.288-.884-2.765-1-4.216" transform="translate(106.43 3.287)" fill="#608e07"/>
    <path id="Trazado_643658" data-name="Trazado 643658" d="M203.551,33.778c-.6-3.867-.291-13.028-.291-13.028a15.778,15.778,0,0,0-.934,4.715c-.053,1.534,0,6.314,0,6.314s-4.58-7.828-8.094-11.385c-3.552-3.6-4.277-12.027-4.277-12.027a20.226,20.226,0,0,0,.321,6.469,14.35,14.35,0,0,0,2.045,5.069,35.494,35.494,0,0,0-6.434-2.467,49.631,49.631,0,0,0-6.151-.869s6.67,2.045,7.649,2.489,4.135,1.2,6.581,3.2a34.6,34.6,0,0,1,2.4,2.623s-5.377-.808-10.081-1.11c-4.876-.31-6.1-.766-6.1-.766a13.251,13.251,0,0,0,5.736,1.668c1.154.11,8.446.653,9.514,1.009s2.692,2.066,4.09,3.824a57.424,57.424,0,0,1,3.29,6.048c.385.75,1.423,2.36,2.649,4.794.611,1.212,2.732,5.906,2.732,5.906s-.948-3.222-2.2-6.373c-.926-2.336-2.189-4.461-2.446-6.107" transform="translate(107.22 4.991)" fill="#6fa511"/>
    <path id="Trazado_643659" data-name="Trazado 643659" d="M229.33,14.428c-2.834-2.05-2.671-4.62-4.8-6.423-2.312-1.957-6.852-2.58-10.363-.445s-2.554,4.687-4.5,6.423-5.834,1.7-7.2,4.8c-1.611,3.647-1.957,8.982-1.451,13.607.393,3.6-1.636,11.9-2.72,17.254a58.026,58.026,0,0,0-.715,10.314l2.151-.709a26.989,26.989,0,0,1,.39-7.916,28.326,28.326,0,0,1,3.667-8.628c2.542-3.734,11.787-1.21,14.77-3.806s3.565-5.886,5.166-8.021,7.1-2.259,8.449-7.026c1.335-4.715.979-6.67-2.832-9.428" transform="translate(117.855 3.712)" fill="#6fa511"/>
    <path id="Trazado_643660" data-name="Trazado 643660" d="M213.632,20.4c2.446-2,5.6-2.757,6.581-3.2s7.649-2.491,7.649-2.491a33.028,33.028,0,0,0-6.092.632,31.091,31.091,0,0,0-6.492,2.7,14.387,14.387,0,0,0,2.045-5.071,13.123,13.123,0,0,0,.311-5.291s-.717,7.253-4.269,10.85c-3.514,3.557-8.094,11.385-8.094,11.385s.054-4.782,0-6.316a15.745,15.745,0,0,0-.932-4.713s.31,9.161-.292,13.028S199.4,44.4,199.4,44.4s2.5-4.24,3.113-5.452c1.226-2.435,1.882-4.5,2.267-5.248a57.721,57.721,0,0,1,3.29-6.048c1.4-1.758,3.024-3.469,4.092-3.824s6.361-.562,7.515-.667a58.034,58.034,0,0,1,8.182.089,38.992,38.992,0,0,0-5.781-.979c-4.359-.533-10.85.755-10.85.755a34.606,34.606,0,0,1,2.4-2.623" transform="translate(118.953 4.584)" fill="#608e07"/>
    <path id="Trazado_643661" data-name="Trazado 643661" d="M210.6,38.99l-6.986-.765-6.147.765a13.565,13.565,0,0,0-8.68,9.725c-2.069,7.893,5.047,14.356,5.047,14.356H210.6s8.506-5.111,7.991-13.762A10.9,10.9,0,0,0,210.6,38.99" transform="translate(112.396 22.803)" fill="#dc4437"/>
    <path id="Trazado_643662" data-name="Trazado 643662" d="M209.913,44.338c-27.7,0-31.356,20.254-31.356,20.254h9.685c1.865-3.723,7.649-12.193,21.672-12.225,14.022.032,19.807,8.5,21.672,12.225h9.685s-3.653-20.254-31.356-20.254" transform="translate(106.518 26.45)" fill="#6fa511"/>
    <path id="Trazado_643663" data-name="Trazado 643663" d="M206.295,49.367c-14.022.032-19.807,8.5-21.672,12.225h43.343c-1.865-3.723-7.649-12.193-21.672-12.225" transform="translate(110.136 29.45)" fill="#87c133"/>
    <path id="Trazado_643664" data-name="Trazado 643664" d="M191.585,42.538a44.6,44.6,0,0,0,12.064-1.118,30.643,30.643,0,0,0-6.183-1.189,6.958,6.958,0,0,0-5.88,2.307" transform="translate(114.289 23.979)" fill="#ce352e"/>
    <path id="Trazado_643665" data-name="Trazado 643665" d="M204.7,41.694a19.8,19.8,0,0,0-7.4,1.667s3.041.608,6.937,1.012a19.578,19.578,0,0,0,6.939-.506,8.516,8.516,0,0,0-6.476-2.173" transform="translate(117.699 24.868)" fill="#ce352e"/>
    <path id="Trazado_643666" data-name="Trazado 643666" d="M202.13,36.993h-2.757c-2.756,0-5.288,2.653-5.288,2.653h13.133a6.865,6.865,0,0,0-5.088-2.653" transform="translate(115.781 22.068)" fill="#c12d25"/>
    <path id="Trazado_643667" data-name="Trazado 643667" d="M356.6,34.789h4.684l5.032-19.479L358.755,17.7Z" transform="translate(212.73 9.133)" fill="#515151"/>
    <path id="Trazado_643668" data-name="Trazado 643668" d="M356.554,20.074a15.792,15.792,0,0,1-1.817,3.04l.338.086s.134,2.467-3.391,5.018-9.225,3-14.877.758a14.519,14.519,0,0,1-4.453-3.105c.875,5.317,4.5,9.685,10.77,12.638,8.312,3.916,16.837,1.266,16.837,1.266l7.1-6.144,2.273-14.568s-10.227-4.574-12.785,1.011" transform="translate(198.265 10.32)" fill="gray"/>
    <path id="Trazado_643669" data-name="Trazado 643669" d="M344.134,26.152c-5.4,0-11.9-5.553-11.9-5.553a16.193,16.193,0,0,0,.2,3.3,14.5,14.5,0,0,0,4.451,3.1c5.653,2.242,11.355,1.793,14.878-.758s3.391-5.016,3.391-5.016l-.34-.086a12.85,12.85,0,0,1-10.682,5.007" transform="translate(198.185 12.288)" fill="#b2b2b2"/>
    <path id="Trazado_643670" data-name="Trazado 643670" d="M348.059,20.824c8.179,1.1,10.385,1.576,10.385,1.576L355.6,29.23c.936-.019,1.47-.062,1.47-.062l4.1-19.088-24.322,4.8a18.563,18.563,0,0,0,11.214,5.949" transform="translate(200.944 6.012)" fill="gray"/>
    <path id="Trazado_643671" data-name="Trazado 643671" d="M340.249,13.082l-9.107,1.8s2.321,6.758,12.209,10.205A46.849,46.849,0,0,0,359,27.437l2.843-6.828s-2.2-.481-10.384-1.577a18.554,18.554,0,0,1-11.214-5.949" transform="translate(197.542 7.804)" fill="#b2b2b2"/>
    <path id="Trazado_643672" data-name="Trazado 643672" d="M432.835,16.87c-.062-.049-.134-.1-.2-.148-.931,1.937-2.214,2.689-4.373,2.143-2.826-.717-15.127-1.945-19.866-2.277a87.43,87.43,0,0,0-15.874.83,110.552,110.552,0,0,0-14.8,3.094c-2.494.768-4.869,1.585-5.778,0s-3.865-8.109-4.485-9.7c-1.185-3.04-2.1-5.859,0-6.63,1.534-.562,4.778-1.606,7.344-2.419-.353-.69-.573-1.138-.573-1.138S363.762,3.034,357.612,8.44a32.321,32.321,0,0,0-10.956,18.242c-1.894,8.118,3.409,10.065,3.409,10.065,5.3,1.894,11.554-4.357,15.531-6.728S379.991,18.974,412,19.036c5.891.011,12.123,1.421,18.561,2.751s4.925-2.845,2.273-4.917" transform="translate(206.553 0.374)" fill="#6b6b6b"/>
    <path id="Trazado_643673" data-name="Trazado 643673" d="M388.633,10.62c-6.061,1.006-13.069.7-15.341-.49-1.766-.923-4.711-6.389-5.941-8.789-2.566.813-5.81,1.857-7.344,2.419-2.1.771-1.185,3.591,0,6.63.619,1.587,3.578,8.112,4.485,9.7s3.284.768,5.778,0a110.552,110.552,0,0,1,14.8-3.094,87.286,87.286,0,0,1,15.874-.83c4.739.332,17.04,1.56,19.866,2.275,2.158.548,3.442-.206,4.373-2.141a36.7,36.7,0,0,0-13.438-5.676c-5.87-1.266-17.046-1.006-23.107,0" transform="translate(214.011 0.8)" fill="#fbcb43"/>
    <path id="Rectángulo_347759" data-name="Rectángulo 347759" d="M1.419,0h8.855a1.418,1.418,0,0,1,1.418,1.418V7.144a1.418,1.418,0,0,1-1.418,1.418H1.418A1.418,1.418,0,0,1,0,7.144V1.419A1.419,1.419,0,0,1,1.419,0Z" transform="translate(561.096 19.369) rotate(-28.33)" fill="#515151"/>
    <path id="Trazado_643674" data-name="Trazado 643674" d="M350.981,15.165a2.9,2.9,0,1,0,2.9,2.9,2.9,2.9,0,0,0-2.9-2.9" transform="translate(207.644 9.046)" fill="#b2b2b2"/>
    <path id="Trazado_643675" data-name="Trazado 643675" d="M409.961,49.77c-7.2-8.163-20.509-16.912-26.76-20.155s-12.677-5.077-23.243-4.737c-9.361.3-12.914,3.615-11.623,7.71,1.137,3.6,5.681,6.993,8.213,8.693,1.376.923,2.831,2.527,5.831-.694a10.4,10.4,0,0,1,7.429-3.511c3.729.049,6.932,1.68,11.553,5.872,10.039,9.108,17.8,9.608,23.675,14.584a84.257,84.257,0,0,1,9.819,10.925c1.261,1.678,3.131.3,3.131.3l2.78-2.229s1.959-1.26.536-2.909c-2.1-2.43-6.148-7.965-11.34-13.855" transform="translate(207.646 14.817)" fill="#6b6b6b"/>
    <path id="Trazado_643676" data-name="Trazado 643676" d="M355.563,30.924a1.491,1.491,0,1,0,1.491,1.491,1.491,1.491,0,0,0-1.491-1.491" transform="translate(211.22 18.447)" fill="#b2b2b2"/>
    <path id="Trazado_643677" data-name="Trazado 643677" d="M351.7,27.7a1.491,1.491,0,1,0,1.491,1.491A1.491,1.491,0,0,0,351.7,27.7" transform="translate(208.918 16.524)" fill="#b2b2b2"/>
    <path id="Trazado_643678" data-name="Trazado 643678" d="M13.043,2.248a1.261,1.261,0,0,0-1.561,0C5.568,6.977,2.378,12.841,1.575,18.07.949,22.143.166,40.445,0,44.434a1.247,1.247,0,0,0,.645,1.151,24.05,24.05,0,0,0,11.616,2.623,24.05,24.05,0,0,0,11.616-2.623,1.243,1.243,0,0,0,.643-1.151c-.164-3.988-.947-22.291-1.573-26.364-.8-5.229-3.995-11.093-9.907-15.822" transform="translate(0 1.18)" fill="gray"/>
    <path id="Trazado_643679" data-name="Trazado 643679" d="M9.235,18.156c-2.934,0-3.458,5.973-3.458,9.22V39.518h6.916V27.376c0-3.247-.524-9.22-3.458-9.22" transform="translate(3.446 10.831)" fill="#6b6b6b"/>
    <path id="Trazado_643680" data-name="Trazado 643680" d="M12.03,31.282H7A1.257,1.257,0,0,0,5.744,32.54V72.369a3.772,3.772,0,1,0,7.544,0V32.54a1.258,1.258,0,0,0-1.258-1.258m-.267,40.587a2.5,2.5,0,0,1-2.248,2.687,2.5,2.5,0,0,1-2.246-2.687v-.351h4.494Z" transform="translate(3.427 18.661)" fill="#87c133"/>
    <path id="Trazado_643681" data-name="Trazado 643681" d="M17.354,30.938H4.38a.9.9,0,0,0-.9.9v.11a.9.9,0,0,0,.9.9H17.354a.9.9,0,0,0,.9-.9v-.11a.9.9,0,0,0-.9-.9" transform="translate(2.076 18.456)" fill="#6fa511"/>
    <rect id="Rectángulo_347760" data-name="Rectángulo 347760" width="7.544" height="0.979" transform="translate(9.171 60.281)" fill="#6fa511"/>
    <rect id="Rectángulo_347761" data-name="Rectángulo 347761" width="7.544" height="0.979" transform="translate(9.171 63.356)" fill="#6fa511"/>
    <rect id="Rectángulo_347762" data-name="Rectángulo 347762" width="7.544" height="0.979" transform="translate(9.171 66.289)" fill="#6fa511"/>
    <rect id="Rectángulo_347763" data-name="Rectángulo 347763" width="7.544" height="0.979" transform="translate(9.171 69.362)" fill="#6fa511"/>
    <rect id="Rectángulo_347764" data-name="Rectángulo 347764" width="7.544" height="0.979" transform="translate(9.171 72.373)" fill="#6fa511"/>
    <rect id="Rectángulo_347765" data-name="Rectángulo 347765" width="7.544" height="0.979" transform="translate(9.171 75.446)" fill="#6fa511"/>
    <rect id="Rectángulo_347766" data-name="Rectángulo 347766" width="7.544" height="0.979" transform="translate(9.171 78.379)" fill="#6fa511"/>
    <rect id="Rectángulo_347767" data-name="Rectángulo 347767" width="7.544" height="0.979" transform="translate(9.171 81.454)" fill="#6fa511"/>
    <rect id="Rectángulo_347768" data-name="Rectángulo 347768" width="7.544" height="0.979" transform="translate(9.171 84.666)" fill="#6fa511"/>
    <rect id="Rectángulo_347769" data-name="Rectángulo 347769" width="7.544" height="0.979" transform="translate(9.171 87.88)" fill="#6fa511"/>
    <path id="Trazado_643682" data-name="Trazado 643682" d="M46.524,5.7a2.733,2.733,0,0,0-2.9,2.128c-.085.565-.41,2.6-.709,4.4-.551,3.327-1.531,9.024-2.673,14.559-.814,3.95-2.864,8.5-5.77,9.67-.1-9.91-.2-20.774-.2-26.341,0-.8.239-1.044.966-1.945.739-.918.634-2.465-2.088-2.467h-.006c-2.722,0-2.706,1.542-1.941,2.432a2.712,2.712,0,0,1,.822,2c0,5.628-.077,16.486-.156,26.375-2.965-1.1-5.051-5.72-5.878-9.72-1.142-5.535-2.122-11.232-2.674-14.559-.3-1.8-.623-3.83-.707-4.4A2.734,2.734,0,0,0,19.7,5.7c-1.164,0-2.446.214-2.6,1.106-.18,1.031.816,1.066,1.825,1.6s1.651,1.277,1.953,3.239C21.343,14.671,22.414,21,23.7,27.25c.026.123,1.941,11.6,8.128,13.049-.08,9.4-.153,17.073-.153,17.073h3.029s-.1-7.7-.2-17.109c6.091-1.569,7.984-12.892,8.01-13.013C43.808,21,44.878,14.671,45.347,11.639c.3-1.962.956-2.714,1.953-3.239s2.005-.565,1.826-1.6c-.156-.892-1.437-1.106-2.6-1.106" transform="translate(10.187 3.398)" fill="#6b6b6b"/>
    <path id="Trazado_643683" data-name="Trazado 643683" d="M24.778,68.35a3.772,3.772,0,1,0,7.544,0V38.02H24.778ZM26.3,67.5H30.8v.351a2.5,2.5,0,0,1-2.246,2.687A2.5,2.5,0,0,1,26.3,67.85Z" transform="translate(14.781 22.681)" fill="#87c133"/>
    <path id="Trazado_643684" data-name="Trazado 643684" d="M36.388,37.465H23.413a.9.9,0,0,0-.9.9v.11a.9.9,0,0,0,.9.9H36.388a.9.9,0,0,0,.9-.9v-.11a.9.9,0,0,0-.9-.9" transform="translate(13.431 22.349)" fill="#6fa511"/>
    <rect id="Rectángulo_347770" data-name="Rectángulo 347770" width="7.544" height="0.979" transform="translate(39.559 72.373)" fill="#6fa511"/>
    <rect id="Rectángulo_347771" data-name="Rectángulo 347771" width="7.544" height="0.979" transform="translate(39.559 69.362)" fill="#6fa511"/>
    <rect id="Rectángulo_347772" data-name="Rectángulo 347772" width="7.544" height="0.979" transform="translate(39.559 75.446)" fill="#6fa511"/>
    <rect id="Rectángulo_347773" data-name="Rectángulo 347773" width="7.544" height="0.979" transform="translate(39.559 78.379)" fill="#6fa511"/>
    <rect id="Rectángulo_347774" data-name="Rectángulo 347774" width="7.544" height="0.979" transform="translate(39.559 81.454)" fill="#6fa511"/>
    <rect id="Rectángulo_347775" data-name="Rectángulo 347775" width="7.544" height="0.979" transform="translate(39.559 84.666)" fill="#6fa511"/>
    <rect id="Rectángulo_347776" data-name="Rectángulo 347776" width="7.544" height="0.979" transform="translate(39.559 87.88)" fill="#6fa511"/>
  </g>
</svg>
