<svg xmlns="http://www.w3.org/2000/svg" xmlns:xlink="http://www.w3.org/1999/xlink" width="96" height="95" viewBox="0 0 96 95">
  <defs>
    <linearGradient id="linear-gradient" x1="0.5" x2="0.5" y2="1" gradientUnits="objectBoundingBox">
      <stop offset="0" stop-color="#fff"/>
      <stop offset="1" stop-color="#e9e9e9"/>
    </linearGradient>
    <filter id="Elipse_7662" x="0" y="0" width="96" height="95" filterUnits="userSpaceOnUse">
      <feOffset dy="3" input="SourceAlpha"/>
      <feGaussianBlur stdDeviation="3" result="blur"/>
      <feFlood flood-opacity="0.161"/>
      <feComposite operator="in" in2="blur"/>
      <feComposite in="SourceGraphic"/>
    </filter>
  </defs>
  <g id="Grupo_1005357" data-name="Grupo 1005357" transform="translate(-176 -2809)">
    <g transform="matrix(1, 0, 0, 1, 176, 2809)" filter="url(#Elipse_7662)">
      <ellipse id="Elipse_7662-2" data-name="Elipse 7662" cx="39" cy="38.5" rx="39" ry="38.5" transform="translate(9 6)" fill="url(#linear-gradient)"/>
    </g>
    <g id="a-campo-traviesa" transform="translate(202.105 2831.996)">
      <path id="Trazado_643751" data-name="Trazado 643751" d="M45.782,386.389c3.411,0,6.032,2.844,5.409,5.976a16.406,16.406,0,0,0-10.818,0C39.75,389.233,42.371,386.389,45.782,386.389Z" transform="translate(-39.73 -350.346)" fill="#685e68" fill-rule="evenodd"/>
      <path id="Trazado_643752" data-name="Trazado 643752" d="M51.693,334.358a4.843,4.843,0,0,1,4.829,4.829v1.38a4.829,4.829,0,0,1-9.658,0v-1.38a4.843,4.843,0,0,1,4.829-4.829Z" transform="translate(-45.641 -303.624)" fill="#f0b16e" fill-rule="evenodd"/>
      <path id="Trazado_643753" data-name="Trazado 643753" d="M51.694,334.358a5.238,5.238,0,0,1,.9.084,4.839,4.839,0,0,1,2.36,4.145v1.38a4.827,4.827,0,0,1-5.725,4.745,4.839,4.839,0,0,1-2.36-4.145v-1.38A4.843,4.843,0,0,1,51.694,334.358Z" transform="translate(-45.642 -303.624)" fill="#fcd4a9" fill-rule="evenodd"/>
      <path id="Trazado_643754" data-name="Trazado 643754" d="M51.693,334.357a5.325,5.325,0,0,1-4.829,4.829A4.843,4.843,0,0,1,51.693,334.357Z" transform="translate(-45.641 -303.623)" fill="#847784" fill-rule="evenodd"/>
      <path id="Trazado_643755" data-name="Trazado 643755" d="M94.2,334.357a5.325,5.325,0,0,0,4.829,4.829A4.843,4.843,0,0,0,94.2,334.357Z" transform="translate(-88.147 -303.623)" fill="#847784" fill-rule="evenodd"/>
      <path id="Trazado_643756" data-name="Trazado 643756" d="M143.247,152.794a.63.63,0,1,1,.89-.89l8.558,8.558,8.556-8.556a.63.63,0,1,1,.89.89l-8.556,8.556,8.558,8.558a.63.63,0,0,1-.89.89l-8.558-8.558L144.14,170.8a.63.63,0,0,1-.89-.89l8.556-8.556Z" transform="translate(-132.025 -139.619)" fill="#19cfba" fill-rule="evenodd"/>
      <ellipse id="Elipse_7738" data-name="Elipse 7738" cx="7.102" cy="7.102" rx="7.102" ry="7.102" transform="translate(12.651 27.793) rotate(-82.008)" fill="#88c8fe"/>
      <path id="Trazado_643757" data-name="Trazado 643757" d="M168.906,216.906a7.105,7.105,0,0,1-.2-7.072,18.954,18.954,0,0,0,3.262.154c.487-.084,2.263-1.556,1.987.767-.3,2.535-2.274,1.559-2.274,2.9,0,.933,1.446,2.079-.016,2.869C171.614,216.553,170.129,216.748,168.906,216.906Z" transform="translate(-154.291 -191.461)" fill="#60b7fe" fill-rule="evenodd"/>
      <path id="Trazado_643758" data-name="Trazado 643758" d="M229.214,227.838a7.128,7.128,0,0,1-3.084.293c-.013-.72.279-1.344.094-1.717-1.589-3.217,2.055-1.364,2.476-2.066.575-.958-1.669-2.824-1.741-2.966-.527-1.03.008-1.684.62-2.314a1.85,1.85,0,0,1,2.552-.541,6.959,6.959,0,0,0,2.5.73,7.108,7.108,0,0,1-3.414,8.581Z" transform="translate(-206.344 -199.35)" fill="#60b7fe" fill-rule="evenodd"/>
      <path id="Trazado_643759" data-name="Trazado 643759" d="M168.724,214.758a7.1,7.1,0,0,1,.2-7.137,3.439,3.439,0,0,0,2.119.323c.487-.084,2.263-1.556,1.987.767-.3,2.535-2.274,1.559-2.274,2.9,0,.933,1.446,2.079-.016,2.869C170.665,214.522,169.442,214.662,168.724,214.758Z" transform="translate(-154.291 -189.625)" fill="#14b5a2" fill-rule="evenodd"/>
      <path id="Trazado_643760" data-name="Trazado 643760" d="M243.5,214.657a7.108,7.108,0,0,1-6.429,9.392c-.245-.932.252-1.775.025-2.234-1.589-3.217,2.055-1.364,2.476-2.066.575-.958-1.669-2.824-1.741-2.966-.527-1.03.008-1.684.62-2.314a1.85,1.85,0,0,1,2.552-.541A6.962,6.962,0,0,0,243.5,214.657Z" transform="translate(-216.105 -195.219)" fill="#14b5a2" fill-rule="evenodd"/>
      <path id="Trazado_643761" data-name="Trazado 643761" d="M345.563,314.972a.628.628,0,0,1-.775,0h-3.951a.63.63,0,0,1,0-1.259h2.628L341.6,311.93a.628.628,0,0,1,.866-.91l2.819,2.693h2.1l2.819-2.693a.628.628,0,1,1,.866.91l-1.866,1.782h2.628a.63.63,0,0,1,0,1.259h-3.951a.628.628,0,0,1-.775,0Z" transform="translate(-309.057 -282.512)" fill="#847784" fill-rule="evenodd"/>
      <ellipse id="Elipse_7739" data-name="Elipse 7739" cx="2.628" cy="2.389" rx="2.628" ry="2.389" transform="translate(34.648 29.92)" fill="#ffbf31"/>
      <path id="Trazado_643762" data-name="Trazado 643762" d="M379.862,346.906a2.662,2.662,0,0,1-5.235.081A6.41,6.41,0,0,1,379.862,346.906Z" transform="translate(-339.964 -314.425)" fill="#e3a829" fill-rule="evenodd"/>
      <path id="Trazado_643763" data-name="Trazado 643763" d="M343.462,354.475a6.47,6.47,0,0,1,6.451,6.451v.432l-6.451,2.793-6.451-2.793v-.432A6.47,6.47,0,0,1,343.462,354.475Z" transform="translate(-306.186 -321.688)" fill="#685e68" fill-rule="evenodd"/>
      <path id="Trazado_643764" data-name="Trazado 643764" d="M343.467,354.475a5.006,5.006,0,0,1,5.441,5.542v.432l-6.451,2.793-5.44-2.356A6.47,6.47,0,0,1,343.467,354.475Z" transform="translate(-306.191 -321.688)" fill="#847784" fill-rule="evenodd"/>
      <path id="Trazado_643765" data-name="Trazado 643765" d="M370.42,388.787c-.342,3.757-1.924,6.6-3.823,6.6s-3.481-2.841-3.823-6.6A5.55,5.55,0,0,1,370.42,388.787Z" transform="translate(-329.321 -351.128)" fill="#f0b16e" fill-rule="evenodd"/>
      <path id="Trazado_643766" data-name="Trazado 643766" d="M364.916,395.312a9.765,9.765,0,0,1-2.143-5.8,5.5,5.5,0,0,1,2.656-1.4,5.209,5.209,0,0,1,4.254,1.4c-.322,3.536-1.81,6.21-3.6,6.21A2.021,2.021,0,0,1,364.916,395.312Z" transform="translate(-329.32 -351.85)" fill="#fcd4a9" fill-rule="evenodd"/>
      <path id="Trazado_643767" data-name="Trazado 643767" d="M353.658,95.263a3.816,3.816,0,0,0,3.805-3.805V86.525h-7.61v4.933A3.816,3.816,0,0,0,353.658,95.263Z" transform="translate(-317.718 -81.076)" fill="#f0b16e" fill-rule="evenodd"/>
      <path id="Trazado_643768" data-name="Trazado 643768" d="M356.569,86.525h-6.716v4.933a3.376,3.376,0,1,0,6.716-.323Z" transform="translate(-317.718 -81.076)" fill="#fcd4a9" fill-rule="evenodd"/>
      <path id="Trazado_643769" data-name="Trazado 643769" d="M349.854,38.056l.789-3.649a1.628,1.628,0,0,1,1.605-1.3h2.823a1.628,1.628,0,0,1,1.605,1.3l.789,3.649A7.52,7.52,0,0,1,349.854,38.056Z" transform="translate(-317.719 -33.112)" fill="#fa6e85" fill-rule="evenodd"/>
      <path id="Trazado_643770" data-name="Trazado 643770" d="M349.854,66.58l.368-1.7a10.372,10.372,0,0,0,6.874,0l.368,1.7A7.519,7.519,0,0,1,349.854,66.58Z" transform="translate(-317.719 -61.636)" fill="#e33f65" fill-rule="evenodd"/>
      <path id="Trazado_643771" data-name="Trazado 643771" d="M325.09,64.817c0,2.9-3.562,5.242-7.955,5.242s-7.955-2.347-7.955-5.242c0-.959,4.576,1.6,7.955,1.6S325.09,63.858,325.09,64.817Z" transform="translate(-281.194 -61.389)" fill="#685e68" fill-rule="evenodd"/>
      <path id="Trazado_643772" data-name="Trazado 643772" d="M309.659,66.613a3.685,3.685,0,0,1-.479-1.8c0-.959,4.576,1.6,7.955,1.6,2.355,0,5.291-1.241,6.855-1.668-.769,2.365-3.959,4.138-7.778,4.138A9.606,9.606,0,0,1,309.659,66.613Z" transform="translate(-281.194 -61.389)" fill="#847784" fill-rule="evenodd"/>
      <path id="Trazado_643773" data-name="Trazado 643773" d="M40.1,41.982h3.56a3.7,3.7,0,0,1,3.491,3.856v3.856H36.605V45.838A3.7,3.7,0,0,1,40.1,41.982Z" transform="translate(-36.429 -41.077)" fill="#685e68" fill-rule="evenodd"/>
      <path id="Trazado_643774" data-name="Trazado 643774" d="M46.194,57.049H36.6V53.193a4.075,4.075,0,0,1,.884-2.557,3.2,3.2,0,0,1,1.654-.463H42.7a3.7,3.7,0,0,1,3.491,3.856Z" transform="translate(-36.429 -48.431)" fill="#847784" fill-rule="evenodd"/>
      <path id="Trazado_643775" data-name="Trazado 643775" d="M35.932,106.783h8.786a1.256,1.256,0,0,1,0,2.479H35.932a1.256,1.256,0,0,1,0-2.479Z" transform="translate(-34.878 -99.267)" fill="#cf8c48" fill-rule="evenodd"/>
      <path id="Trazado_643776" data-name="Trazado 643776" d="M53.092,94.913a4.008,4.008,0,0,0,4-4V86.323a.478.478,0,0,0-.568-.472,18.66,18.66,0,0,1-6.858,0,.478.478,0,0,0-.567.472v4.6A4.008,4.008,0,0,0,53.092,94.913Z" transform="translate(-47.645 -80.462)" fill="#f0b16e" fill-rule="evenodd"/>
      <path id="Trazado_643777" data-name="Trazado 643777" d="M56.613,85.843a.482.482,0,0,0-.09.008,18.66,18.66,0,0,1-6.858,0,.478.478,0,0,0-.567.472v4.6a3.768,3.768,0,0,0,7.516-.549Z" transform="translate(-47.646 -80.462)" fill="#fcd4a9" fill-rule="evenodd"/>
    </g>
  </g>
</svg>
