<svg xmlns="http://www.w3.org/2000/svg" xmlns:xlink="http://www.w3.org/1999/xlink" width="96" height="95" viewBox="0 0 96 95">
  <defs>
    <linearGradient id="linear-gradient" x1="0.5" x2="0.5" y2="1" gradientUnits="objectBoundingBox">
      <stop offset="0" stop-color="#fff"/>
      <stop offset="1" stop-color="#e9e9e9"/>
    </linearGradient>
    <filter id="Elipse_7662" x="0" y="0" width="96" height="95" filterUnits="userSpaceOnUse">
      <feOffset dy="3" input="SourceAlpha"/>
      <feGaussianBlur stdDeviation="3" result="blur"/>
      <feFlood flood-opacity="0.161"/>
      <feComposite operator="in" in2="blur"/>
      <feComposite in="SourceGraphic"/>
    </filter>
  </defs>
  <g id="Grupo_1005362" data-name="Grupo 1005362" transform="translate(-805 -2940)">
    <g transform="matrix(1, 0, 0, 1, 805, 2940)" filter="url(#Elipse_7662)">
      <ellipse id="Elipse_7662-2" data-name="Elipse 7662" cx="39" cy="38.5" rx="39" ry="38.5" transform="translate(9 6)" fill="url(#linear-gradient)"/>
    </g>
    <g id="ley" transform="translate(824.264 2956.828)">
      <g id="Grupo_1005237" data-name="Grupo 1005237" transform="translate(0 0)">
        <g id="Grupo_1005231" data-name="Grupo 1005231" transform="translate(0 19.316)">
          <g id="Grupo_1005229" data-name="Grupo 1005229" transform="translate(0 6.43)">
            <path id="Trazado_643814" data-name="Trazado 643814" d="M22.127,275.53l-2.714-2.714L.941,289.869A2.925,2.925,0,1,0,5.074,294Z" transform="translate(0 -272.816)" fill="#873f30"/>
            <path id="Trazado_643815" data-name="Trazado 643815" d="M6.184,301.01a2.926,2.926,0,0,1-4.136,0,2.9,2.9,0,0,1-.713-1.166,2.921,2.921,0,0,0,2.968-.711c.028-.028.056-.058.083-.087L21.44,280.573l1.879,1.879L6.266,300.925c-.027.029-.054.058-.082.085Z" transform="translate(-1.191 -279.738)" fill="#6c3328"/>
          </g>
          <path id="Trazado_643816" data-name="Trazado 643816" d="M178.673,213.053l-6.249,7.454,2.553,2.553,7.454-6.249Z" transform="translate(-153.873 -213.053)" fill="#873f30"/>
          <path id="Trazado_643817" data-name="Trazado 643817" d="M187.013,213.053l-2.019,2.409.606.606a1.142,1.142,0,0,1,0,1.615l-3.83,3.83,1.547,1.547,7.454-6.249Z" transform="translate(-162.214 -213.053)" fill="#6c3328"/>
          <g id="Grupo_1005230" data-name="Grupo 1005230" transform="translate(16.571 5.84)">
            <path id="Trazado_643818" data-name="Trazado 643818" d="M157.034,272.944l-2.478-2.478a1.834,1.834,0,0,1,2.594-2.594l2.478,2.478a1.834,1.834,0,0,1-2.594,2.594Z" transform="translate(-154.018 -267.334)" fill="#ba5d4f"/>
            <path id="Trazado_643819" data-name="Trazado 643819" d="M169.051,282.373a1.834,1.834,0,0,1-2.594,0l-1.878-1.878a1.834,1.834,0,1,0,2.594-2.594l1.878,1.878A1.833,1.833,0,0,1,169.051,282.373Z" transform="translate(-163.443 -276.764)" fill="#a34f41"/>
          </g>
        </g>
        <g id="Grupo_1005234" data-name="Grupo 1005234" transform="translate(19.4 2.28)">
          <g id="Grupo_1005232" data-name="Grupo 1005232" transform="translate(0 0)">
            <path id="Trazado_643820" data-name="Trazado 643820" d="M0,0H7.782V12.217H0Z" transform="translate(8.638 0) rotate(45)" fill="#ba5d4f"/>
          </g>
          <g id="Grupo_1005233" data-name="Grupo 1005233" transform="translate(12.051 12.059)">
            <path id="Trazado_643821" data-name="Trazado 643821" d="M0,0H7.782V12.217H0Z" transform="translate(5.502 14.139) rotate(-135)" fill="#a34f41"/>
          </g>
        </g>
        <g id="Grupo_1005236" data-name="Grupo 1005236" transform="translate(17.117)">
          <path id="Trazado_643822" data-name="Trazado 643822" d="M159.832,46.332l-.191-.191a1.856,1.856,0,0,1,0-2.624l9.454-9.454a1.856,1.856,0,0,1,2.624,0l.191.191a1.856,1.856,0,0,1,0,2.624l-9.454,9.454A1.856,1.856,0,0,1,159.832,46.332Z" transform="translate(-159.097 -33.518)" fill="#873f30"/>
          <path id="Trazado_643823" data-name="Trazado 643823" d="M321.357,207.857l.191.191a1.856,1.856,0,0,0,2.625,0l9.454-9.454a1.856,1.856,0,0,0,0-2.624l-.191-.191a1.856,1.856,0,0,0-2.625,0l-9.454,9.454A1.856,1.856,0,0,0,321.357,207.857Z" transform="translate(-303.415 -177.835)" fill="#6c3328"/>
          <g id="Grupo_1005235" data-name="Grupo 1005235" transform="translate(4.778 4.778)">
            <path id="Trazado_643824" data-name="Trazado 643824" d="M0,0H8.739V18.452H0Z" transform="translate(14.032 0.982) rotate(45)" fill="#fcc16d"/>
            <path id="Trazado_643825" data-name="Trazado 643825" d="M0,0H18.452V4.423H0Z" transform="translate(4.033 17.086) rotate(-45)" fill="#fca62f"/>
            <path id="Trazado_643826" data-name="Trazado 643826" d="M217.571,78.654l-1.514-.619a1.392,1.392,0,0,0-1.511.3L203.917,88.968a1.392,1.392,0,0,0-.3,1.511l.619,1.514a.928.928,0,0,0,1.515.305l12.129-12.129a.928.928,0,0,0-.3-1.515Z" transform="translate(-203.509 -77.931)" fill="#873f30"/>
            <path id="Trazado_643827" data-name="Trazado 643827" d="M278.406,139.489l.619,1.514a1.392,1.392,0,0,1-.3,1.511l-10.629,10.629a1.392,1.392,0,0,1-1.511.3l-1.514-.619a.928.928,0,0,1-.3-1.515l12.129-12.129A.928.928,0,0,1,278.406,139.489Z" transform="translate(-257.929 -132.351)" fill="#6c3328"/>
          </g>
        </g>
      </g>
      <g id="Grupo_1005240" data-name="Grupo 1005240" transform="translate(19.287 30.666)">
        <g id="Grupo_1005238" data-name="Grupo 1005238" transform="translate(6.151 6.653)">
          <path id="Trazado_643828" data-name="Trazado 643828" d="M258.978,384.736H236.44v-3.163a1.182,1.182,0,0,1,1.182-1.182H257.8a1.182,1.182,0,0,1,1.182,1.182Z" transform="translate(-236.44 -380.391)" fill="#ba5d4f"/>
          <path id="Trazado_643829" data-name="Trazado 643829" d="M415.6,381.575v3.163h-2.473v-3.163a1.183,1.183,0,0,0-1.182-1.182h2.473A1.183,1.183,0,0,1,415.6,381.575Z" transform="translate(-393.059 -380.393)" fill="#a34f41"/>
        </g>
        <path id="Trazado_643830" data-name="Trazado 643830" d="M212.926,414.241H180.454a1.182,1.182,0,0,1-1.075-1.674l1.148-2.506a6.106,6.106,0,0,1,5.551-3.563H207.3a6.106,6.106,0,0,1,5.551,3.563L214,412.567A1.182,1.182,0,0,1,212.926,414.241Z" transform="translate(-179.27 -397.036)" fill="#873f30"/>
        <path id="Trazado_643831" data-name="Trazado 643831" d="M419.22,414.237h-3.161a1.182,1.182,0,0,0,1.075-1.674l-1.148-2.508a6.107,6.107,0,0,0-5.551-3.563h3.16a6.108,6.108,0,0,1,5.552,3.563l1.148,2.508A1.182,1.182,0,0,1,419.22,414.237Z" transform="translate(-385.565 -397.031)" fill="#6c3328"/>
        <g id="Grupo_1005239" data-name="Grupo 1005239" transform="translate(28.529)">
          <g id="XMLID_233_" transform="translate(2.585 2.176)">
            <path id="Trazado_643832" data-name="Trazado 643832" d="M469.292,341.3a.819.819,0,0,1-.577-1.4l.886-.881a.819.819,0,1,1,1.155,1.162l-.886.881A.817.817,0,0,1,469.292,341.3Z" transform="translate(-468.473 -338.784)" fill="#fcc16d"/>
          </g>
          <g id="XMLID_232_">
            <path id="Trazado_643833" data-name="Trazado 643833" d="M445.263,321.418a.82.82,0,0,1-.795-1.018l.307-1.225a.819.819,0,1,1,1.589.4l-.307,1.225A.819.819,0,0,1,445.263,321.418Z" transform="translate(-444.444 -318.555)" fill="#fcc16d"/>
          </g>
          <g id="XMLID_153_" transform="translate(4.403 5.352)">
            <path id="Trazado_643834" data-name="Trazado 643834" d="M486.183,370.235a.819.819,0,0,1-.194-1.615l1.228-.3a.819.819,0,0,1,.389,1.591l-1.228.3A.825.825,0,0,1,486.183,370.235Z" transform="translate(-485.364 -368.297)" fill="#fcc16d"/>
          </g>
        </g>
      </g>
    </g>
  </g>
</svg>
