<svg xmlns="http://www.w3.org/2000/svg" xmlns:xlink="http://www.w3.org/1999/xlink" width="96" height="95" viewBox="0 0 96 95">
  <defs>
    <linearGradient id="linear-gradient" x1="0.5" x2="0.5" y2="1" gradientUnits="objectBoundingBox">
      <stop offset="0" stop-color="#fff"/>
      <stop offset="1" stop-color="#e9e9e9"/>
    </linearGradient>
    <filter id="Elipse_7662" x="0" y="0" width="96" height="95" filterUnits="userSpaceOnUse">
      <feOffset dy="3" input="SourceAlpha"/>
      <feGaussianBlur stdDeviation="3" result="blur"/>
      <feFlood flood-opacity="0.161"/>
      <feComposite operator="in" in2="blur"/>
      <feComposite in="SourceGraphic"/>
    </filter>
  </defs>
  <g id="Grupo_1005363" data-name="Grupo 1005363" transform="translate(-806 -3077)">
    <g transform="matrix(1, 0, 0, 1, 806, 3077)" filter="url(#Elipse_7662)">
      <ellipse id="Elipse_7662-2" data-name="Elipse 7662" cx="39" cy="38.5" rx="39" ry="38.5" transform="translate(9 6)" fill="url(#linear-gradient)"/>
    </g>
    <g id="ogm" transform="translate(830.512 3100.964)">
      <g id="Grupo_1005258" data-name="Grupo 1005258" transform="translate(11.943)">
        <g id="Grupo_1005257" data-name="Grupo 1005257">
          <g id="Grupo_1005242" data-name="Grupo 1005242" transform="translate(19.484 1.03)">
            <g id="Grupo_1005241" data-name="Grupo 1005241" transform="translate(0)">
              <path id="Trazado_643835" data-name="Trazado 643835" d="M164.538,30.917a6.823,6.823,0,0,0-2.326,2.694l-.2,4.431c1.534.362,4.465.773,6.659-.623,3.108-1.978,3.56-6.832,3.56-6.832S167.646,28.939,164.538,30.917Z" transform="translate(-162.015 -29.943)" fill="#648940"/>
            </g>
          </g>
          <g id="Grupo_1005244" data-name="Grupo 1005244" transform="translate(19.485 1.358)">
            <g id="Grupo_1005243" data-name="Grupo 1005243" transform="translate(0)">
              <path id="Trazado_643836" data-name="Trazado 643836" d="M171.1,31.531c-.257,1.423-1.081,4.608-3.455,6.118a8.26,8.26,0,0,1-5.593.831l-.036.823c1.534.362,4.465.773,6.659-.623,3.108-1.978,3.56-6.832,3.56-6.832A10.917,10.917,0,0,0,171.1,31.531Z" transform="translate(-162.016 -31.531)" fill="#5a7a39"/>
            </g>
          </g>
          <g id="Grupo_1005246" data-name="Grupo 1005246" transform="translate(17.052)">
            <g id="Grupo_1005245" data-name="Grupo 1005245">
              <path id="Trazado_643837" data-name="Trazado 643837" d="M151.6,37.639a8.191,8.191,0,0,1,.909-.676L153,26.018a1.03,1.03,0,0,0-1.029-1.076h-.731a1.03,1.03,0,0,0-1.029,1.076l.486,10.945A8.217,8.217,0,0,1,151.6,37.639Z" transform="translate(-150.208 -24.942)" fill="#995222"/>
            </g>
          </g>
          <g id="Grupo_1005248" data-name="Grupo 1005248" transform="translate(17.932 0)">
            <g id="Grupo_1005247" data-name="Grupo 1005247">
              <path id="Trazado_643838" data-name="Trazado 643838" d="M155.36,26.019l-.51,11.5c.055.045.1.087.146.124a8.19,8.19,0,0,1,.909-.676l.486-10.945a1.03,1.03,0,0,0-1.029-1.076h-.731a1.028,1.028,0,0,0-.15.015A1.027,1.027,0,0,1,155.36,26.019Z" transform="translate(-154.48 -24.943)" fill="#8c3f0a"/>
            </g>
          </g>
          <g id="Grupo_1005250" data-name="Grupo 1005250" transform="translate(0 9.849)">
            <g id="Grupo_1005249" data-name="Grupo 1005249">
              <path id="Trazado_643839" data-name="Trazado 643839" d="M100.61,75.69c-6.241-5.989-13.5-1.183-14.711-.1-1.211-1.082-8.47-5.888-14.711.1C63.466,83.1,68.815,99.831,77.232,104c5.261,2.607,7.979.77,8.666.171.688.6,3.405,2.435,8.666-.171C102.982,99.831,108.331,83.1,100.61,75.69Z" transform="translate(-67.451 -72.74)" fill="#e63950"/>
            </g>
          </g>
          <g id="Grupo_1005252" data-name="Grupo 1005252" transform="translate(2.455 10.673)">
            <g id="Grupo_1005251" data-name="Grupo 1005251">
              <path id="Trazado_643840" data-name="Trazado 643840" d="M79.78,82.385a.412.412,0,0,1-.357-.617,10.3,10.3,0,0,1,1.8-2.306,9.048,9.048,0,0,1,6.4-2.72,9.675,9.675,0,0,1,1.125.067.412.412,0,0,1-.1.819,8.894,8.894,0,0,0-1.029-.061,8.25,8.25,0,0,0-5.827,2.491,9.468,9.468,0,0,0-1.653,2.122.412.412,0,0,1-.357.207ZM90.494,78a.406.406,0,0,1-.118-.018l-.177-.051a.412.412,0,0,1,.222-.794l.192.056a.412.412,0,0,1-.118.807Z" transform="translate(-79.368 -76.741)" fill="#e8566f"/>
            </g>
          </g>
          <g id="Grupo_1005254" data-name="Grupo 1005254" transform="translate(5.365 11.962)">
            <g id="Grupo_1005253" data-name="Grupo 1005253">
              <path id="Trazado_643841" data-name="Trazado 643841" d="M121.281,83.834a12.358,12.358,0,0,0-.967-.837c6.064,7.886.843,23.133-7.138,27.087-5.261,2.607-7.979.77-8.667.171-.688.6-3.405,2.435-8.666-.171a12.211,12.211,0,0,1-2.356-1.552,14.094,14.094,0,0,0,4.416,3.612c5.261,2.607,7.979.77,8.666.171.688.6,3.405,2.435,8.667-.171,8.417-4.17,13.766-20.9,6.045-28.311Z" transform="translate(-93.487 -82.997)" fill="#d10028"/>
            </g>
          </g>
          <g id="Grupo_1005256" data-name="Grupo 1005256" transform="translate(5.863 12.448)">
            <g id="Grupo_1005255" data-name="Grupo 1005255">
              <path id="Trazado_643842" data-name="Trazado 643842" d="M123.2,85.706c-.127-.122-.254-.238-.382-.351,6.755,7.707,1.477,23.584-6.692,27.632-5.261,2.607-7.979.77-8.666.171-.688.6-3.405,2.435-8.666-.171a12.655,12.655,0,0,1-2.888-2.015,13.6,13.6,0,0,0,3.918,3.046c5.261,2.607,7.979.77,8.666.171.688.6,3.405,2.435,8.666-.171C125.572,109.847,130.921,93.116,123.2,85.706Z" transform="translate(-95.904 -85.355)" fill="#b7022d"/>
            </g>
          </g>
        </g>
      </g>
      <g id="Grupo_1005301" data-name="Grupo 1005301" transform="translate(0 5.466)">
        <g id="Grupo_1005271" data-name="Grupo 1005271" transform="translate(2.244 14.641)">
          <g id="Grupo_1005260" data-name="Grupo 1005260" transform="translate(0.607)">
            <g id="Grupo_1005259" data-name="Grupo 1005259">
              <path id="Trazado_643843" data-name="Trazado 643843" d="M32.325,122.526h-8a6.961,6.961,0,0,0-1.005,1.45H33.33A6.941,6.941,0,0,0,32.325,122.526Z" transform="translate(-23.325 -122.526)" fill="#e6e7e8"/>
            </g>
          </g>
          <g id="Grupo_1005262" data-name="Grupo 1005262" transform="translate(0.607 1.037)">
            <g id="Grupo_1005261" data-name="Grupo 1005261">
              <path id="Trazado_643844" data-name="Trazado 643844" d="M23.558,127.561c-.082.135-.161.272-.232.412H33.331c-.072-.14-.15-.277-.232-.412Z" transform="translate(-23.326 -127.561)" fill="#d1d3d4"/>
            </g>
          </g>
          <g id="Grupo_1005264" data-name="Grupo 1005264" transform="translate(0 3.136)">
            <g id="Grupo_1005263" data-name="Grupo 1005263">
              <path id="Trazado_643845" data-name="Trazado 643845" d="M31.6,138.536a5.336,5.336,0,0,0-.06-.791H20.44a5.22,5.22,0,0,0-.018,1.45H31.558A5.346,5.346,0,0,0,31.6,138.536Z" transform="translate(-20.38 -137.745)" fill="#e6e7e8"/>
            </g>
          </g>
          <g id="Grupo_1005266" data-name="Grupo 1005266" transform="translate(0.008 4.173)">
            <g id="Grupo_1005265" data-name="Grupo 1005265">
              <path id="Trazado_643846" data-name="Trazado 643846" d="M20.418,142.781c.007.139.017.277.034.412H31.588c.017-.135.027-.273.034-.412Z" transform="translate(-20.418 -142.781)" fill="#d1d3d4"/>
            </g>
          </g>
          <g id="Grupo_1005268" data-name="Grupo 1005268" transform="translate(0.549 6.272)">
            <g id="Grupo_1005267" data-name="Grupo 1005267">
              <path id="Trazado_643847" data-name="Trazado 643847" d="M24.026,154.414h8.161a6.615,6.615,0,0,0,.98-1.45H23.046a6.626,6.626,0,0,0,.98,1.45Z" transform="translate(-23.046 -152.964)" fill="#e6e7e8"/>
            </g>
          </g>
          <g id="Grupo_1005270" data-name="Grupo 1005270" transform="translate(1.195 7.309)">
            <g id="Grupo_1005269" data-name="Grupo 1005269">
              <path id="Trazado_643848" data-name="Trazado 643848" d="M26.182,158c.107.141.217.279.334.412h8.161c.117-.134.227-.272.334-.412Z" transform="translate(-26.182 -158)" fill="#d1d3d4"/>
            </g>
          </g>
        </g>
        <g id="Grupo_1005290" data-name="Grupo 1005290" transform="translate(4.488 2.411)">
          <g id="Grupo_1005280" data-name="Grupo 1005280">
            <g id="Grupo_1005273" data-name="Grupo 1005273" transform="translate(0.347 3.136)">
              <g id="Grupo_1005272" data-name="Grupo 1005272">
                <path id="Trazado_643849" data-name="Trazado 643849" d="M33.642,79.84H38.3a6.763,6.763,0,0,0,.689-1.45H32.953A6.773,6.773,0,0,0,33.642,79.84Z" transform="translate(-32.953 -78.39)" fill="#e6e7e8"/>
              </g>
            </g>
            <g id="Grupo_1005275" data-name="Grupo 1005275" transform="translate(0.798 4.173)">
              <g id="Grupo_1005274" data-name="Grupo 1005274">
                <path id="Trazado_643850" data-name="Trazado 643850" d="M35.145,83.425c.075.14.153.278.238.412h4.659c.084-.134.163-.272.238-.412Z" transform="translate(-35.145 -83.425)" fill="#d1d3d4"/>
              </g>
            </g>
            <g id="Grupo_1005277" data-name="Grupo 1005277">
              <g id="Grupo_1005276" data-name="Grupo 1005276">
                <path id="Trazado_643851" data-name="Trazado 643851" d="M31.27,64.2c0,.141.005.281.014.421h6.7C38,64.48,38,64.34,38,64.2V63.17H31.27Z" transform="translate(-31.27 -63.17)" fill="#e6e7e8"/>
              </g>
            </g>
            <g id="Grupo_1005279" data-name="Grupo 1005279" transform="translate(0 1.038)">
              <g id="Grupo_1005278" data-name="Grupo 1005278">
                <path id="Trazado_643852" data-name="Trazado 643852" d="M31.271,68.206c0,.138.005.275.014.412h6.7c.009-.137.014-.274.014-.412Z" transform="translate(-31.271 -68.206)" fill="#d1d3d4"/>
              </g>
            </g>
          </g>
          <g id="Grupo_1005289" data-name="Grupo 1005289" transform="translate(0 27.596)">
            <g id="Grupo_1005282" data-name="Grupo 1005282" transform="translate(0.351)">
              <g id="Grupo_1005281" data-name="Grupo 1005281">
                <path id="Trazado_643853" data-name="Trazado 643853" d="M38.308,197.1H33.671a6.752,6.752,0,0,0-.7,1.45H39A6.776,6.776,0,0,0,38.308,197.1Z" transform="translate(-32.975 -197.1)" fill="#e6e7e8"/>
              </g>
            </g>
            <g id="Grupo_1005284" data-name="Grupo 1005284" transform="translate(0.351 1.038)">
              <g id="Grupo_1005283" data-name="Grupo 1005283">
                <path id="Trazado_643854" data-name="Trazado 643854" d="M33.131,202.136c-.056.136-.109.273-.156.412H39c-.047-.139-.1-.277-.156-.412Z" transform="translate(-32.975 -202.136)" fill="#d1d3d4"/>
              </g>
            </g>
            <g id="Grupo_1005286" data-name="Grupo 1005286" transform="translate(0 3.136)">
              <g id="Grupo_1005285" data-name="Grupo 1005285">
                <path id="Trazado_643855" data-name="Trazado 643855" d="M38,212.751c0-.144-.005-.288-.015-.431h-6.7c-.009.143-.015.287-.015.431v1.019H38Z" transform="translate(-31.27 -212.32)" fill="#e6e7e8"/>
              </g>
            </g>
            <g id="Grupo_1005288" data-name="Grupo 1005288" transform="translate(0 4.173)">
              <g id="Grupo_1005287" data-name="Grupo 1005287">
                <path id="Trazado_643856" data-name="Trazado 643856" d="M31.27,217.355H38v.412H31.27Z" transform="translate(-31.27 -217.355)" fill="#d1d3d4"/>
              </g>
            </g>
          </g>
        </g>
        <g id="Grupo_1005300" data-name="Grupo 1005300">
          <g id="Grupo_1005299" data-name="Grupo 1005299">
            <g id="Grupo_1005292" data-name="Grupo 1005292" transform="translate(2.244 0)">
              <g id="Grupo_1005291" data-name="Grupo 1005291">
                <path id="Trazado_643857" data-name="Trazado 643857" d="M21.5,88.472a1.122,1.122,0,0,1-1.122-1.122V85.043a9.055,9.055,0,0,1,5.336-8.2C28.4,75.624,31.6,73.452,31.6,70.037c0-3.458-3.265-5.707-6-6.985a9.033,9.033,0,0,1-5.216-8.143V52.591a1.122,1.122,0,0,1,2.244,0v2.318a6.781,6.781,0,0,0,3.921,6.109c4.775,2.228,7.3,5.346,7.3,9.019,0,3.648-2.489,6.709-7.2,8.85a6.807,6.807,0,0,0-4.022,6.155V87.35A1.122,1.122,0,0,1,21.5,88.472Z" transform="translate(-20.379 -51.469)" fill="#648940"/>
              </g>
            </g>
            <g id="Grupo_1005294" data-name="Grupo 1005294" transform="translate(2.851)">
              <g id="Grupo_1005293" data-name="Grupo 1005293">
                <path id="Trazado_643858" data-name="Trazado 643858" d="M28.883,61.018a6.781,6.781,0,0,1-3.921-6.109V52.591a1.121,1.121,0,0,0-1.637-1,1.121,1.121,0,0,1,.607,1v2.318a6.781,6.781,0,0,0,3.921,6.109c4.775,2.228,7.3,5.346,7.3,9.019,0,3.648-2.489,6.709-7.2,8.85a6.807,6.807,0,0,0-4.022,6.156V87.35a1.121,1.121,0,0,1-.607,1,1.121,1.121,0,0,0,1.637-1V85.043a6.807,6.807,0,0,1,4.022-6.156c4.709-2.142,7.2-5.2,7.2-8.85,0-3.672-2.524-6.791-7.3-9.019Z" transform="translate(-23.325 -51.469)" fill="#5a7a39"/>
              </g>
            </g>
            <g id="Grupo_1005296" data-name="Grupo 1005296" transform="translate(0 0)">
              <g id="Grupo_1005295" data-name="Grupo 1005295">
                <path id="Trazado_643859" data-name="Trazado 643859" d="M21.831,88.472a1.122,1.122,0,0,0,1.122-1.122V85.043a9.055,9.055,0,0,0-5.336-8.2c-2.684-1.221-5.883-3.393-5.883-6.808,0-3.458,3.265-5.707,6-6.985a9.033,9.033,0,0,0,5.216-8.143V52.591a1.122,1.122,0,0,0-2.244,0v2.318a6.781,6.781,0,0,1-3.921,6.109c-4.775,2.228-7.3,5.346-7.3,9.019,0,3.648,2.489,6.709,7.2,8.85a6.807,6.807,0,0,1,4.022,6.155V87.35A1.122,1.122,0,0,0,21.831,88.472Z" transform="translate(-9.489 -51.469)" fill="#91b56b"/>
              </g>
            </g>
            <g id="Grupo_1005298" data-name="Grupo 1005298" transform="translate(1.214)">
              <g id="Grupo_1005297" data-name="Grupo 1005297">
                <path id="Trazado_643860" data-name="Trazado 643860" d="M22.413,63.051a9.033,9.033,0,0,0,5.216-8.143V52.591a1.121,1.121,0,0,0-1.637-1,1.121,1.121,0,0,1,.607,1v2.318a9.033,9.033,0,0,1-5.216,8.143c-2.739,1.278-6,3.527-6,6.985,0,3.415,3.2,5.587,5.883,6.808a9.056,9.056,0,0,1,5.336,8.2v2.308a1.121,1.121,0,0,1-.607,1,1.121,1.121,0,0,0,1.637-1V85.043a9.056,9.056,0,0,0-5.336-8.2c-2.684-1.221-5.883-3.393-5.883-6.808,0-3.459,3.265-5.708,6-6.985Z" transform="translate(-15.379 -51.469)" fill="#76a34f"/>
              </g>
            </g>
          </g>
        </g>
      </g>
    </g>
  </g>
</svg>
