<svg id="Grupo_1005227" data-name="Grupo 1005227" xmlns="http://www.w3.org/2000/svg" xmlns:xlink="http://www.w3.org/1999/xlink" width="163.822" height="296" viewBox="0 0 163.822 296">
  <defs>
    <clipPath id="clip-path">
      <rect id="Rectángulo_347789" data-name="Rectángulo 347789" width="163.822" height="296" fill="none"/>
    </clipPath>
  </defs>
  <rect id="Rectángulo_347783" data-name="Rectángulo 347783" width="11.008" height="92.014" transform="translate(25.979 148.384)" fill="#fbcb43"/>
  <g id="Grupo_1005226" data-name="Grupo 1005226">
    <g id="Grupo_1005225" data-name="Grupo 1005225" clip-path="url(#clip-path)">
      <path id="Trazado_643743" data-name="Trazado 643743" d="M31.474,0l-.082.032L31.31,0S2.5,8.808,1.023,26.019C-.6,44.963.2,80.634.2,80.634H62.586s.8-35.671-.826-54.615C60.281,8.808,31.474,0,31.474,0" transform="translate(0.001 0)" fill="gray"/>
      <path id="Trazado_643744" data-name="Trazado 643744" d="M19.13,23.943a32.172,32.172,0,0,0-3.358-12.958,32.172,32.172,0,0,0-3.358,12.958c-.4,7.708-2.82,38.708-2.82,38.708A11.974,11.974,0,0,1,11.609,70.2C11.34,74.788,10.4,84.3,10.4,90.862s-.135,26.736-.135,26.736H21.28s-.135-20.176-.135-26.736S20.2,74.788,19.935,70.2a11.993,11.993,0,0,1,2.015-7.545s-2.416-31-2.82-38.708" transform="translate(15.715 17.994)" fill="#6b6b6b"/>
      <rect id="Rectángulo_347784" data-name="Rectángulo 347784" width="11.008" height="15.617" transform="translate(25.979 135.589)" fill="#b2b2b2"/>
      <rect id="Rectángulo_347785" data-name="Rectángulo 347785" width="35.059" height="6.566" transform="translate(13.494 289.434)" fill="#fbcb43"/>
      <path id="Trazado_643745" data-name="Trazado 643745" d="M30.167,108.6V91.128h-11V108.6c0,4.181-3.321,7.487-6.643,10.578-7.133,6.643-8.365,16.485-8.365,27.554H8.588s-.491-13.776,3.445-18.944c4.561-5.988,9.12-6.149,12.634-6.149s8.072.161,12.636,6.149c3.936,5.168,3.443,18.944,3.443,18.944h4.429c0-11.069-1.229-20.912-8.365-27.554-3.321-3.092-6.643-6.4-6.643-10.578" transform="translate(6.813 149.27)" fill="#6b6b6b"/>
      <rect id="Rectángulo_347786" data-name="Rectángulo 347786" width="11.008" height="138.101" transform="translate(112.686 102.297)" fill="#fbcb43"/>
      <rect id="Rectángulo_347787" data-name="Rectángulo 347787" width="11.008" height="15.617" transform="translate(112.689 89.941)" fill="#b2b2b2"/>
      <rect id="Rectángulo_347788" data-name="Rectángulo 347788" width="35.059" height="6.566" transform="translate(100.2 289.434)" fill="#fbcb43"/>
      <path id="Trazado_643746" data-name="Trazado 643746" d="M63.034,108.6V91.128h-11V108.6c0,4.181-3.321,7.487-6.643,10.578-7.133,6.643-8.363,16.485-8.363,27.554h4.427s-.491-13.776,3.445-18.944c4.561-5.988,9.122-6.149,12.634-6.149s8.072.161,12.636,6.149c3.936,5.168,3.443,18.944,3.443,18.944h4.429c0-11.069-1.229-20.912-8.365-27.554-3.321-3.092-6.643-6.4-6.643-10.578" transform="translate(60.653 149.27)" fill="#6b6b6b"/>
      <path id="Trazado_643747" data-name="Trazado 643747" d="M117,10.439a2.123,2.123,0,0,0-2.118,2.118V24.394h-4.34V12.557a2.117,2.117,0,1,0-4.234,0V24.394h-4.237V12.557a2.117,2.117,0,1,0-4.234,0V24.394H92.892V12.557a2.118,2.118,0,1,0-4.237,0V24.394H84.422V12.557a2.118,2.118,0,1,0-4.237,0V24.394H75.457V12.557a2.117,2.117,0,1,0-4.234,0V24.394H66.889V12.557a2.117,2.117,0,1,0-4.234,0V24.394H58.418V12.557a2.117,2.117,0,1,0-4.234,0V24.394H49.243V12.557a2.118,2.118,0,0,0-4.237,0V24.394H40.773V12.557a2.118,2.118,0,1,0-4.237,0V24.394h-5V12.557a2.118,2.118,0,1,0-4.237,0V36.371h91.819V12.557A2.125,2.125,0,0,0,117,10.439" transform="translate(44.71 17.099)" fill="#b2b2b2"/>
      <path id="Trazado_643748" data-name="Trazado 643748" d="M60.144,18.084H44.184c-3.764,0-5.529,4.822-1.849,6.59,1.633.781,4.324,1.527,4.324,5.176V60.319H57.67V29.85c0-3.648,2.691-4.395,4.324-5.176,3.68-1.767,1.915-6.59-1.849-6.59" transform="translate(66.027 29.622)" fill="#6b6b6b"/>
      <path id="Trazado_643749" data-name="Trazado 643749" d="M42.25,18.954a1.117,1.117,0,1,0,1.119,1.119,1.119,1.119,0,0,0-1.119-1.119" transform="translate(67.374 31.047)" fill="#b2b2b2"/>
      <path id="Trazado_643750" data-name="Trazado 643750" d="M48.472,18.954a1.117,1.117,0,1,0,1.119,1.119,1.119,1.119,0,0,0-1.119-1.119" transform="translate(77.566 31.047)" fill="#b2b2b2"/>
    </g>
  </g>
</svg>
