<svg xmlns="http://www.w3.org/2000/svg" xmlns:xlink="http://www.w3.org/1999/xlink" width="118.618" height="119.458" viewBox="0 0 118.618 119.458">
  <defs>
    <radialGradient id="radial-gradient" cx="0.076" cy="0.019" r="1.465" gradientTransform="translate(0.001)" gradientUnits="objectBoundingBox">
      <stop offset="0" stop-color="#f6f6f7"/>
      <stop offset="0.477" stop-color="#f9f9fa"/>
      <stop offset="0.715" stop-color="#fff"/>
    </radialGradient>
    <filter id="Trazado_40937" x="0" y="0.962" width="118.618" height="118.496" filterUnits="userSpaceOnUse">
      <feOffset dy="7" input="SourceAlpha"/>
      <feGaussianBlur stdDeviation="2.5" result="blur"/>
      <feFlood flood-opacity="0.102"/>
      <feComposite operator="in" in2="blur"/>
      <feComposite in="SourceGraphic"/>
    </filter>
  </defs>
  <g id="Grupo_1005354" data-name="Grupo 1005354" transform="translate(-383.841 -4302.763)">
    <g id="Grupo_980514" data-name="Grupo 980514" transform="translate(390 4302.763)">
      <g id="Grupo_1004059" data-name="Grupo 1004059">
        <g id="Grupo_18423" data-name="Grupo 18423" transform="translate(0 0)">
          <g id="Grupo_18421" data-name="Grupo 18421">
            <g id="Grupo_18420" data-name="Grupo 18420">
              <g id="Grupo_18419" data-name="Grupo 18419">
                <path id="Trazado_40936" data-name="Trazado 40936" d="M299.581,2198.2a52.479,52.479,0,1,1-52.478-52.478A52.479,52.479,0,0,1,299.581,2198.2Z" transform="translate(-194.623 -2145.721)" fill="#fff"/>
              </g>
            </g>
          </g>
          <g transform="matrix(1, 0, 0, 1, -6.16, 0)" filter="url(#Trazado_40937)">
            <path id="Trazado_40937-2" data-name="Trazado 40937" d="M299.095,2197.668a52.478,52.478,0,1,0-52.478,52.48A52.271,52.271,0,0,0,299.095,2197.668Z" transform="translate(-187.98 -2145.19)" fill="url(#radial-gradient)"/>
          </g>
          <g id="Grupo_18422" data-name="Grupo 18422" transform="translate(9.297 29.463)">
            <path id="Trazado_40939" data-name="Trazado 40939" d="M290.9,2164.488a52.485,52.485,0,0,1-90.355,52.261,52.319,52.319,0,0,0,90.355-52.261Z" transform="translate(-200.545 -2164.488)" fill="#eceef0"/>
          </g>
        </g>
      </g>
    </g>
    <g id="caracol" transform="translate(404.85 4258.083)">
      <g id="Grupo_1005069" data-name="Grupo 1005069" transform="translate(74.823 51.639)">
        <path id="Trazado_643307" data-name="Trazado 643307" d="M412.319,56.114l1.151,2.141,1.74-2.141a4.475,4.475,0,0,0-8.951,0V74.9a1.445,1.445,0,0,0,2.89,0V56.114a1.585,1.585,0,1,1,3.17,0" transform="translate(-406.258 -51.639)" fill="#78a635"/>
      </g>
      <g id="Grupo_1005070" data-name="Grupo 1005070" transform="translate(80.744 52.646)">
        <path id="Trazado_643308" data-name="Trazado 643308" d="M439.847,82.211a1.445,1.445,0,0,1-1.445-1.445V61.582a4.475,4.475,0,0,1,8.951,0v2.954a1.445,1.445,0,0,1-2.89,0V61.582a1.585,1.585,0,0,0-3.171,0V80.766A1.444,1.444,0,0,1,439.847,82.211Z" transform="translate(-438.402 -57.107)" fill="#82b339"/>
      </g>
      <path id="Trazado_643309" data-name="Trazado 643309" d="M11.926,216.972A20.647,20.647,0,0,0,.337,223.925a1.348,1.348,0,0,0,1.018,2.234H7.684a3.778,3.778,0,0,1,2.671,1.107l1.574,1.574a3.779,3.779,0,0,0,5.346,0l.007-.007a3.784,3.784,0,0,1,5.346,0l.007.007a3.781,3.781,0,0,0,5.348,0l.005-.007a3.781,3.781,0,0,1,5.348,0l.007.007a3.781,3.781,0,0,0,5.346,0l.007-.007a3.781,3.781,0,0,1,5.346,0l0,0a3.784,3.784,0,0,0,5.349,0l.007-.007a3.78,3.78,0,0,1,5.348,0,3.78,3.78,0,0,0,5.353-.007l1.6-1.6a3.818,3.818,0,0,1,2.468-1.108c11.184-.726,20.031-13.862,20.031-25.229v-4.449a6.76,6.76,0,0,1,5.659-6.67,5.252,5.252,0,0,0,4.435-4.895,5.165,5.165,0,0,0-4.559-5.35s-12.865-1.581-13.467-1.589a8.143,8.143,0,0,0-8.13,8.162v9.459a21.321,21.321,0,0,1-3.658,11.976Z" transform="translate(-0.001 -103.031)" fill="#aad667"/>
      <path id="Trazado_643310" data-name="Trazado 643310" d="M21.9,143.34c3.973-16.874,19.4-26.943,34.455-22.49,16.163,4.779,25.819,21.747,25.064,39.7a21.393,21.393,0,0,1-17.448,8.992H54.612c-4.31,4.33-10.456,6.52-16.658,4.687a21.664,21.664,0,0,1-8.325-4.687C22.868,163.486,19.547,153.324,21.9,143.34Z" transform="translate(-17.252 -55.604)" fill="#b36d3c"/>
      <path id="Trazado_643311" data-name="Trazado 643311" d="M13.838,390.811q-.754-.571-1.461-1.2l-.075-.068-.377.068A20.647,20.647,0,0,0,.336,396.56a1.348,1.348,0,0,0,1.018,2.234H4.32a23.191,23.191,0,0,1,9.518-7.984Z" transform="translate(0 -275.666)" fill="#99c94f"/>
      <path id="Trazado_643312" data-name="Trazado 643312" d="M276.889,207.979c.006-.133.314-.452.314-.452a21.321,21.321,0,0,0,3.658-11.976v-9.459a8.219,8.219,0,0,1,5.668-7.8c-1.781-.209-3.133-.361-3.319-.364a8.143,8.143,0,0,0-8.13,8.162v9.459a21.321,21.321,0,0,1-3.658,11.976s-.309.319-.314.452a21.393,21.393,0,0,1-17.448,8.992h5.78A21.393,21.393,0,0,0,276.889,207.979Z" transform="translate(-206.943 -103.03)" fill="#99c94f"/>
      <path id="Trazado_643313" data-name="Trazado 643313" d="M74.952,140.162a1.448,1.448,0,0,0-.2-.746,43.075,43.075,0,0,0-4.661-10.779,1.45,1.45,0,0,0-.493-.787,35.942,35.942,0,0,0-10.569-10.8,1.439,1.439,0,0,0-.31-.2,32.885,32.885,0,0,0-8.351-3.8,26.667,26.667,0,0,0-8.552-1.084,1.451,1.451,0,0,0-.735.037,27.9,27.9,0,0,0-15.848,6.34l-.016.013a30.866,30.866,0,0,0-3.724,3.61,32.067,32.067,0,0,0-3.451,4.777,34.925,34.925,0,0,0-3.946,9.852,29.494,29.494,0,0,0-.776,6.028,1.45,1.45,0,0,0-.007.355,29.311,29.311,0,0,0,1.932,10.862,1.443,1.443,0,0,0,.171.436c2.862,7.106,8.465,12.774,15.72,14.924l.047.014.027.008a17.479,17.479,0,0,0,4.793.7q.676,0,1.348-.057A18.952,18.952,0,0,0,48.6,164.772l.206-.193h8.77a22.928,22.928,0,0,0,18.624-9.6,1.438,1.438,0,0,0,.269-.833,47.48,47.48,0,0,0-1.512-13.988ZM57.57,161.689H51.341a22.047,22.047,0,0,0,3.671-7.931c2.2-9.358-2.854-19-11.273-21.488a11.848,11.848,0,0,0-9.391,1.157,14.243,14.243,0,0,0-6.537,9.11c-1.474,6.253,1.923,12.7,7.572,14.371a8.1,8.1,0,0,0,6.42-.791,9.633,9.633,0,0,0,4.427-6.162c1.006-4.267-1.329-8.669-5.2-9.814a1.445,1.445,0,1,0-.819,2.771c2.43.718,3.87,3.58,3.21,6.381a6.737,6.737,0,0,1-3.066,4.325,5.235,5.235,0,0,1-4.149.518c-4.2-1.244-6.707-6.15-5.579-10.937a11.346,11.346,0,0,1,5.175-7.273,8.984,8.984,0,0,1,7.121-.885C49.894,137.105,54.057,145.2,52.2,153.1c-1.767,7.5-8.109,13.338-15.088,13.888a14.143,14.143,0,0,1-5.1-.536l-.035-.01-.01,0A21.249,21.249,0,0,1,20,157.012a12.646,12.646,0,0,0,4.2.715,13.133,13.133,0,0,0,1.417-.077,1.445,1.445,0,1,0-.311-2.873,10.361,10.361,0,0,1-7.442-2.143,26.31,26.31,0,0,1-1.565-6.956,11.889,11.889,0,0,0,5.529,1.275q.519,0,1.056-.037a1.445,1.445,0,0,0-.2-2.883,8.862,8.862,0,0,1-6.457-1.836,26.745,26.745,0,0,1,.686-4.936q.37-1.572.882-3.079a11.89,11.89,0,0,0,6.633,2.119,11.193,11.193,0,0,0,1.187-.064,1.445,1.445,0,0,0-.307-2.874,8.962,8.962,0,0,1-6.43-1.948,31.1,31.1,0,0,1,1.657-3.2,29.227,29.227,0,0,1,3.144-4.351q.848-.971,1.761-1.843a14.075,14.075,0,0,0,4.5,5.51,1.445,1.445,0,0,0,1.759-2.293,10.6,10.6,0,0,1-3.92-5.211A25.072,25.072,0,0,1,40.069,115v9.092a1.445,1.445,0,1,0,2.89,0v-9.248a23.769,23.769,0,0,1,6.584.98,29.756,29.756,0,0,1,6.871,3.023A12.47,12.47,0,0,1,51.4,125.6a1.445,1.445,0,1,0,1.653,2.37A15.492,15.492,0,0,0,58.9,120.51a33.878,33.878,0,0,1,8.161,8.725,15.017,15.017,0,0,1-7.081,8.228,1.445,1.445,0,1,0,1.412,2.522,18.064,18.064,0,0,0,7.479-7.673,40.275,40.275,0,0,1,3.1,7.8,15.206,15.206,0,0,1-9.523,9.383,1.445,1.445,0,1,0,.952,2.729,17.786,17.786,0,0,0,9.576-7.651,45.218,45.218,0,0,1,.608,9.074,20.032,20.032,0,0,1-16.019,8.04Z" transform="translate(-10.852 -49.194)" fill="#995e34"/>
      <g id="Grupo_1005071" data-name="Grupo 1005071" transform="translate(80.884 81.563)">
        <path id="Trazado_643314" data-name="Trazado 643314" d="M441.631,216.581a1.445,1.445,0,1,1,0-2.044A1.445,1.445,0,0,1,441.631,216.581Z" transform="translate(-439.164 -214.114)" fill="#895029"/>
      </g>
    </g>
  </g>
</svg>
