<svg xmlns="http://www.w3.org/2000/svg" xmlns:xlink="http://www.w3.org/1999/xlink" width="610" height="90.69" viewBox="0 0 610 90.69">
  <defs>
    <clipPath id="clip-path">
      <rect id="Rectángulo_347709" data-name="Rectángulo 347709" width="460.279" height="90.691" fill="none"/>
    </clipPath>
    <clipPath id="clip-path-3">
      <path id="Trazado_643318" data-name="Trazado 643318" d="M44.719,21.384C39.505,29.1,35.371,38.793,29.165,40.957S2.435,48.139,1.931,59.491c-.508,11.471,3.053,20.09,22.681,19.552s29.5-22.36,31.69-27.437c0,0,10.871-19.61,9.036-25.051a13.4,13.4,0,0,0-7.064-7.542,12.841,12.841,0,0,0-6.194-1.8,8.566,8.566,0,0,0-7.361,4.172" transform="translate(-1.886 -17.212)" fill="none"/>
    </clipPath>
    <clipPath id="clip-path-5">
      <path id="Trazado_643332" data-name="Trazado 643332" d="M313.49,26.773c-6.766,2.666-13.687,3.256-17.3,8.067-4.435,5.9-5.327,14.519-2.975,20.49.9,2.285,3.019,6.074,4.821,7.719,4.264,3.893,10.025,4.111,17.216,3.89,4.182-.129,8.962-.113,13.334-1.834,6.758-2.662,16.77-8.646,20.385-13.448,4.446-5.907,1.176-11.846-1.177-17.823-1.875-4.758-5.759-10.358-11.016-12.211a12.755,12.755,0,0,0-4.277-.692c-5.766,0-12.284,3.194-19.012,5.843" transform="translate(-291.951 -20.93)" fill="none"/>
    </clipPath>
    <clipPath id="clip-path-7">
      <rect id="Rectángulo_347692" data-name="Rectángulo 347692" width="25.312" height="11.08" fill="none"/>
    </clipPath>
    <clipPath id="clip-path-8">
      <rect id="Rectángulo_347693" data-name="Rectángulo 347693" width="14.239" height="16.161" fill="none"/>
    </clipPath>
    <clipPath id="clip-path-9">
      <rect id="Rectángulo_347694" data-name="Rectángulo 347694" width="37.727" height="38.614" fill="none"/>
    </clipPath>
    <clipPath id="clip-path-10">
      <rect id="Rectángulo_347695" data-name="Rectángulo 347695" width="5.319" height="5.143" fill="none"/>
    </clipPath>
    <clipPath id="clip-path-11">
      <rect id="Rectángulo_347696" data-name="Rectángulo 347696" width="5.931" height="5.736" fill="none"/>
    </clipPath>
    <clipPath id="clip-path-12">
      <rect id="Rectángulo_347697" data-name="Rectángulo 347697" width="6.047" height="5.848" fill="none"/>
    </clipPath>
    <clipPath id="clip-path-13">
      <rect id="Rectángulo_347698" data-name="Rectángulo 347698" width="5.816" height="5.624" fill="none"/>
    </clipPath>
    <clipPath id="clip-path-15">
      <rect id="Rectángulo_347700" data-name="Rectángulo 347700" width="3.374" height="3.264" fill="none"/>
    </clipPath>
    <clipPath id="clip-path-16">
      <rect id="Rectángulo_347701" data-name="Rectángulo 347701" width="3.941" height="3.81" fill="none"/>
    </clipPath>
    <clipPath id="clip-path-18">
      <rect id="Rectángulo_347703" data-name="Rectángulo 347703" width="4.69" height="4.535" fill="none"/>
    </clipPath>
    <clipPath id="clip-path-20">
      <path id="Trazado_643542" data-name="Trazado 643542" d="M98.162,20.614c-7.528,5.313-21.453,6.07-21.453,6.07-5.488,1.63-8.181,11.04-3.811,16.55s2.726,8.8,7.492,17.353,15.56,17.55,21.321,16.22,7.8.351,10.46-24.381c2.338-21.758-6.661-32.409-12.043-32.408a3.359,3.359,0,0,0-1.966.6" transform="translate(-70.722 -20.019)" fill="none"/>
    </clipPath>
    <clipPath id="clip-path-22">
      <rect id="Rectángulo_347706" data-name="Rectángulo 347706" width="14.506" height="24.257" fill="none"/>
    </clipPath>
    <clipPath id="clip-path-23">
      <rect id="Rectángulo_347707" data-name="Rectángulo 347707" width="15.417" height="12.243" fill="none"/>
    </clipPath>
  </defs>
  <g id="Grupo_1005353" data-name="Grupo 1005353" transform="translate(-810 -8766.059)">
    <path id="Trazado_643925" data-name="Trazado 643925" d="M24.9,0H585.1C598.853,0,610,8.954,610,20V46.95c0,11.046-11.147,20-24.9,20H24.9C11.147,66.95,0,58,0,46.95V20C0,8.954,11.147,0,24.9,0Z" transform="translate(810 8783.67)" fill="#f6f6f6"/>
    <g id="Grupo_1005138" data-name="Grupo 1005138" transform="translate(874.721 8766.059)">
      <g id="Grupo_1005137" data-name="Grupo 1005137" transform="translate(0)" clip-path="url(#clip-path)">
        <g id="Grupo_1005079" data-name="Grupo 1005079" transform="translate(0 0)">
          <g id="Grupo_1005078" data-name="Grupo 1005078" clip-path="url(#clip-path)">
            <path id="Trazado_643315" data-name="Trazado 643315" d="M58.274,19.192s-8.343-5.341-13.557,2.373S35.37,38.973,29.165,41.137,2.435,48.319,1.931,59.67c-.51,11.472,3.053,20.091,22.68,19.553s29.5-22.36,31.691-27.437c0,0,10.871-19.611,9.036-25.052a13.4,13.4,0,0,0-7.064-7.542" transform="translate(0.298 2.748)" fill="#3f203e"/>
          </g>
        </g>
        <g id="Grupo_1005081" data-name="Grupo 1005081" transform="translate(2.184 19.932)">
          <g id="Grupo_1005080" data-name="Grupo 1005080" clip-path="url(#clip-path-3)">
            <path id="Trazado_643316" data-name="Trazado 643316" d="M.089,62.937s4.532,15.645,26.975,8.988c17.909-5.312,32.864-35.512,33.714-49.2l.85-13.691S38.019,25.04,29.8,37.244-1.611,43.761.089,62.937" transform="translate(-2.184 -18.505)" fill="#50284b"/>
            <path id="Trazado_643317" data-name="Trazado 643317" d="M5.348,54.929s-2.77,8.98,6.674,9.61,28.709-9.822,32.864-18.132S56.7,24.337,54.846,21.348,45.767,19.3,41.863,27.693s-7.348,14.49-17.125,16.213S5.725,52.125,5.348,54.929" transform="translate(-1.399 -16.803)" fill="#683564"/>
          </g>
        </g>
        <g id="Grupo_1005083" data-name="Grupo 1005083" transform="translate(0 0)">
          <g id="Grupo_1005082" data-name="Grupo 1005082" clip-path="url(#clip-path)">
            <path id="Trazado_643319" data-name="Trazado 643319" d="M52.393,17.874s-8.521-4.835-15.433,4.712c-6.611,9.131-2.655,2.766,5.1.988,4.777-1.094,7.55-2.259,7.55-1.883Z" transform="translate(5.311 2.631)" fill="#518d23"/>
            <path id="Trazado_643320" data-name="Trazado 643320" d="M49.549,21.925s3.308,1.165,4.063,8.909.756,6.948,2.834,9.013c1.634,1.625.944-5.078,2.55-11.956s-7.366-9.334-7.366-9.334Z" transform="translate(7.829 2.932)" fill="#518d23"/>
            <path id="Trazado_643321" data-name="Trazado 643321" d="M48.233,16.976s-5.855,2.172-5.289,8.122-.189,8.856-1.134,10.236,5.856.908,8.689-3.059,6.234-9.635,4.627-11.57Z" transform="translate(6.592 2.683)" fill="#518d23"/>
            <path id="Trazado_643322" data-name="Trazado 643322" d="M6.127,52.352s.881,2.077,3.715.566,3.966-4.91,6.044-5.036,5.1-2.094,4.47-3.031S16.327,42.72,10.6,46.813s-4.47,5.54-4.47,5.54" transform="translate(0.95 6.943)" fill="#874c85"/>
            <path id="Trazado_643323" data-name="Trazado 643323" d="M19.268,43.237a4.363,4.363,0,0,1,3.651-1.758c2.2.247,2.645,2.45.819,2.828,0,0-3.777,2.141-4.47-1.07" transform="translate(3.045 6.551)" fill="#874c85"/>
            <path id="Trazado_643324" data-name="Trazado 643324" d="M49.1,17.756s-2.738-1.416-7.294.991-4.558,4.816-5.69,5.666,5.289-3.021,8.877-2.832A7.071,7.071,0,0,0,50.7,18.748Z" transform="translate(5.686 2.741)" fill="#7eb341"/>
            <path id="Trazado_643325" data-name="Trazado 643325" d="M48.216,18.784s-4.636,1.388-4.242,5.525.657,7.041,0,8,3.848-.13,5.818-2.887,4.333-6.7,3.217-8.045Z" transform="translate(6.938 2.968)" fill="#7eb341"/>
            <path id="Trazado_643326" data-name="Trazado 643326" d="M51.128,21.526s3.274,2.157,3.526,8.831,1.762,5.6,1.762,5.6a12.4,12.4,0,0,1,.819-7.185c1.641-3.547-1.071-8.113-4.345-8.994Z" transform="translate(8.079 3.126)" fill="#7eb341"/>
            <path id="Trazado_643327" data-name="Trazado 643327" d="M45.536,18.98s-1.437-1.8,2-2.081,6.333,1.885,7.062,3.579c1.08,2.511-7.062,1.429-9.061-1.5" transform="translate(7.148 2.667)" fill="#5b6934"/>
            <path id="Trazado_643328" data-name="Trazado 643328" d="M46.728,19.359s-.059-1.564,2.966-1.82S53,11.427,53,11.427s.985-1.331,1.511,0c.362.916-.507,4.464-.566,5.63-.095,1.83-.555,2.163.087,3.73.952,2.322-5.848.886-7.306-1.428" transform="translate(7.384 1.712)" fill="#7eb341"/>
            <path id="Trazado_643329" data-name="Trazado 643329" d="M52.324,11.527s.454-.587.827-.472.353.307.259.472-1.1.381-1.086,0" transform="translate(8.268 1.745)" fill="#5b6934"/>
            <path id="Trazado_643330" data-name="Trazado 643330" d="M347.794,33.834c2.353,5.976,5.623,11.916,1.178,17.823-3.614,4.8-13.626,10.786-20.385,13.447-4.374,1.723-9.153,1.706-13.335,1.835-7.191.221-12.952,0-17.216-3.89-1.8-1.647-3.922-5.435-4.822-7.719-2.351-5.971-1.46-14.587,2.975-20.491,3.614-4.809,10.534-5.4,17.3-8.066,8.452-3.329,16.575-7.517,23.289-5.151,5.257,1.853,9.141,7.453,11.015,12.211" transform="translate(46.132 3.307)" fill="#d1b869"/>
          </g>
        </g>
        <g id="Grupo_1005085" data-name="Grupo 1005085" transform="translate(338.082 24.237)">
          <g id="Grupo_1005084" data-name="Grupo 1005084" clip-path="url(#clip-path-5)">
            <path id="Trazado_643331" data-name="Trazado 643331" d="M355.779,37.987c0,11.078-14.665,20.059-32.756,20.059s-32.757-8.982-32.757-20.059,14.666-20.059,32.757-20.059,32.756,8.982,32.756,20.059" transform="translate(-292.217 -21.404)" fill="#dec777"/>
          </g>
        </g>
        <g id="Grupo_1005126" data-name="Grupo 1005126" transform="translate(0 0)">
          <g id="Grupo_1005125" data-name="Grupo 1005125" clip-path="url(#clip-path)">
            <path id="Trazado_643333" data-name="Trazado 643333" d="M298.8,37.6c.577,1.219.6,2.416.061,2.673s-1.45-.523-2.027-1.743-.6-2.417-.063-2.673,1.451.523,2.028,1.743" transform="translate(46.832 5.658)" fill="#ceb35b"/>
            <path id="Trazado_643334" data-name="Trazado 643334" d="M307.379,42.528c.577,1.219.6,2.416.061,2.673s-1.45-.523-2.027-1.743-.6-2.417-.063-2.673,1.451.523,2.028,1.743" transform="translate(48.188 6.437)" fill="#ceb35b"/>
            <path id="Trazado_643335" data-name="Trazado 643335" d="M311.078,33.333c.577,1.219.6,2.416.061,2.673s-1.45-.523-2.028-1.743-.6-2.417-.061-2.673,1.451.523,2.028,1.743" transform="translate(48.772 4.984)" fill="#ceb35b"/>
            <path id="Trazado_643336" data-name="Trazado 643336" d="M312.316,50.542c.577,1.219.6,2.416.061,2.673s-1.45-.523-2.026-1.743-.6-2.417-.063-2.673,1.451.523,2.028,1.743" transform="translate(48.968 7.703)" fill="#ceb35b"/>
            <path id="Trazado_643337" data-name="Trazado 643337" d="M318.983,43.35c.577,1.219.6,2.416.061,2.673s-1.45-.523-2.027-1.743-.6-2.417-.062-2.673,1.451.523,2.028,1.743" transform="translate(50.021 6.567)" fill="#ceb35b"/>
            <path id="Trazado_643338" data-name="Trazado 643338" d="M320.221,35.648c.577,1.219.6,2.416.061,2.673s-1.45-.523-2.027-1.743-.6-2.417-.062-2.673,1.451.523,2.028,1.743" transform="translate(50.217 5.35)" fill="#ceb35b"/>
            <path id="Trazado_643339" data-name="Trazado 643339" d="M326.591,25.782c.577,1.219.6,2.417.061,2.673s-1.45-.523-2.027-1.743-.6-2.416-.062-2.673,1.451.523,2.028,1.743" transform="translate(51.224 3.791)" fill="#ceb35b"/>
            <g id="Grupo_1005088" data-name="Grupo 1005088" transform="translate(364.908 27.458)" opacity="0.3">
              <g id="Grupo_1005087" data-name="Grupo 1005087">
                <g id="Grupo_1005086" data-name="Grupo 1005086" clip-path="url(#clip-path-7)">
                  <path id="Trazado_643340" data-name="Trazado 643340" d="M315.151,29.825s2.751-7.971,16.093-5.71c9.08,1.538,10.08,8.8,8.653,10.468s-6.9-7.338-10.944-5.453-14.515,7.893-13.8.695" transform="translate(-315.116 -23.711)" fill="#fcfcfc"/>
                </g>
              </g>
            </g>
            <path id="Trazado_643341" data-name="Trazado 643341" d="M330.341,36.05c.577,1.219.6,2.416.061,2.673s-1.45-.523-2.027-1.743-.6-2.417-.062-2.673,1.451.523,2.028,1.743" transform="translate(51.816 5.413)" fill="#ceb35b"/>
            <path id="Trazado_643342" data-name="Trazado 643342" d="M323.782,52.83c.789,1.668,1.034,3.205.549,3.435s-1.518-.936-2.307-2.6-1.034-3.205-.549-3.435,1.518.936,2.307,2.6" transform="translate(50.758 7.932)" fill="#c6a958"/>
            <path id="Trazado_643343" data-name="Trazado 643343" d="M300.563,49.028c.789,1.668,1.034,3.205.549,3.435s-1.518-.936-2.307-2.6-1.034-3.205-.549-3.435,1.518.936,2.307,2.6" transform="translate(47.089 7.331)" fill="#c6a958"/>
            <path id="Trazado_643344" data-name="Trazado 643344" d="M334.518,47.781c.789,1.668,1.035,3.205.549,3.435s-1.518-.936-2.307-2.6-1.034-3.205-.549-3.435,1.518.936,2.307,2.6" transform="translate(52.454 7.134)" fill="#c6a958"/>
            <path id="Trazado_643345" data-name="Trazado 643345" d="M339.09,39.7c.789,1.668,1.035,3.205.549,3.435s-1.517-.936-2.307-2.6-1.034-3.205-.549-3.435,1.518.936,2.307,2.6" transform="translate(53.177 5.858)" fill="#c6a958"/>
            <path id="Trazado_643346" data-name="Trazado 643346" d="M378.29,27.556S377.781,11.99,376.85,5.1s.821-.036-3.634,17.253-10.013,21.908-9.847,33.3,10.347,1.1,14.921-28.092" transform="translate(57.416 0.387)" fill="#518d23"/>
            <path id="Trazado_643347" data-name="Trazado 643347" d="M391.1,47.46a10.856,10.856,0,0,0-5.411,6.279c-1.644,4.7-4.574,11.863-8.3,13.721s1.7-13.634,1.7-13.634,6.551-7.282,12.011-6.366" transform="translate(59.425 7.487)" fill="#acd680"/>
            <path id="Trazado_643348" data-name="Trazado 643348" d="M387.248,35.294a106.471,106.471,0,0,1,11.643-2.834c3.889-.51-.512-.61-5.891,5.666s-4,11.169-9.545,13.02-7.188-7.424,3.794-15.852" transform="translate(59.907 5.095)" fill="#518d23"/>
            <path id="Trazado_643349" data-name="Trazado 643349" d="M390.651,44.072c-7.2,18.64-17.436,32.053-22.864,29.957S363.8,55.122,371,36.481,388.432,4.428,393.859,6.524s3.991,18.907-3.209,37.547" transform="translate(57.595 0.997)" fill="#ffc200"/>
            <path id="Trazado_643350" data-name="Trazado 643350" d="M373.98,31.008l-2.459-.95a1.5,1.5,0,0,1,1.082-2.8l2.458.95a1.5,1.5,0,0,1-1.082,2.8" transform="translate(58.554 4.292)" fill="#fddb22"/>
            <path id="Trazado_643351" data-name="Trazado 643351" d="M378.928,32.919l-2.458-.95a1.5,1.5,0,1,1,1.082-2.8l2.458.95a1.5,1.5,0,1,1-1.082,2.8" transform="translate(59.335 4.594)" fill="#fddb22"/>
            <path id="Trazado_643352" data-name="Trazado 643352" d="M383.836,34.815l-2.458-.95a1.5,1.5,0,1,1,1.082-2.8l2.458.95a1.5,1.5,0,1,1-1.082,2.8" transform="translate(60.111 4.893)" fill="#fddb22"/>
            <path id="Trazado_643353" data-name="Trazado 643353" d="M388.783,36.726l-2.458-.95a1.505,1.505,0,0,1-.859-1.94h0a1.507,1.507,0,0,1,1.941-.859l2.458.95a1.5,1.5,0,1,1-1.082,2.8" transform="translate(60.893 5.195)" fill="#fddb22"/>
            <path id="Trazado_643354" data-name="Trazado 643354" d="M373.012,33.642l-2.458-.95a1.507,1.507,0,0,1-.859-1.941h0a1.5,1.5,0,0,1,1.94-.859l2.459.95a1.5,1.5,0,0,1-1.082,2.8" transform="translate(58.401 4.708)" fill="#fddb22"/>
            <path id="Trazado_643355" data-name="Trazado 643355" d="M377.96,35.553,375.5,34.6a1.5,1.5,0,0,1,1.082-2.8l2.458.95a1.5,1.5,0,0,1-1.082,2.8" transform="translate(59.182 5.01)" fill="#fddb22"/>
            <path id="Trazado_643356" data-name="Trazado 643356" d="M382.868,37.449l-2.458-.95a1.5,1.5,0,1,1,1.082-2.8l2.458.95a1.5,1.5,0,1,1-1.082,2.8" transform="translate(59.958 5.309)" fill="#fddb22"/>
            <path id="Trazado_643357" data-name="Trazado 643357" d="M387.816,39.36l-2.458-.95a1.5,1.5,0,1,1,1.082-2.8l2.458.95a1.5,1.5,0,1,1-1.082,2.8" transform="translate(60.74 5.611)" fill="#fddb22"/>
            <path id="Trazado_643358" data-name="Trazado 643358" d="M375.1,28.406l-2.434-.94a1.487,1.487,0,1,1,1.071-2.773l2.434.94a1.487,1.487,0,0,1-1.071,2.773" transform="translate(58.735 3.886)" fill="#fddb22"/>
            <path id="Trazado_643359" data-name="Trazado 643359" d="M380,30.3l-2.434-.94a1.486,1.486,0,0,1,1.07-2.773l2.435.94A1.487,1.487,0,0,1,380,30.3" transform="translate(59.51 4.185)" fill="#fddb22"/>
            <path id="Trazado_643360" data-name="Trazado 643360" d="M384.86,32.177l-2.434-.94a1.486,1.486,0,0,1,1.07-2.773l2.435.94a1.487,1.487,0,1,1-1.071,2.773" transform="translate(60.278 4.482)" fill="#fddb22"/>
            <path id="Trazado_643361" data-name="Trazado 643361" d="M389.76,34.07l-2.434-.94a1.487,1.487,0,1,1,1.071-2.773l2.434.94a1.487,1.487,0,1,1-1.071,2.773" transform="translate(61.052 4.781)" fill="#fddb22"/>
            <path id="Trazado_643362" data-name="Trazado 643362" d="M376.155,25.885l-2.352-.908a1.457,1.457,0,1,1,1.05-2.718l2.351.908a1.457,1.457,0,1,1-1.049,2.718" transform="translate(58.918 3.502)" fill="#fddb22"/>
            <path id="Trazado_643363" data-name="Trazado 643363" d="M380.925,27.728l-2.352-.908a1.457,1.457,0,1,1,1.05-2.718l2.351.908a1.457,1.457,0,1,1-1.049,2.718" transform="translate(59.672 3.793)" fill="#fddb22"/>
            <path id="Trazado_643364" data-name="Trazado 643364" d="M385.658,29.555l-2.352-.908a1.457,1.457,0,0,1,1.05-2.718l2.351.908a1.457,1.457,0,1,1-1.049,2.718" transform="translate(60.42 4.082)" fill="#fddb22"/>
            <path id="Trazado_643365" data-name="Trazado 643365" d="M390.428,31.4l-2.352-.908a1.457,1.457,0,0,1,1.05-2.718l2.351.908a1.457,1.457,0,1,1-1.049,2.718" transform="translate(61.174 4.373)" fill="#fddb22"/>
            <path id="Trazado_643366" data-name="Trazado 643366" d="M377.333,23.461l-2.252-.87a1.4,1.4,0,1,1,1.005-2.6l2.252.87a1.4,1.4,0,1,1-1.005,2.6" transform="translate(59.126 3.144)" fill="#fddb22"/>
            <path id="Trazado_643367" data-name="Trazado 643367" d="M381.9,25.225l-2.252-.87a1.4,1.4,0,1,1,1.005-2.6l2.252.87a1.4,1.4,0,0,1-1.005,2.6" transform="translate(59.848 3.422)" fill="#fddb22"/>
            <path id="Trazado_643368" data-name="Trazado 643368" d="M386.436,26.976l-2.253-.87a1.4,1.4,0,1,1,1.005-2.6l2.252.87a1.4,1.4,0,0,1-1,2.6" transform="translate(60.565 3.699)" fill="#fddb22"/>
            <path id="Trazado_643369" data-name="Trazado 643369" d="M391.005,28.741l-2.253-.87a1.4,1.4,0,1,1,1.005-2.6l2.252.87a1.4,1.4,0,0,1-1,2.6" transform="translate(61.287 3.978)" fill="#fddb22"/>
            <path id="Trazado_643370" data-name="Trazado 643370" d="M378.515,21.155l-2.133-.823a1.321,1.321,0,0,1,.952-2.465l2.133.823a1.321,1.321,0,1,1-.952,2.465" transform="translate(59.34 2.809)" fill="#fddb22"/>
            <path id="Trazado_643371" data-name="Trazado 643371" d="M382.842,22.827,380.709,22a1.321,1.321,0,0,1,.952-2.465l2.133.823a1.321,1.321,0,0,1-.952,2.465" transform="translate(60.023 3.073)" fill="#fddb22"/>
            <path id="Trazado_643372" data-name="Trazado 643372" d="M387.135,24.485,385,23.661a1.321,1.321,0,0,1,.952-2.465l2.133.823a1.321,1.321,0,0,1-.952,2.465" transform="translate(60.702 3.335)" fill="#fddb22"/>
            <path id="Trazado_643373" data-name="Trazado 643373" d="M391.462,26.156l-2.133-.825a1.321,1.321,0,0,1,.952-2.464l2.133.823a1.321,1.321,0,0,1-.952,2.465" transform="translate(61.385 3.6)" fill="#fddb22"/>
            <path id="Trazado_643374" data-name="Trazado 643374" d="M379.486,18.886l-2.04-.787a1.264,1.264,0,1,1,.911-2.359l2.039.789a1.264,1.264,0,1,1-.91,2.358" transform="translate(59.513 2.474)" fill="#fddb22"/>
            <path id="Trazado_643375" data-name="Trazado 643375" d="M383.625,20.485l-2.042-.789a1.264,1.264,0,1,1,.911-2.358l2.039.789a1.263,1.263,0,0,1-.909,2.358" transform="translate(60.167 2.727)" fill="#fddb22"/>
            <path id="Trazado_643376" data-name="Trazado 643376" d="M387.731,22.071l-2.04-.787a1.264,1.264,0,1,1,.911-2.359l2.039.789a1.264,1.264,0,1,1-.91,2.358" transform="translate(60.816 2.977)" fill="#fddb22"/>
            <path id="Trazado_643377" data-name="Trazado 643377" d="M391.869,23.669l-2.04-.787a1.264,1.264,0,1,1,.911-2.359l2.039.789a1.264,1.264,0,0,1-.91,2.358" transform="translate(61.47 3.23)" fill="#fddb22"/>
            <path id="Trazado_643378" data-name="Trazado 643378" d="M380.578,16.781l-1.927-.745a1.194,1.194,0,1,1,.86-2.227l1.927.745a1.194,1.194,0,0,1-.86,2.227" transform="translate(59.711 2.17)" fill="#fddb22"/>
            <path id="Trazado_643379" data-name="Trazado 643379" d="M384.488,18.291l-1.927-.745a1.194,1.194,0,1,1,.86-2.227l1.927.743a1.194,1.194,0,0,1-.86,2.228" transform="translate(60.329 2.408)" fill="#fddb22"/>
            <path id="Trazado_643380" data-name="Trazado 643380" d="M388.367,19.789l-1.927-.745a1.193,1.193,0,1,1,.859-2.227l1.928.745a1.194,1.194,0,1,1-.86,2.227" transform="translate(60.942 2.645)" fill="#fddb22"/>
            <path id="Trazado_643381" data-name="Trazado 643381" d="M392.276,21.3l-1.927-.745a1.194,1.194,0,1,1,.86-2.227l1.927.743a1.194,1.194,0,0,1-.86,2.228" transform="translate(61.559 2.884)" fill="#fddb22"/>
            <path id="Trazado_643382" data-name="Trazado 643382" d="M381.743,14.862l-1.8-.694a1.113,1.113,0,1,1,.8-2.075l1.794.694a1.112,1.112,0,0,1-.8,2.075" transform="translate(59.924 1.899)" fill="#fddb22"/>
            <path id="Trazado_643383" data-name="Trazado 643383" d="M385.385,16.269l-1.795-.694a1.112,1.112,0,1,1,.8-2.075l1.795.694a1.112,1.112,0,1,1-.8,2.075" transform="translate(60.499 2.122)" fill="#fddb22"/>
            <path id="Trazado_643384" data-name="Trazado 643384" d="M389,17.665l-1.8-.694a1.112,1.112,0,1,1,.8-2.075l1.795.694a1.112,1.112,0,0,1-.8,2.075" transform="translate(61.071 2.342)" fill="#fddb22"/>
            <path id="Trazado_643385" data-name="Trazado 643385" d="M392.641,19.072l-1.8-.694a1.112,1.112,0,1,1,.8-2.075l1.795.694a1.112,1.112,0,1,1-.8,2.075" transform="translate(61.646 2.565)" fill="#fddb22"/>
            <path id="Trazado_643386" data-name="Trazado 643386" d="M382.77,13.072l-1.661-.642a1.032,1.032,0,0,1-.589-1.329h0a1.031,1.031,0,0,1,1.329-.589l1.661.642a1.028,1.028,0,1,1-.741,1.919" transform="translate(60.116 1.65)" fill="#fddb22"/>
            <path id="Trazado_643387" data-name="Trazado 643387" d="M386.138,14.373l-1.661-.642a1.028,1.028,0,0,1,.741-1.919l1.661.642a1.028,1.028,0,1,1-.741,1.919" transform="translate(60.648 1.856)" fill="#fddb22"/>
            <path id="Trazado_643388" data-name="Trazado 643388" d="M389.48,15.664l-1.661-.642a1.028,1.028,0,1,1,.741-1.919l1.661.642a1.028,1.028,0,1,1-.741,1.919" transform="translate(61.176 2.06)" fill="#fddb22"/>
            <path id="Trazado_643389" data-name="Trazado 643389" d="M392.848,16.965l-1.661-.642a1.028,1.028,0,0,1,.741-1.919l1.661.642a1.028,1.028,0,1,1-.741,1.919" transform="translate(61.709 2.265)" fill="#fddb22"/>
            <path id="Trazado_643390" data-name="Trazado 643390" d="M383.789,11.409l-1.5-.58a.93.93,0,1,1,.671-1.736l1.5.58a.93.93,0,1,1-.67,1.736" transform="translate(60.312 1.427)" fill="#fddb22"/>
            <path id="Trazado_643391" data-name="Trazado 643391" d="M386.837,12.586l-1.5-.58a.93.93,0,1,1,.671-1.736l1.5.58a.93.93,0,0,1-.671,1.736" transform="translate(60.794 1.613)" fill="#fddb22"/>
            <path id="Trazado_643392" data-name="Trazado 643392" d="M389.86,13.754l-1.5-.58a.93.93,0,1,1,.67-1.736l1.5.58a.93.93,0,1,1-.671,1.736" transform="translate(61.271 1.798)" fill="#fddb22"/>
            <path id="Trazado_643393" data-name="Trazado 643393" d="M392.907,14.931l-1.5-.58a.93.93,0,1,1,.671-1.736l1.5.58a.93.93,0,1,1-.671,1.736" transform="translate(61.753 1.984)" fill="#fddb22"/>
            <path id="Trazado_643394" data-name="Trazado 643394" d="M384.846,9.918,383.5,9.4a.832.832,0,1,1,.6-1.552l1.343.519a.832.832,0,0,1-.6,1.552" transform="translate(60.514 1.231)" fill="#fddb22"/>
            <path id="Trazado_643395" data-name="Trazado 643395" d="M387.57,10.97l-1.343-.519a.832.832,0,0,1,.6-1.552l1.343.519a.832.832,0,1,1-.6,1.552" transform="translate(60.945 1.398)" fill="#fddb22"/>
            <path id="Trazado_643396" data-name="Trazado 643396" d="M390.273,12.014,388.93,11.5a.832.832,0,0,1,.6-1.552l1.343.519a.832.832,0,1,1-.6,1.552" transform="translate(61.372 1.563)" fill="#fddb22"/>
            <path id="Trazado_643397" data-name="Trazado 643397" d="M393,13.067l-1.343-.519a.832.832,0,0,1,.6-1.552l1.343.519a.832.832,0,1,1-.6,1.552" transform="translate(61.802 1.729)" fill="#fddb22"/>
            <path id="Trazado_643398" data-name="Trazado 643398" d="M386.132,8.733l-1.078-.416a.668.668,0,0,1,.482-1.246l1.077.417a.667.667,0,0,1-.481,1.245" transform="translate(60.776 1.111)" fill="#fddb22"/>
            <path id="Trazado_643399" data-name="Trazado 643399" d="M388.317,9.578l-1.077-.416a.668.668,0,0,1,.481-1.246l1.077.417a.667.667,0,0,1-.481,1.245" transform="translate(61.121 1.244)" fill="#fddb22"/>
            <path id="Trazado_643400" data-name="Trazado 643400" d="M390.486,10.415,389.408,10a.668.668,0,0,1,.482-1.246l1.077.417a.667.667,0,0,1-.481,1.245" transform="translate(61.464 1.376)" fill="#fddb22"/>
            <path id="Trazado_643401" data-name="Trazado 643401" d="M392.672,11.259l-1.077-.416a.668.668,0,0,1,.481-1.246l1.077.417a.667.667,0,0,1-.481,1.245" transform="translate(61.809 1.51)" fill="#fddb22"/>
            <path id="Trazado_643402" data-name="Trazado 643402" d="M386.978,7.705l-.891-.344a.551.551,0,0,1,.4-1.028l.891.344a.551.551,0,1,1-.4,1.028" transform="translate(60.951 0.995)" fill="#fddb22"/>
            <path id="Trazado_643403" data-name="Trazado 643403" d="M388.784,8.4l-.891-.344a.551.551,0,0,1,.4-1.028l.891.344a.551.551,0,1,1-.4,1.028" transform="translate(61.236 1.105)" fill="#fddb22"/>
            <path id="Trazado_643404" data-name="Trazado 643404" d="M390.575,9.1l-.891-.344a.551.551,0,0,1,.4-1.028l.891.344a.551.551,0,1,1-.4,1.028" transform="translate(61.519 1.215)" fill="#fddb22"/>
            <path id="Trazado_643405" data-name="Trazado 643405" d="M392.381,9.792l-.89-.344a.551.551,0,0,1,.4-1.028l.89.344a.551.551,0,1,1-.4,1.028" transform="translate(61.805 1.325)" fill="#fddb22"/>
            <path id="Trazado_643406" data-name="Trazado 643406" d="M387.892,6.916l-.632-.244a.391.391,0,1,1,.281-.731l.633.244a.392.392,0,1,1-.283.731" transform="translate(61.152 0.935)" fill="#fddb22"/>
            <path id="Trazado_643407" data-name="Trazado 643407" d="M389.176,7.412l-.632-.244a.392.392,0,1,1,.283-.731l.632.244a.392.392,0,1,1-.283.731" transform="translate(61.355 1.013)" fill="#fddb22"/>
            <path id="Trazado_643408" data-name="Trazado 643408" d="M390.45,7.9l-.632-.244a.392.392,0,1,1,.283-.731l.632.244a.392.392,0,1,1-.283.731" transform="translate(61.556 1.091)" fill="#fddb22"/>
            <path id="Trazado_643409" data-name="Trazado 643409" d="M391.732,8.4l-.633-.244a.392.392,0,1,1,.284-.731l.632.244a.392.392,0,1,1-.283.731" transform="translate(61.759 1.169)" fill="#fddb22"/>
            <path id="Trazado_643410" data-name="Trazado 643410" d="M389.506,6.7l-.632-.244a.391.391,0,1,1,.281-.731l.633.244a.392.392,0,1,1-.283.731" transform="translate(61.407 0.9)" fill="#fddb22"/>
            <path id="Trazado_643411" data-name="Trazado 643411" d="M390.779,7.191l-.632-.244a.391.391,0,1,1,.281-.731l.634.244a.392.392,0,1,1-.283.731" transform="translate(61.608 0.978)" fill="#fddb22"/>
            <path id="Trazado_643412" data-name="Trazado 643412" d="M371.856,36.024l-2.458-.95a1.5,1.5,0,0,0-1.08,2.8l2.457.95a1.5,1.5,0,1,0,1.082-2.8" transform="translate(58.047 5.527)" fill="#fddb22"/>
            <path id="Trazado_643413" data-name="Trazado 643413" d="M376.8,37.935l-2.459-.95a1.5,1.5,0,0,0-1.082,2.8l2.458.95a1.5,1.5,0,0,0,1.082-2.8" transform="translate(58.829 5.828)" fill="#fddb22"/>
            <path id="Trazado_643414" data-name="Trazado 643414" d="M381.712,39.831l-2.458-.95a1.5,1.5,0,0,0-1.08,2.8l2.457.95a1.5,1.5,0,0,0,1.082-2.8" transform="translate(59.604 6.128)" fill="#fddb22"/>
            <path id="Trazado_643415" data-name="Trazado 643415" d="M386.66,41.742l-2.458-.95a1.5,1.5,0,0,0-1.08,2.8l2.457.95a1.5,1.5,0,1,0,1.082-2.8" transform="translate(60.386 6.43)" fill="#fddb22"/>
            <path id="Trazado_643416" data-name="Trazado 643416" d="M372.911,33.424l-2.46-.95a1.5,1.5,0,0,0-1.08,2.8l2.457.95a1.5,1.5,0,0,0,1.083-2.8" transform="translate(58.214 5.116)" fill="#fddb22"/>
            <path id="Trazado_643417" data-name="Trazado 643417" d="M377.858,35.335l-2.458-.95a1.5,1.5,0,0,0-1.081,2.8l2.457.95a1.5,1.5,0,1,0,1.082-2.8" transform="translate(58.995 5.418)" fill="#fddb22"/>
            <path id="Trazado_643418" data-name="Trazado 643418" d="M382.766,37.231l-2.458-.95a1.5,1.5,0,0,0-1.08,2.8l2.457.95a1.5,1.5,0,1,0,1.082-2.8" transform="translate(59.771 5.717)" fill="#fddb22"/>
            <path id="Trazado_643419" data-name="Trazado 643419" d="M387.714,39.141l-2.458-.95a1.5,1.5,0,0,0-1.08,2.8l2.457.95a1.5,1.5,0,1,0,1.082-2.8" transform="translate(60.553 6.019)" fill="#fddb22"/>
            <path id="Trazado_643420" data-name="Trazado 643420" d="M370.935,38.7l-2.434-.94a1.487,1.487,0,0,0-1.071,2.773l2.434.94a1.487,1.487,0,0,0,1.071-2.773" transform="translate(57.908 5.951)" fill="#fddb22"/>
            <path id="Trazado_643421" data-name="Trazado 643421" d="M375.836,40.593l-2.434-.94a1.487,1.487,0,1,0-1.071,2.773l2.434.94a1.487,1.487,0,1,0,1.071-2.773" transform="translate(58.683 6.25)" fill="#fddb22"/>
            <path id="Trazado_643422" data-name="Trazado 643422" d="M380.7,42.471l-2.435-.94a1.486,1.486,0,0,0-1.07,2.773l2.434.94a1.487,1.487,0,0,0,1.071-2.773" transform="translate(59.451 6.547)" fill="#fddb22"/>
            <path id="Trazado_643423" data-name="Trazado 643423" d="M385.6,44.364l-2.435-.94a1.487,1.487,0,0,0-1.071,2.773l2.435.94a1.487,1.487,0,1,0,1.071-2.773" transform="translate(60.225 6.846)" fill="#fddb22"/>
            <path id="Trazado_643424" data-name="Trazado 643424" d="M370.025,41.273l-2.352-.908a1.457,1.457,0,1,0-1.049,2.718l2.351.908a1.457,1.457,0,0,0,1.05-2.718" transform="translate(57.784 6.363)" fill="#fddb22"/>
            <path id="Trazado_643425" data-name="Trazado 643425" d="M374.8,43.115l-2.352-.908a1.457,1.457,0,0,0-1.049,2.718l2.352.908a1.457,1.457,0,0,0,1.049-2.718" transform="translate(58.538 6.654)" fill="#fddb22"/>
            <path id="Trazado_643426" data-name="Trazado 643426" d="M379.527,44.943l-2.352-.908a1.457,1.457,0,0,0-1.049,2.718l2.352.908a1.457,1.457,0,0,0,1.049-2.718" transform="translate(59.285 6.943)" fill="#fddb22"/>
            <path id="Trazado_643427" data-name="Trazado 643427" d="M384.3,46.786l-2.352-.908A1.457,1.457,0,0,0,380.9,48.6l2.352.908a1.457,1.457,0,0,0,1.049-2.718" transform="translate(60.039 7.234)" fill="#fddb22"/>
            <path id="Trazado_643428" data-name="Trazado 643428" d="M369.27,43.851l-2.252-.87a1.4,1.4,0,1,0-1.005,2.6l2.252.87a1.4,1.4,0,1,0,1.005-2.6" transform="translate(57.694 6.777)" fill="#fddb22"/>
            <path id="Trazado_643429" data-name="Trazado 643429" d="M373.839,45.616l-2.252-.87a1.4,1.4,0,1,0-1.005,2.6l2.252.87a1.4,1.4,0,1,0,1.005-2.6" transform="translate(58.416 7.056)" fill="#fddb22"/>
            <path id="Trazado_643430" data-name="Trazado 643430" d="M378.372,47.367l-2.252-.87a1.4,1.4,0,0,0-1.005,2.6l2.252.87a1.4,1.4,0,1,0,1.005-2.6" transform="translate(59.132 7.333)" fill="#fddb22"/>
            <path id="Trazado_643431" data-name="Trazado 643431" d="M382.942,49.132l-2.252-.87a1.4,1.4,0,1,0-1.005,2.6l2.252.87a1.4,1.4,0,1,0,1.005-2.6" transform="translate(59.854 7.611)" fill="#fddb22"/>
            <path id="Trazado_643432" data-name="Trazado 643432" d="M368.6,46.342l-2.133-.823a1.321,1.321,0,1,0-.952,2.464l2.132.825a1.322,1.322,0,0,0,.953-2.465" transform="translate(57.623 7.179)" fill="#fddb22"/>
            <path id="Trazado_643433" data-name="Trazado 643433" d="M372.927,48.013l-2.133-.823a1.321,1.321,0,0,0-.952,2.464l2.133.825a1.321,1.321,0,0,0,.952-2.465" transform="translate(58.306 7.443)" fill="#fddb22"/>
            <path id="Trazado_643434" data-name="Trazado 643434" d="M377.22,49.671l-2.133-.823a1.321,1.321,0,0,0-.952,2.464l2.133.824a1.325,1.325,0,0,0,1.708-.756h0a1.325,1.325,0,0,0-.756-1.708" transform="translate(58.985 7.705)" fill="#fddb22"/>
            <path id="Trazado_643435" data-name="Trazado 643435" d="M381.547,51.342l-2.133-.823a1.321,1.321,0,1,0-.952,2.464l2.133.825a1.321,1.321,0,0,0,.952-2.465" transform="translate(59.668 7.969)" fill="#fddb22"/>
            <path id="Trazado_643436" data-name="Trazado 643436" d="M367.8,48.666l-2.04-.787a1.264,1.264,0,1,0-.91,2.358l2.039.787a1.264,1.264,0,1,0,.911-2.358" transform="translate(57.523 7.552)" fill="#fddb22"/>
            <path id="Trazado_643437" data-name="Trazado 643437" d="M371.935,50.264l-2.04-.787a1.264,1.264,0,1,0-.91,2.358l2.04.787a1.264,1.264,0,0,0,.91-2.358" transform="translate(58.176 7.805)" fill="#fddb22"/>
            <path id="Trazado_643438" data-name="Trazado 643438" d="M376.042,51.85,374,51.063a1.264,1.264,0,1,0-.91,2.358l2.04.787a1.264,1.264,0,0,0,.91-2.358" transform="translate(58.825 8.055)" fill="#fddb22"/>
            <path id="Trazado_643439" data-name="Trazado 643439" d="M380.18,53.449l-2.04-.787a1.264,1.264,0,1,0-.91,2.358l2.04.787a1.264,1.264,0,1,0,.91-2.358" transform="translate(59.479 8.308)" fill="#fddb22"/>
            <path id="Trazado_643440" data-name="Trazado 643440" d="M367.2,50.948l-1.927-.745a1.194,1.194,0,1,0-.86,2.228l1.927.745a1.194,1.194,0,0,0,.86-2.228" transform="translate(57.46 7.92)" fill="#fddb22"/>
            <path id="Trazado_643441" data-name="Trazado 643441" d="M371.106,52.458l-1.927-.745a1.194,1.194,0,1,0-.86,2.228l1.927.745a1.194,1.194,0,0,0,.86-2.228" transform="translate(58.078 8.159)" fill="#fddb22"/>
            <path id="Trazado_643442" data-name="Trazado 643442" d="M374.984,53.956l-1.927-.745a1.2,1.2,0,0,0-1.544.683h0a1.2,1.2,0,0,0,.684,1.544l1.927.745a1.194,1.194,0,0,0,.86-2.228" transform="translate(58.691 8.396)" fill="#fddb22"/>
            <path id="Trazado_643443" data-name="Trazado 643443" d="M378.894,55.466l-1.927-.745a1.194,1.194,0,0,0-.86,2.228l1.927.745a1.194,1.194,0,0,0,.86-2.228" transform="translate(59.309 8.634)" fill="#fddb22"/>
            <path id="Trazado_643444" data-name="Trazado 643444" d="M366.771,53.141l-1.8-.694a1.112,1.112,0,0,0-.8,2.075l1.8.694a1.112,1.112,0,1,0,.8-2.075" transform="translate(57.432 8.276)" fill="#fddb22"/>
            <path id="Trazado_643445" data-name="Trazado 643445" d="M370.413,54.548l-1.8-.694a1.112,1.112,0,0,0-.8,2.075l1.8.694a1.112,1.112,0,0,0,.8-2.075" transform="translate(58.007 8.498)" fill="#fddb22"/>
            <path id="Trazado_643446" data-name="Trazado 643446" d="M374.027,55.943l-1.8-.694a1.112,1.112,0,1,0-.8,2.075l1.8.694a1.112,1.112,0,0,0,.8-2.075" transform="translate(58.578 8.718)" fill="#fddb22"/>
            <path id="Trazado_643447" data-name="Trazado 643447" d="M377.67,57.35l-1.8-.694a1.112,1.112,0,1,0-.8,2.075l1.8.694a1.112,1.112,0,1,0,.8-2.075" transform="translate(59.154 8.941)" fill="#fddb22"/>
            <path id="Trazado_643448" data-name="Trazado 643448" d="M366.334,55.144l-1.661-.642a1.028,1.028,0,1,0-.741,1.919l1.661.642a1.028,1.028,0,1,0,.741-1.919" transform="translate(57.402 8.601)" fill="#fddb22"/>
            <path id="Trazado_643449" data-name="Trazado 643449" d="M369.7,56.445l-1.661-.642a1.028,1.028,0,1,0-.741,1.919l1.661.642a1.028,1.028,0,1,0,.741-1.919" transform="translate(57.934 8.807)" fill="#fddb22"/>
            <path id="Trazado_643450" data-name="Trazado 643450" d="M373.044,57.736l-1.661-.642a1.028,1.028,0,1,0-.741,1.919l1.661.642a1.028,1.028,0,1,0,.741-1.919" transform="translate(58.462 9.011)" fill="#fddb22"/>
            <path id="Trazado_643451" data-name="Trazado 643451" d="M376.412,59.037l-1.661-.642a1.028,1.028,0,1,0-.741,1.919l1.661.642a1.028,1.028,0,1,0,.741-1.919" transform="translate(58.994 9.216)" fill="#fddb22"/>
            <path id="Trazado_643452" data-name="Trazado 643452" d="M365.976,57.047l-1.5-.58A.93.93,0,1,0,363.8,58.2l1.5.58a.93.93,0,1,0,.67-1.736" transform="translate(57.391 8.913)" fill="#fddb22"/>
            <path id="Trazado_643453" data-name="Trazado 643453" d="M369.023,58.224l-1.5-.58a.93.93,0,0,0-.671,1.736l1.5.58a.93.93,0,1,0,.67-1.736" transform="translate(57.873 9.099)" fill="#fddb22"/>
            <path id="Trazado_643454" data-name="Trazado 643454" d="M372.047,59.392l-1.5-.58a.93.93,0,1,0-.671,1.736l1.5.58a.93.93,0,1,0,.671-1.736" transform="translate(58.351 9.283)" fill="#fddb22"/>
            <path id="Trazado_643455" data-name="Trazado 643455" d="M375.094,60.569l-1.5-.58a.93.93,0,1,0-.671,1.736l1.5.58a.93.93,0,0,0,.671-1.736" transform="translate(58.832 9.469)" fill="#fddb22"/>
            <path id="Trazado_643456" data-name="Trazado 643456" d="M365.762,58.845l-1.343-.519a.832.832,0,1,0-.6,1.552l1.343.519a.832.832,0,1,0,.6-1.552" transform="translate(57.404 9.208)" fill="#fddb22"/>
            <path id="Trazado_643457" data-name="Trazado 643457" d="M368.486,59.9l-1.343-.519a.832.832,0,1,0-.6,1.552l1.342.519a.832.832,0,0,0,.6-1.552" transform="translate(57.834 9.374)" fill="#fddb22"/>
            <path id="Trazado_643458" data-name="Trazado 643458" d="M371.189,60.941l-1.343-.519a.832.832,0,1,0-.6,1.552l1.342.519a.832.832,0,0,0,.6-1.552" transform="translate(58.261 9.539)" fill="#fddb22"/>
            <path id="Trazado_643459" data-name="Trazado 643459" d="M373.913,61.994l-1.343-.519a.832.832,0,1,0-.6,1.552l1.342.519a.832.832,0,0,0,.6-1.552" transform="translate(58.692 9.705)" fill="#fddb22"/>
            <path id="Trazado_643460" data-name="Trazado 643460" d="M365.927,60.564l-1.078-.416a.669.669,0,0,0-.863.381h0a.669.669,0,0,0,.382.863l1.078.416a.667.667,0,0,0,.481-1.245" transform="translate(57.507 9.497)" fill="#fddb22"/>
            <path id="Trazado_643461" data-name="Trazado 643461" d="M368.112,61.408l-1.078-.416a.669.669,0,0,0-.863.381h0a.669.669,0,0,0,.382.863l1.078.416a.667.667,0,1,0,.481-1.245" transform="translate(57.853 9.631)" fill="#fddb22"/>
            <path id="Trazado_643462" data-name="Trazado 643462" d="M370.281,62.246,369.2,61.83a.667.667,0,0,0-.481,1.245l1.078.416a.667.667,0,1,0,.481-1.245" transform="translate(58.195 9.763)" fill="#fddb22"/>
            <path id="Trazado_643463" data-name="Trazado 643463" d="M372.466,63.09l-1.077-.416a.667.667,0,1,0-.482,1.245l1.078.416a.667.667,0,1,0,.481-1.245" transform="translate(58.541 9.896)" fill="#fddb22"/>
            <path id="Trazado_643464" data-name="Trazado 643464" d="M365.869,61.876l-.892-.344a.552.552,0,0,0-.712.316h0a.553.553,0,0,0,.316.712l.891.344a.551.551,0,0,0,.4-1.028" transform="translate(57.552 9.717)" fill="#fddb22"/>
            <path id="Trazado_643465" data-name="Trazado 643465" d="M367.674,62.574l-.891-.344a.552.552,0,1,0-.4,1.029l.89.343a.551.551,0,0,0,.712-.315h0a.554.554,0,0,0-.316-.713" transform="translate(57.838 9.827)" fill="#fddb22"/>
            <path id="Trazado_643466" data-name="Trazado 643466" d="M369.466,63.266l-.891-.344a.552.552,0,1,0-.4,1.029l.891.343a.551.551,0,1,0,.4-1.028" transform="translate(58.121 9.937)" fill="#fddb22"/>
            <path id="Trazado_643467" data-name="Trazado 643467" d="M371.271,63.963l-.89-.344a.552.552,0,0,0-.712.316h0a.555.555,0,0,0,.316.713l.891.343a.551.551,0,1,0,.4-1.028" transform="translate(58.406 10.047)" fill="#fddb22"/>
            <path id="Trazado_643468" data-name="Trazado 643468" d="M366.024,63.053l-.632-.244a.392.392,0,1,0-.283.731l.632.244a.392.392,0,1,0,.283-.731" transform="translate(57.652 9.921)" fill="#fddb22"/>
            <path id="Trazado_643469" data-name="Trazado 643469" d="M367.308,63.548l-.632-.244a.392.392,0,1,0-.283.731l.632.244a.392.392,0,1,0,.283-.731" transform="translate(57.855 9.999)" fill="#fddb22"/>
            <path id="Trazado_643470" data-name="Trazado 643470" d="M368.581,64.04l-.632-.244a.392.392,0,1,0-.283.731l.632.244a.392.392,0,1,0,.283-.731" transform="translate(58.056 10.076)" fill="#fddb22"/>
            <path id="Trazado_643471" data-name="Trazado 643471" d="M369.864,64.536l-.632-.244a.392.392,0,1,0-.283.731l.632.244a.392.392,0,1,0,.283-.731" transform="translate(58.259 10.155)" fill="#fddb22"/>
            <path id="Trazado_643472" data-name="Trazado 643472" d="M367.073,64.3l-.632-.244a.392.392,0,1,0-.283.731l.632.244a.392.392,0,1,0,.283-.731" transform="translate(57.818 10.117)" fill="#fddb22"/>
            <path id="Trazado_643473" data-name="Trazado 643473" d="M368.346,64.79l-.632-.244a.392.392,0,1,0-.283.731l.632.244a.392.392,0,1,0,.283-.731" transform="translate(58.019 10.195)" fill="#fddb22"/>
            <path id="Trazado_643474" data-name="Trazado 643474" d="M365.7,67.445s5.243.446,7.853-3.68,3.428-11.651,8.786-14.715,5.508-1.259,7.949-1.444,2.853-.815,3.717-2.908-.053,2.476-1.263,3.271-4.347-.135-7.9,7.012-2.586,11.807-7.021,13.648-11.8-.27-12.122-1.185" transform="translate(57.784 6.977)" fill="#78b639"/>
            <path id="Trazado_643475" data-name="Trazado 643475" d="M364.075,53.487s7.789-12.28,7.91-12.74.255-6.5.255-6.5l-1.757-4.067-4.749-3.918-2.751-4.123s-1.149,2.827,1.861,6.281,3.186,6.8.364,12.643-4.85,12.018-5.333,15.288Z" transform="translate(56.865 3.498)" fill="#acd680"/>
            <path id="Trazado_643476" data-name="Trazado 643476" d="M374.452,72.838S369.8,70.871,370.7,64s2.3-12.37,2.9-17.723,2.006-12.934-2.711-16.787-7.558-5.992-7.833-7.326-.753,4.431,5.792,7.932-3.906,12.159-7.11,20.455-3.142,14.414.542,17.584,6.669,4.494,12.174,4.7" transform="translate(56.793 3.471)" fill="#78b639"/>
            <g id="Grupo_1005091" data-name="Grupo 1005091" transform="translate(436.585 9.694)" opacity="0.3">
              <g id="Grupo_1005090" data-name="Grupo 1005090">
                <g id="Grupo_1005089" data-name="Grupo 1005089" clip-path="url(#clip-path-8)">
                  <path id="Trazado_643477" data-name="Trazado 643477" d="M389.386,8.914s-10.868,3.764-12.306,13.535,20.579-18.27,12.306-13.535" transform="translate(-377.012 -8.371)" fill="#fff"/>
                </g>
              </g>
            </g>
            <path id="Trazado_643478" data-name="Trazado 643478" d="M268.916,22.389S272.407,4.63,270.488.44,264.2,23.345,264.2,23.345Z" transform="translate(41.747 0)" fill="#518d23"/>
            <path id="Trazado_643479" data-name="Trazado 643479" d="M263.1,24.3s5.7-11.238,10.016-13.109-5.428,15-5.428,15Z" transform="translate(41.573 1.746)" fill="#6a9c31"/>
            <path id="Trazado_643480" data-name="Trazado 643480" d="M265.852,24.278s1.089-9.491-.588-12.083-2.66,12.012-2.66,12.012Z" transform="translate(41.495 1.878)" fill="#78b639"/>
            <path id="Trazado_643481" data-name="Trazado 643481" d="M258.372,25.97s4.925-2.118,4.573-4.614,1.694,1.386,1.694,1.386a10.187,10.187,0,0,0,2.044-1.914c.669-.917.206,1.465.338,2.4s2.991-.423,2.991-.423-2.2,4.469-1.182,6.258-10.458-3.094-10.458-3.094" transform="translate(40.826 3.243)" fill="#f4a519"/>
            <path id="Trazado_643482" data-name="Trazado 643482" d="M245.651,56.573a11.224,11.224,0,0,1-2.8.374c-.648-.146-.2,1.363.808,1.108s1.573.107,1.1.959-1.341,3.674-.354,2.163,1.939-2.555,1.662-1.34.448,2.051-.215,2.886.856.6,1.254-.5,2.262-.748,1.68.337-.6,2.143-.215,2.317.356-1.277.867-1.927,2.381-1.38,2.021.381,1.716,1.027,1.716,1.027-.749-.866-.483-1.516a2.607,2.607,0,0,0,.074-1.421Z" transform="translate(38.325 8.939)" fill="#ef9513"/>
            <path id="Trazado_643483" data-name="Trazado 643483" d="M281.585,52.764c-3,11.208-15.111,17.7-27.044,14.505S235.37,52.394,238.374,41.185s15.111-17.7,27.043-14.505,19.171,14.876,16.168,26.084" transform="translate(37.559 4.087)" fill="#ef9513"/>
            <path id="Trazado_643484" data-name="Trazado 643484" d="M280.353,50.727c-3,11.208-14.839,17.775-26.435,14.669s-18.562-14.713-15.559-25.921S253.2,21.7,264.794,24.806s18.562,14.713,15.559,25.921" transform="translate(37.553 3.798)" fill="#f4a519"/>
            <path id="Trazado_643485" data-name="Trazado 643485" d="M276.561,40.811c0,9.264-8.023,16.775-17.92,16.775s-17.92-7.511-17.92-16.775,8.024-16.775,17.92-16.775,17.92,7.511,17.92,16.775" transform="translate(38.037 3.798)" fill="#f4b418"/>
            <g id="Grupo_1005094" data-name="Grupo 1005094" transform="translate(278.004 29.949)" opacity="0.7">
              <g id="Grupo_1005093" data-name="Grupo 1005093">
                <g id="Grupo_1005092" data-name="Grupo 1005092" clip-path="url(#clip-path-9)">
                  <path id="Trazado_643486" data-name="Trazado 643486" d="M256.659,25.865a13.95,13.95,0,0,0-1.635.251c-.514.107-1.135.251-1.831.469a20.908,20.908,0,0,0-2.284.862,11.807,11.807,0,0,0-1.247.614,12.452,12.452,0,0,0-1.271.764,18.083,18.083,0,0,0-2.48,2c-.4.378-.755.819-1.143,1.232-.354.442-.68.918-1.026,1.383l-.882,1.51c-.236.5-.484,1.086-.726,1.627-.207.55-.372,1.1-.563,1.65-.154.563-.269,1.142-.4,1.706-.1.573-.168,1.149-.254,1.714-.058.569-.079,1.135-.119,1.691-.023,1.114-.02,2.193.044,3.218s.176,1.991.313,2.878a41.913,41.913,0,0,0,.863,4.264c.265,1.019.452,1.595.452,1.595s-.256-.548-.607-1.547c-.176-.5-.375-1.111-.577-1.82s-.416-1.516-.592-2.409-.335-1.868-.455-2.908c-.043-.521-.109-1.056-.135-1.605s-.035-1.113-.025-1.686c.032-.572.045-1.156.1-1.744.078-.586.134-1.182.234-1.779.131-.591.24-1.189.394-1.786.192-.588.366-1.2.58-1.773.259-.556.485-1.077.772-1.659q.478-.787.95-1.568c.369-.482.718-.974,1.1-1.431.413-.43.79-.884,1.217-1.271a15.068,15.068,0,0,1,2.658-1.989,12.7,12.7,0,0,1,1.35-.726,12.181,12.181,0,0,1,1.31-.571,15.68,15.68,0,0,1,2.383-.728c.723-.166,1.361-.263,1.885-.33a10.97,10.97,0,0,1,1.661-.093" transform="translate(-240.07 -25.862)" fill="#f6e821"/>
                  <path id="Trazado_643487" data-name="Trazado 643487" d="M259.99,26.563s-.623.131-1.69.439c-.533.153-1.178.345-1.9.609q-.547.186-1.148.434c-.4.156-.824.321-1.253.52-.437.183-.882.389-1.333.626a15.17,15.17,0,0,0-1.379.754,14.381,14.381,0,0,0-1.392.893,16.706,16.706,0,0,0-1.375,1.033,15.224,15.224,0,0,0-2.483,2.566c-.36.488-.655,1.025-.988,1.538-.239.56-.513,1.12-.726,1.681a19.047,19.047,0,0,0-.931,3.6,20.337,20.337,0,0,0-.261,3.594,32.8,32.8,0,0,0,.208,3.386c.111,1.077.287,2.089.459,3.021.36,1.862.706,3.411.976,4.49s.418,1.7.418,1.7-.219-.6-.573-1.652c-.335-1.061-.842-2.573-1.278-4.437-.215-.932-.439-1.948-.6-3.037a23.724,23.724,0,0,1-.328-3.456,21,21,0,0,1,.214-3.723,19.648,19.648,0,0,1,.91-3.744c.244-.623.54-1.2.808-1.8.36-.543.686-1.111,1.075-1.621a15.943,15.943,0,0,1,2.647-2.66,12.91,12.91,0,0,1,1.452-1.039,14.761,14.761,0,0,1,1.474-.855,15.632,15.632,0,0,1,1.444-.708c.47-.221.933-.411,1.384-.578a21.792,21.792,0,0,1,2.486-.815c.749-.213,1.412-.359,1.957-.472,1.093-.223,1.728-.283,1.728-.283" transform="translate(-239.702 -25.752)" fill="#f6e821"/>
                  <path id="Trazado_643488" data-name="Trazado 643488" d="M262.306,27.476s-.647.152-1.749.507a32.391,32.391,0,0,0-4.419,1.806,26.881,26.881,0,0,0-2.75,1.581c-.462.32-.923.666-1.4,1.014-.434.395-.919.752-1.356,1.175a15.138,15.138,0,0,0-2.384,2.865l-.506.808c-.148.283-.271.579-.408.869s-.283.587-.389.867l-.323.939a19.4,19.4,0,0,0-.827,3.762,22.534,22.534,0,0,0-.047,3.755,33.525,33.525,0,0,0,.488,3.5c.21,1.109.478,2.146.74,3.1.277.948.532,1.82.779,2.588s.478,1.431.659,1.983c.382,1.1.6,1.721.6,1.721s-.283-.6-.752-1.663c-.445-1.071-1.115-2.593-1.736-4.493-.306-.951-.622-1.987-.885-3.107a24.623,24.623,0,0,1-.613-3.57,23.122,23.122,0,0,1-.006-3.894,19.98,19.98,0,0,1,.814-3.959l.337-.935c.132-.336.288-.623.432-.937s.285-.616.447-.911L247.6,36a15.939,15.939,0,0,1,2.543-2.969c.463-.431.962-.806,1.436-1.188.5-.339.994-.675,1.481-.983a27.884,27.884,0,0,1,2.878-1.494,27.491,27.491,0,0,1,4.574-1.539,17.163,17.163,0,0,1,1.791-.352" transform="translate(-239.299 -25.607)" fill="#f6e821"/>
                  <path id="Trazado_643489" data-name="Trazado 643489" d="M264.363,28.809s.1.56.166,1.554c.044.5.053,1.1.085,1.794-.006.692.032,1.478-.035,2.33q-.035.641-.073,1.333c-.045.459-.093.933-.141,1.421-.073.98-.274,2-.438,3.056-.24,1.043-.431,2.138-.756,3.217s-.624,2.185-1.063,3.245q-.311.8-.621,1.6-.37.771-.737,1.536a24.715,24.715,0,0,1-1.6,2.9,20.748,20.748,0,0,1-1.756,2.544l-.86,1.142-.9.985c-.584.628-1.1,1.221-1.611,1.688l-1.364,1.171-1.2,1,1.086-1.122,1.252-1.268c.466-.506.926-1.136,1.476-1.775l.84-1.012q.382-.566.79-1.167a26.619,26.619,0,0,0,1.619-2.564l.789-1.394c.273-.467.468-.982.715-1.475s.471-1,.709-1.508l.6-1.571c.438-1.034.738-2.118,1.069-3.172s.555-2.121.812-3.144c.176-1.038.437-2.029.555-2.99q.108-.717.211-1.4.071-.679.138-1.311c.1-.842.126-1.617.191-2.3.025-.688.066-1.289.063-1.783.022-.991,0-1.559,0-1.559" transform="translate(-238.27 -25.397)" fill="#f6e821"/>
                  <path id="Trazado_643490" data-name="Trazado 643490" d="M263.458,28.809s-.339.439-1,1.158c-.324.36-.721.8-1.153,1.313s-.906,1.113-1.422,1.757c-.5.659-1.036,1.377-1.547,2.174q-.407.582-.775,1.231c-.248.431-.527.853-.776,1.3-.477.914-1,1.839-1.43,2.834-.221.493-.468.98-.671,1.487L254.1,43.6l-.3.767-.249.784q-.248.783-.5,1.558c-.3,1.038-.537,2.079-.8,3.077-.223,1.007-.386,1.993-.578,2.923-.211.926-.255,1.826-.379,2.646-.088.823-.23,1.575-.259,2.249-.05.674-.094,1.261-.13,1.744-.083.969-.131,1.523-.131,1.523s-.012-.555-.031-1.527c0-.486-.01-1.078-.017-1.757a21.346,21.346,0,0,1,.1-2.277c.081-.831.081-1.744.243-2.69.145-.948.252-1.958.462-2.985.244-1.018.435-2.089.746-3.146q.245-.79.491-1.592l.245-.8.3-.785.614-1.563c.212-.516.469-1.011.7-1.512.441-1.013,1.018-1.939,1.524-2.858.562-.886,1.093-1.754,1.685-2.513.562-.782,1.141-1.482,1.681-2.123s1.068-1.2,1.558-1.671.911-.886,1.266-1.218c.718-.651,1.114-1.045,1.114-1.045" transform="translate(-238.388 -25.397)" fill="#f6e821"/>
                  <path id="Trazado_643491" data-name="Trazado 643491" d="M261.374,28.809s-.486.312-1.316.885-1.991,1.423-3.337,2.493c-.673.536-1.381,1.141-2.1,1.806s-1.439,1.408-2.149,2.2a16.322,16.322,0,0,0-1.9,2.631,11.015,11.015,0,0,0-.7,1.466,16.162,16.162,0,0,0-.475,1.639,22.233,22.233,0,0,0-.534,3.318c-.076,1.116-.14,2.22-.127,3.291s.031,2.11.093,3.093.135,1.913.225,2.77c.185,1.713.357,3.144.512,4.14s.239,1.568.239,1.568-.163-.555-.4-1.538-.557-2.392-.818-4.11c-.133-.857-.263-1.79-.365-2.78s-.195-2.04-.22-3.131a33.643,33.643,0,0,1,.059-3.367,22.794,22.794,0,0,1,.532-3.471,16.967,16.967,0,0,1,.5-1.672c.122-.307.247-.555.371-.833a4.8,4.8,0,0,1,.415-.782l.455-.747.516-.688c.327-.469.726-.863,1.079-1.285a25.068,25.068,0,0,1,2.293-2.164c.768-.64,1.515-1.217,2.22-1.724a40.5,40.5,0,0,1,3.534-2.259c.879-.5,1.4-.748,1.4-.748" transform="translate(-238.82 -25.397)" fill="#f6e821"/>
                  <path id="Trazado_643492" data-name="Trazado 643492" d="M268.832,29.983A17.523,17.523,0,0,1,270,31.389a26.089,26.089,0,0,1,3.85,7.064c.183.547.351,1.116.526,1.7.126.594.274,1.2.361,1.827a15.913,15.913,0,0,1,.09,3.908l-.113,1c-.062.331-.155.658-.232.989s-.148.654-.258,1l-.33.937a20.072,20.072,0,0,1-1.874,3.582,23.242,23.242,0,0,1-2.469,3.012,24.632,24.632,0,0,1-2.733,2.377c-.911.7-1.813,1.3-2.652,1.846-1.681,1.079-3.165,1.833-4.186,2.382-1.035.527-1.634.812-1.634.812l1.554-.953c.489-.312,1.094-.668,1.765-1.117s1.426-.952,2.241-1.511,1.67-1.207,2.534-1.933a33.639,33.639,0,0,0,2.594-2.4,22.528,22.528,0,0,0,2.338-2.938,19.37,19.37,0,0,0,1.741-3.436l.344-.932c.095-.285.164-.615.248-.918s.17-.618.233-.93l.12-.947a15.179,15.179,0,0,0-.034-3.726c-.071-.6-.22-1.188-.308-1.768-.145-.57-.284-1.129-.439-1.669a27.061,27.061,0,0,0-1.129-2.965,32.339,32.339,0,0,0-2.28-4.2c-.628-.972-1.033-1.5-1.033-1.5" transform="translate(-237.182 -25.211)" fill="#f6e821"/>
                  <path id="Trazado_643493" data-name="Trazado 643493" d="M266.882,29.888s.026.14.072.4.167.637.279,1.115.288,1.063.442,1.74c.176.674.309,1.449.453,2.3a27.644,27.644,0,0,1,.246,2.765,23.374,23.374,0,0,1-.068,3.109c-.056.536-.16,1.078-.24,1.628q-.066.413-.132.83l-.223.82c-.154.547-.292,1.1-.464,1.652q-.32.8-.639,1.608l-.329.8-.413.758-.825,1.5c-.593.966-1.295,1.84-1.91,2.724-.7.821-1.422,1.569-2.087,2.3s-1.422,1.281-2.052,1.86a14.333,14.333,0,0,1-1.823,1.458l-1.479,1.023-1.294.875,1.2-1.005,1.381-1.135a20.2,20.2,0,0,0,1.7-1.563c.592-.6,1.3-1.192,1.926-1.93l1.949-2.326c.58-.875,1.224-1.752,1.8-2.688l.785-1.463.395-.736.31-.776.631-1.547c.17-.528.307-1.064.461-1.591l.225-.789c.05-.268.1-.534.148-.8.09-.53.2-1.053.273-1.571a30.026,30.026,0,0,0,.189-3.018c.042-.965-.059-1.875-.1-2.719-.11-.837-.176-1.612-.293-2.292-.1-.682-.212-1.275-.3-1.765s-.157-.88-.167-1.146l-.027-.406" transform="translate(-237.806 -25.226)" fill="#f6e821"/>
                  <path id="Trazado_643494" data-name="Trazado 643494" d="M268.34,31.263s.248.522.612,1.466a40.231,40.231,0,0,1,1.307,3.985c.227.84.44,1.759.629,2.741a24.923,24.923,0,0,1,.406,3.127c.006.55.066,1.108.023,1.678q-.019.427-.036.859l-.12.866a4.8,4.8,0,0,1-.173.867c-.081.294-.14.565-.24.88a17.187,17.187,0,0,1-.671,1.612,22.713,22.713,0,0,1-1.784,3.024,33.668,33.668,0,0,1-2.084,2.646c-.709.828-1.438,1.588-2.15,2.285s-1.4,1.343-2.043,1.922c-1.288,1.165-2.438,2.044-3.233,2.666s-1.28.94-1.28.94l1.177-1.064c.75-.673,1.788-1.672,3.015-2.882.611-.606,1.263-1.274,1.926-2s1.344-1.512,2.029-2.337,1.336-1.716,1.982-2.629A22.135,22.135,0,0,0,269.319,49a16.126,16.126,0,0,0,.668-1.569,10.972,10.972,0,0,0,.382-1.581,16.279,16.279,0,0,0,.195-3.239c-.049-1.062-.135-2.091-.272-3.064s-.3-1.889-.486-2.729c-.366-1.68-.719-3.077-1.008-4.043s-.459-1.517-.459-1.517" transform="translate(-237.315 -25.009)" fill="#f6e821"/>
                </g>
              </g>
            </g>
            <path id="Trazado_643495" data-name="Trazado 643495" d="M177.868,41.6c0,5.495-3.332,9.735-6.924,13.582-4.325,4.63-10.7,5.994-17.819,5.994-6.48,0-12.732-1.471-17-5.4-4.31-3.972-7.484-10.005-7.484-16.092,0-8.14,3.362-15.833,10.449-19.614,3.457-1.844,7.756.86,11.939,0q14.3-2.948,20.72,3c4.27,3.967,6.114,12.478,6.114,18.532" transform="translate(20.328 3.017)" fill="#d82f27"/>
            <path id="Trazado_643496" data-name="Trazado 643496" d="M169.054,37.29c0,4.246-2.573,7.522-5.351,10.5-3.342,3.578-8.271,4.632-13.77,4.632-5.007,0-9.838-1.136-13.134-4.173a17.6,17.6,0,0,1-5.782-12.435c0-6.29,2.6-12.236,8.075-15.158,2.67-1.424,5.994.666,9.226,0q11.054-2.277,16.012,2.317c3.3,3.066,4.725,9.643,4.725,14.321" transform="translate(20.702 3.144)" fill="#e83627"/>
            <path id="Trazado_643497" data-name="Trazado 643497" d="M143.96,23.063s-5.836-3.869-9.562,3.834c-4.008,8.284-2.524,13.134.225,15.544,0,0,3.471,1.471,3.66-1.881s-2.69-6.348-.633-9.522,4.38-.47,6.613-1.764,2.537-3.782-.3-6.212" transform="translate(20.848 3.491)" fill="#f1663b"/>
            <path id="Trazado_643498" data-name="Trazado 643498" d="M148.085,20.118s-8.74-6.373-15.558-3.418,3.919-2.453,13.42,5.776c2.458,2.13-4.25-1.064-8.953,2.271-3.539,2.508-3.6,7.37-2.665,8.545s.051-5.854,5.722-6.979c0,0,7.719-.708,9.777-.263,1.085.234,8.5,2.352,6.054,12.429-.7,2.874,6.879-8.047,1.568-11.663-.791-.54-.186-1.739-.186-1.739s5.7-.563,8.494.918c1.651.875,4.292,3.608,4.762,5.313.417,1.511.192-7.76-10.247-9.8-8.724-1.706,4.859-5.021,9.013-3.554s-9.122-4.544-14.657.39c-4.231,3.774-5.6,2.237-6.544,1.775" transform="translate(20.601 2.515)" fill="#78b639"/>
            <path id="Trazado_643499" data-name="Trazado 643499" d="M148.887,21.258s-2.4-.881-4.457-1.676,3.972,3,1.9,3.409a26.35,26.35,0,0,0-5.671,1.559c-.676.47,6.366-.483,9.958,1.086a12.19,12.19,0,0,1,5.66,3.7c.712.785-.382-2.44-2.116-4.5-1.274-1.51,3.673-1.254,5.731-1.048s-2.7-1.332-4.351-2.978-.793-2.2-.088-2.469-1.969-.646-2.939,1.265-2.065,1.663-3.626,1.646" transform="translate(22.218 2.865)" fill="#518d23"/>
            <path id="Trazado_643500" data-name="Trazado 643500" d="M149.914,23.864c-3.355.406-2.189-2.931-2.15-4.28a24.922,24.922,0,0,0-.835-5.3.071.071,0,0,0,.038,0,3.658,3.658,0,0,0,2.817,0c.418,1.666.742,3.532,1.086,5.209.22,1.07,1.152,4.117-.956,4.37" transform="translate(23.217 2.257)" fill="#7eb341"/>
            <path id="Trazado_643501" data-name="Trazado 643501" d="M149.785,14.329c0,.179-.639.325-1.428.325s-1.428-.146-1.428-.325.639-.325,1.428-.325,1.428.146,1.428.325" transform="translate(23.217 2.213)" fill="#549606"/>
            <path id="Trazado_643502" data-name="Trazado 643502" d="M181.81,79.638s12.657-9.059,20.851-22.031c10.131-16.042,16.37-34.055,16.03-35.622s7.1,2.705,7.95,8.451-1.885,18.328-9.7,29.423-17.561,22-29.048,23.086c-3.381.318-6.085-3.307-6.085-3.307" transform="translate(28.728 3.423)" fill="#7eb341"/>
            <path id="Trazado_643503" data-name="Trazado 643503" d="M169.327,66.918s14.694-5.132,26.206-15.276c14.235-12.545,25.289-28.075,25.4-29.674s6.052,4.594,5.252,10.347S219.223,49.371,208.6,57.82,185.563,73.995,174.237,71.8c-3.335-.645-4.91-4.884-4.91-4.884" transform="translate(26.756 3.431)" fill="#6dac0f"/>
            <path id="Trazado_643504" data-name="Trazado 643504" d="M178.29,72.46a21.371,21.371,0,0,1-4.058-.381c-3.43-.664-5.027-4.862-5.094-5.041l-.087-.236.237-.083c.146-.051,14.783-5.235,26.125-15.229,13.94-12.284,25.209-27.952,25.32-29.5a.467.467,0,0,1,.474-.486c.6,0,1.542,1.006,1.919,1.438,1.855,2.131,3.846,5.882,3.351,9.445-.753,5.416-6.734,16.96-17.676,25.666-7.776,6.187-19.4,14.413-30.511,14.413M169.7,67.1c.382.875,1.911,3.972,4.63,4.5a20.94,20.94,0,0,0,3.963.373c10.957,0,22.486-8.165,30.2-14.307,10.834-8.62,16.752-20.01,17.493-25.345.5-3.635-1.795-7.4-3.234-9.053-.809-.93-1.368-1.268-1.546-1.268-.1,1.673-11.146,17.249-25.467,29.867-10.6,9.345-24.066,14.509-26.043,15.236" transform="translate(26.712 3.397)" fill="#86bb2a"/>
            <path id="Trazado_643505" data-name="Trazado 643505" d="M189.908,58.8a4.516,4.516,0,1,1-4.516-4.516,4.516,4.516,0,0,1,4.516,4.516" transform="translate(28.581 8.577)" fill="#99c021"/>
            <path id="Trazado_643506" data-name="Trazado 643506" d="M198.217,54.845a5.037,5.037,0,1,1-5.036-5.036,5.036,5.036,0,0,1,5.036,5.036" transform="translate(29.729 7.871)" fill="#99c021"/>
            <path id="Trazado_643507" data-name="Trazado 643507" d="M205.084,49.127a5.135,5.135,0,1,1-5.135-5.135,5.134,5.134,0,0,1,5.135,5.135" transform="translate(30.783 6.951)" fill="#99c021"/>
            <path id="Trazado_643508" data-name="Trazado 643508" d="M210.92,42.517a4.938,4.938,0,1,1-4.938-4.939,4.939,4.939,0,0,1,4.938,4.939" transform="translate(31.767 5.938)" fill="#99c021"/>
            <path id="Trazado_643509" data-name="Trazado 643509" d="M215.406,35.435a4.516,4.516,0,1,1-4.516-4.516,4.516,4.516,0,0,1,4.516,4.516" transform="translate(32.609 4.886)" fill="#99c021"/>
            <path id="Trazado_643510" data-name="Trazado 643510" d="M216.229,28.835a2.866,2.866,0,1,1-2.866-2.866,2.866,2.866,0,0,1,2.866,2.866" transform="translate(33.261 4.104)" fill="#99c021"/>
            <path id="Trazado_643511" data-name="Trazado 643511" d="M181.788,61.8a3.346,3.346,0,1,1-3.346-3.345,3.346,3.346,0,0,1,3.346,3.345" transform="translate(27.667 9.236)" fill="#99c021"/>
            <path id="Trazado_643512" data-name="Trazado 643512" d="M190.716,58.357a4.454,4.454,0,1,1-4.453-4.453,4.453,4.453,0,0,1,4.453,4.453" transform="translate(28.728 8.518)" fill="#aad63f"/>
            <g id="Grupo_1005097" data-name="Grupo 1005097" transform="translate(213.637 62.702)" opacity="0.44">
              <g id="Grupo_1005096" data-name="Grupo 1005096">
                <g id="Grupo_1005095" data-name="Grupo 1005095" clip-path="url(#clip-path-10)">
                  <path id="Trazado_643513" data-name="Trazado 643513" d="M189.389,58.292a2.754,2.754,0,1,1-.818-3.607,2.622,2.622,0,0,1,.818,3.607" transform="translate(-184.486 -54.146)" fill="#edffae"/>
                </g>
              </g>
            </g>
            <path id="Trazado_643514" data-name="Trazado 643514" d="M198.909,54.459a4.966,4.966,0,1,1-4.967-4.967,4.966,4.966,0,0,1,4.967,4.967" transform="translate(29.861 7.82)" fill="#aad63f"/>
            <g id="Grupo_1005100" data-name="Grupo 1005100" transform="translate(221.585 57.313)" opacity="0.44">
              <g id="Grupo_1005099" data-name="Grupo 1005099">
                <g id="Grupo_1005098" data-name="Grupo 1005098" clip-path="url(#clip-path-11)">
                  <path id="Trazado_643515" data-name="Trazado 643515" d="M196.817,54.116a3.072,3.072,0,1,1-.911-4.023,2.923,2.923,0,0,1,.911,4.023" transform="translate(-191.349 -49.493)" fill="#edffae"/>
                </g>
              </g>
            </g>
            <path id="Trazado_643516" data-name="Trazado 643516" d="M205.681,48.82a5.063,5.063,0,1,1-5.063-5.063,5.063,5.063,0,0,1,5.063,5.063" transform="translate(30.9 6.914)" fill="#aad63f"/>
            <g id="Grupo_1005103" data-name="Grupo 1005103" transform="translate(228.493 50.763)" opacity="0.44">
              <g id="Grupo_1005102" data-name="Grupo 1005102">
                <g id="Grupo_1005101" data-name="Grupo 1005101" clip-path="url(#clip-path-12)">
                  <path id="Trazado_643517" data-name="Trazado 643517" d="M202.89,48.55a3.131,3.131,0,1,1-.929-4.1,2.981,2.981,0,0,1,.929,4.1" transform="translate(-197.315 -43.836)" fill="#edffae"/>
                </g>
              </g>
            </g>
            <path id="Trazado_643518" data-name="Trazado 643518" d="M211.434,42.3a4.869,4.869,0,1,1-4.869-4.869,4.87,4.87,0,0,1,4.869,4.869" transform="translate(31.87 5.915)" fill="#aad63f"/>
            <g id="Grupo_1005106" data-name="Grupo 1005106" transform="translate(236.222 43.349)" opacity="0.44">
              <g id="Grupo_1005105" data-name="Grupo 1005105">
                <g id="Grupo_1005104" data-name="Grupo 1005104" clip-path="url(#clip-path-13)">
                  <path id="Trazado_643519" data-name="Trazado 643519" d="M209.35,41.967a3.012,3.012,0,1,1-.894-3.944,2.868,2.868,0,0,1,.894,3.944" transform="translate(-203.989 -37.434)" fill="#edffae"/>
                </g>
              </g>
            </g>
            <path id="Trazado_643520" data-name="Trazado 643520" d="M215.857,35.321a4.453,4.453,0,1,1-4.453-4.453,4.453,4.453,0,0,1,4.453,4.453" transform="translate(32.701 4.878)" fill="#aad63f"/>
            <g id="Grupo_1005109" data-name="Grupo 1005109" transform="translate(242.013 36)" opacity="0.44">
              <g id="Grupo_1005108" data-name="Grupo 1005108">
                <g id="Grupo_1005107" data-name="Grupo 1005107" clip-path="url(#clip-path-10)">
                  <path id="Trazado_643521" data-name="Trazado 643521" d="M213.893,35.233a2.754,2.754,0,1,1-.818-3.607,2.622,2.622,0,0,1,.818,3.607" transform="translate(-208.99 -31.087)" fill="#edffae"/>
                </g>
              </g>
            </g>
            <path id="Trazado_643522" data-name="Trazado 643522" d="M216.67,28.813a2.826,2.826,0,1,1-2.826-2.826,2.825,2.825,0,0,1,2.826,2.826" transform="translate(33.343 4.106)" fill="#aad63f"/>
            <g id="Grupo_1005112" data-name="Grupo 1005112" transform="translate(245.645 30.093)" opacity="0.44">
              <g id="Grupo_1005111" data-name="Grupo 1005111">
                <g id="Grupo_1005110" data-name="Grupo 1005110" clip-path="url(#clip-path-15)">
                  <path id="Trazado_643523" data-name="Trazado 643523" d="M215.238,28.617a1.748,1.748,0,1,1-.519-2.289,1.663,1.663,0,0,1,.519,2.289" transform="translate(-212.126 -25.987)" fill="#edffae"/>
                </g>
              </g>
            </g>
            <path id="Trazado_643524" data-name="Trazado 643524" d="M182.71,61.312a3.3,3.3,0,1,1-3.3-3.3,3.3,3.3,0,0,1,3.3,3.3" transform="translate(27.828 9.167)" fill="#aad63f"/>
            <g id="Grupo_1005115" data-name="Grupo 1005115" transform="translate(205.346 67.517)" opacity="0.44">
              <g id="Grupo_1005114" data-name="Grupo 1005114">
                <g id="Grupo_1005113" data-name="Grupo 1005113" clip-path="url(#clip-path-16)">
                  <path id="Trazado_643525" data-name="Trazado 643525" d="M180.959,61.376a2.04,2.04,0,1,1-.606-2.673,1.943,1.943,0,0,1,.606,2.673" transform="translate(-177.326 -58.304)" fill="#edffae"/>
                </g>
              </g>
            </g>
            <path id="Trazado_643526" data-name="Trazado 643526" d="M220.79,24.394a1.89,1.89,0,0,0-.357-.474c-1.028-.943-3.94-6.081.77-7.708s-5.994-1.027-8.049,7.708a1.612,1.612,0,0,0-.051.378,10.184,10.184,0,0,0-2.519,2.47c-.643.926,1.049.076,2.842-.529a1.65,1.65,0,0,0,.734.87c.946.5,2.632-.581,4.075-.306.358.14.646.284.906.413a2.482,2.482,0,0,1,1.049,1.729c.585,5.509,1.227-.658.857-1.884h0c.006-.016.009-.035.015-.051,1.839,1.19,1.9,2.507,1.9.892,0-.827-1.305-2.492-2.169-3.508" transform="translate(33.253 2.449)" fill="#cbdd38"/>
            <path id="Trazado_643527" data-name="Trazado 643527" d="M211.287,26.063a9.439,9.439,0,0,0,2.013-1.475c.278-.471.192-2.4,1.413-3.94s3.965-4.045,4.919-4.217-5.318,1.685-1.178,9.048c.922,1.639-.937.222-2.717.886a1.605,1.605,0,0,1-2.016-.412c-.4-.4-1.471-.11-1.471-.11a2.772,2.772,0,0,1-.963.221" transform="translate(33.386 2.595)" fill="#dde758"/>
            <path id="Trazado_643528" data-name="Trazado 643528" d="M163.717,64.639a4.966,4.966,0,1,1-4.967-4.967,4.966,4.966,0,0,1,4.967,4.967" transform="translate(24.3 9.429)" fill="#aad63f"/>
            <g id="Grupo_1005118" data-name="Grupo 1005118" transform="translate(180.832 69.101)" opacity="0.44">
              <g id="Grupo_1005117" data-name="Grupo 1005117">
                <g id="Grupo_1005116" data-name="Grupo 1005116" clip-path="url(#clip-path-11)">
                  <path id="Trazado_643529" data-name="Trazado 643529" d="M161.625,64.3a3.072,3.072,0,1,1-.911-4.023,2.923,2.923,0,0,1,.911,4.023" transform="translate(-156.157 -59.672)" fill="#edffae"/>
                </g>
              </g>
            </g>
            <path id="Trazado_643530" data-name="Trazado 643530" d="M229.648,53.038a3.926,3.926,0,1,1-3.927-3.927,3.927,3.927,0,0,1,3.927,3.927" transform="translate(35.047 7.76)" fill="#aad63f"/>
            <g id="Grupo_1005121" data-name="Grupo 1005121" transform="translate(259.014 56.871)" opacity="0.44">
              <g id="Grupo_1005120" data-name="Grupo 1005120">
                <g id="Grupo_1005119" data-name="Grupo 1005119" clip-path="url(#clip-path-18)">
                  <path id="Trazado_643531" data-name="Trazado 643531" d="M227.994,52.767a2.428,2.428,0,1,1-.72-3.181,2.312,2.312,0,0,1,.72,3.181" transform="translate(-223.671 -49.111)" fill="#edffae"/>
                </g>
              </g>
            </g>
            <path id="Trazado_643532" data-name="Trazado 643532" d="M170.625,75.461a3.926,3.926,0,1,1-3.927-3.927,3.927,3.927,0,0,1,3.927,3.927" transform="translate(25.72 11.303)" fill="#aad63f"/>
            <g id="Grupo_1005124" data-name="Grupo 1005124" transform="translate(190.664 82.838)" opacity="0.44">
              <g id="Grupo_1005123" data-name="Grupo 1005123">
                <g id="Grupo_1005122" data-name="Grupo 1005122" clip-path="url(#clip-path-18)">
                  <path id="Trazado_643533" data-name="Trazado 643533" d="M168.971,75.19a2.428,2.428,0,1,1-.72-3.181,2.312,2.312,0,0,1,.72,3.181" transform="translate(-164.648 -71.535)" fill="#edffae"/>
                </g>
              </g>
            </g>
            <path id="Trazado_643534" data-name="Trazado 643534" d="M71.979,25.043a13.1,13.1,0,0,1,7.7-7.333c5.8-2,17.879-3.926,18.146-1.562s-2.739,12.284-2.739,12.284Z" transform="translate(11.374 2.38)" fill="#024e0c"/>
            <path id="Trazado_643535" data-name="Trazado 643535" d="M90.724,19.491S98.2,11.66,105.735,13.7s8.6,7.954,8.6,7.954-14.232,13.064-23.613-2.161" transform="translate(14.336 2.111)" fill="#00500b"/>
            <path id="Trazado_643536" data-name="Trazado 643536" d="M91.146,27.968S83.774,14.78,69.277,25.635C63.9,29.659,67,37.8,67,37.8s8.449,43.4,20.291,40.277,11.528-6.232,13.834-12.019-9.976-38.092-9.976-38.092" transform="translate(10.446 3.374)" fill="#006912"/>
            <path id="Trazado_643537" data-name="Trazado 643537" d="M78.607,29.015s1.406-3.906,7.521-6.66-1.769-11.207-4.71-12.7,2.128-5.637,2.969-4.691S89.6,9.735,91.6,14.29s6.465,8.079,9.46,6.545-3.709,13.581-22.454,8.18" transform="translate(12.421 0.762)" fill="#518d23"/>
            <path id="Trazado_643538" data-name="Trazado 643538" d="M80.247,29.085a20.7,20.7,0,0,1,2.292-3.957c.88-1.123,5.33-1.679,5.978-3.056,3.054-6.5-6.221-12.1-7.207-13.6,0,0,.652-2.688,2.889.31,4.93,6.6,9.926,13.941,13.233,13.549,5.941-.705,1.712,4.752-2.117,3.41s-1.486.312-6.824,1.621Z" transform="translate(12.68 1.165)" fill="#7eb341"/>
            <path id="Trazado_643539" data-name="Trazado 643539" d="M100.231,67.3c.464,6.6,10.325,8.583,15.509,6.882s6.157-16.8,5.45-28.8S118.8,20.576,108.278,17.3c-5.369-1.676-9.347,1.87-12.43,4.015a20.48,20.48,0,0,0-5.315,5.477Z" transform="translate(14.305 2.664)" fill="#006912"/>
            <path id="Trazado_643540" data-name="Trazado 643540" d="M76.709,26.418s15.564-.254,23.746-4.471c3.339-1.721,14.374,5.482,11.717,30.214s-4.7,23.053-10.46,24.381-16.553-7.671-21.32-16.22S77.268,48.477,72.9,42.968s-1.677-14.92,3.811-16.55" transform="translate(11.175 3.43)" fill="#007d15"/>
          </g>
        </g>
        <g id="Grupo_1005128" data-name="Grupo 1005128" transform="translate(81.897 23.182)">
          <g id="Grupo_1005127" data-name="Grupo 1005127" clip-path="url(#clip-path-20)">
            <path id="Trazado_643541" data-name="Trazado 643541" d="M76.986,50.407S82.4,63.639,97.468,63.369s17.857-14.332,16.366-22.434-1.047-19.723-9.423-21.346-12.393,1.233-23.378,4.686S62.9,34.366,68.846,40.9s8.14,9.5,8.14,9.5" transform="translate(-71.358 -20.161)" fill="#00a71e"/>
          </g>
        </g>
        <g id="Grupo_1005136" data-name="Grupo 1005136" transform="translate(0 0)">
          <g id="Grupo_1005135" data-name="Grupo 1005135" clip-path="url(#clip-path)">
            <g id="Grupo_1005131" data-name="Grupo 1005131" transform="translate(86.649 32.369)" opacity="0.25">
              <g id="Grupo_1005130" data-name="Grupo 1005130">
                <g id="Grupo_1005129" data-name="Grupo 1005129" clip-path="url(#clip-path-22)">
                  <path id="Trazado_643543" data-name="Trazado 643543" d="M89.329,28.78s-11.186-3.493-13.807,3.868S78.391,49.475,80.1,51.955,75.78,37.994,81.428,33.2c5.512-4.684,7.982-3.295,7.9-4.416" transform="translate(-74.825 -27.952)" fill="#fff"/>
                </g>
              </g>
            </g>
            <g id="Grupo_1005134" data-name="Grupo 1005134" transform="translate(115.637 20.941)" opacity="0.25">
              <g id="Grupo_1005133" data-name="Grupo 1005133">
                <g id="Grupo_1005132" data-name="Grupo 1005132" clip-path="url(#clip-path-23)">
                  <path id="Trazado_643544" data-name="Trazado 643544" d="M99.858,18.447s10.136-3.029,14.321,8.406-4.271-9.086-14.321-8.406" transform="translate(-99.858 -18.083)" fill="#fff"/>
                </g>
              </g>
            </g>
          </g>
        </g>
      </g>
    </g>
  </g>
</svg>
