<svg xmlns="http://www.w3.org/2000/svg" xmlns:xlink="http://www.w3.org/1999/xlink" width="201.626" height="203.54" viewBox="0 0 201.626 203.54">
  <defs>
    <radialGradient id="radial-gradient" cx="0.076" cy="0.019" r="1.465" gradientTransform="translate(0.001)" gradientUnits="objectBoundingBox">
      <stop offset="0" stop-color="#f6f6f7"/>
      <stop offset="0.477" stop-color="#f9f9fa"/>
      <stop offset="0.715" stop-color="#fff"/>
    </radialGradient>
    <filter id="Trazado_40937" x="0" y="2.134" width="201.626" height="201.406" filterUnits="userSpaceOnUse">
      <feOffset dy="7" input="SourceAlpha"/>
      <feGaussianBlur stdDeviation="2.5" result="blur"/>
      <feFlood flood-opacity="0.102"/>
      <feComposite operator="in" in2="blur"/>
      <feComposite in="SourceGraphic"/>
    </filter>
  </defs>
  <g id="Grupo_1005354" data-name="Grupo 1005354" transform="translate(-232.395 -8937.154)">
    <g id="Grupo_1004798" data-name="Grupo 1004798" transform="translate(237.48 8937.154)">
      <g id="Grupo_1004059" data-name="Grupo 1004059" transform="translate(0 0)">
        <g id="Grupo_18423" data-name="Grupo 18423">
          <g id="Grupo_18421" data-name="Grupo 18421">
            <g id="Grupo_18420" data-name="Grupo 18420">
              <g id="Grupo_18419" data-name="Grupo 18419">
                <path id="Trazado_40936" data-name="Trazado 40936" d="M383.663,2240.238a94.52,94.52,0,1,1-94.519-94.517A94.519,94.519,0,0,1,383.663,2240.238Z" transform="translate(-194.623 -2145.721)" fill="#fff"/>
              </g>
            </g>
          </g>
          <g transform="matrix(1, 0, 0, 1, -5.09, 0)" filter="url(#Trazado_40937)">
            <path id="Trazado_40937-2" data-name="Trazado 40937" d="M382.1,2238.537a94.518,94.518,0,1,0-94.519,94.522A94.144,94.144,0,0,0,382.1,2238.537Z" transform="translate(-187.98 -2144.02)" fill="url(#radial-gradient)"/>
          </g>
          <g id="Grupo_18422" data-name="Grupo 18422" transform="translate(16.745 53.066)">
            <path id="Trazado_40939" data-name="Trazado 40939" d="M363.283,2164.488a94.531,94.531,0,0,1-162.738,94.128,94.231,94.231,0,0,0,162.738-94.128Z" transform="translate(-200.545 -2164.488)" fill="#eceef0"/>
          </g>
        </g>
      </g>
    </g>
    <g id="Page-1" transform="translate(265.001 8968.769)">
      <g id="_027---Tarantula" data-name="027---Tarantula" transform="translate(0.9 -0.034)">
        <g id="Grupo_1005144" data-name="Grupo 1005144">
          <path id="Shape" d="M44.995,19.428l-1.089,8.587L30,28.42V22.952C30,20.816,32.136,8,38.544,8c5.767,0,6.344,6.921,6.451,11.428Z" transform="translate(32.157 7.025)" fill="#804537"/>
          <path id="Shape-2" data-name="Shape" d="M37.975,22.952V28.42L27.957,28.7,22.98,20.56C23.023,16.2,23.172,8,29.431,8c6.408,0,8.544,12.816,8.544,14.952Z" transform="translate(24.182 7.025)" fill="#804537"/>
          <path id="Shape-3" data-name="Shape" d="M33.539,40.178a25.984,25.984,0,0,1-6.28-12.944,28.992,28.992,0,0,1-13.222-21.4,4.272,4.272,0,0,1,8.459-1.2A20.548,20.548,0,0,0,31.681,19.95a8.593,8.593,0,0,1,3.93,5.49,19.055,19.055,0,0,0,3.61,8.288Z" transform="translate(13.986 -0.888)" fill="#804537"/>
          <path id="Shape-4" data-name="Shape" d="M46.033,38.438c-3.119-1.2-17.537-7.2-24.265-15.4C20.273,22.311,15.1,20.3,6.09,21.8a4.272,4.272,0,1,1-1.41-8.416c14.076-2.35,21.509,2.264,22.3,2.8a4.157,4.157,0,0,1,1.047.983C31.978,22.439,41.7,27.352,47.187,29.7Z" transform="translate(-0.9 12.387)" fill="#804537"/>
          <path id="Shape-5" data-name="Shape" d="M48.721,34.485a200.17,200.17,0,0,1-27.6-1.816A34.3,34.3,0,0,0,9.333,48.69a4.272,4.272,0,0,1-4.058,2.926A4.219,4.219,0,0,1,3.929,51.4,4.272,4.272,0,0,1,1.216,46,42.592,42.592,0,0,1,16.061,25.792a8.576,8.576,0,0,1,6.622-1.517A181.8,181.8,0,0,0,45.965,25.92Z" transform="translate(-0.79 25.353)" fill="#804537"/>
          <path id="Shape-6" data-name="Shape" d="M45.085,28.384c.641-.427-8.881,6.194-17.432,5.953a8.559,8.559,0,0,0-8.16,4.934A124.852,124.852,0,0,1,8.387,59.2a4.084,4.084,0,0,0-.726,1.538,38.215,38.215,0,0,0,2.307,21.83,4.315,4.315,0,0,0,3.973,2.691,4.509,4.509,0,0,0,1.581-.3,4.272,4.272,0,0,0,2.392-5.554A31.123,31.123,0,0,1,15.82,63.514,147.657,147.657,0,0,0,27.355,42.859c8.264.31,16.53-3.877,20.565-5.613Z" transform="translate(6.03 30.158)" fill="#804537"/>
          <path id="Shape-7" data-name="Shape" d="M34.187,33.805a19.055,19.055,0,0,0,3.61-8.288,8.593,8.593,0,0,1,3.93-5.49A20.548,20.548,0,0,0,50.912,4.713a4.272,4.272,0,1,1,8.459,1.2,28.992,28.992,0,0,1-13.222,21.4,25.984,25.984,0,0,1-6.28,12.944Z" transform="translate(36.913 -0.966)" fill="#804537"/>
          <path id="Shape-8" data-name="Shape" d="M37.427,29.7c5.49-2.35,15.208-7.262,19.16-12.538a4.157,4.157,0,0,1,1.047-.983c.79-.534,8.224-5.148,22.3-2.8a4.272,4.272,0,0,1-1.41,8.416c-9.014-1.5-14.183.513-15.678,1.239-6.728,8.2-21.146,14.2-24.265,15.4Z" transform="translate(40.594 12.387)" fill="#804537"/>
          <path id="Shape-9" data-name="Shape" d="M39.409,25.92a181.8,181.8,0,0,0,23.282-1.645,8.576,8.576,0,0,1,6.622,1.517A42.592,42.592,0,0,1,84.158,46a4.272,4.272,0,0,1-2.713,5.4,4.218,4.218,0,0,1-1.339.214,4.272,4.272,0,0,1-4.058-2.926A34.3,34.3,0,0,0,64.257,32.67a200.17,200.17,0,0,1-27.6,1.816Z" transform="translate(39.722 25.353)" fill="#804537"/>
          <path id="Shape-10" data-name="Shape" d="M33,36.579c2.74.688,12.547,6.651,22.355,6.284A147.658,147.658,0,0,0,66.89,63.518,31.123,31.123,0,0,1,64.8,79.41a4.272,4.272,0,0,0,2.392,5.554,4.509,4.509,0,0,0,1.581.3,4.315,4.315,0,0,0,3.973-2.691,38.215,38.215,0,0,0,2.307-21.83,4.084,4.084,0,0,0-.726-1.538A124.852,124.852,0,0,1,63.216,39.275a8.559,8.559,0,0,0-8.16-4.934c-8.271.231-17.449-5.944-17.462-5.981Z" transform="translate(35.565 30.154)" fill="#804537"/>
          <path id="Shape-11" data-name="Shape" d="M27.55,69.1a2.136,2.136,0,0,1-1.895-1.147,11.65,11.65,0,0,1,3.221-15.467,2.136,2.136,0,1,1,2.683,3.324,7.425,7.425,0,0,0-2.119,10.165A2.136,2.136,0,0,1,27.55,69.1Z" transform="translate(25.338 56.996)" fill="#804537"/>
          <path id="Shape-12" data-name="Shape" d="M36.878,69.075a2.136,2.136,0,0,1-1.89-3.125,7.425,7.425,0,0,0-2.119-10.165,2.136,2.136,0,0,1,2.683-3.324,11.65,11.65,0,0,1,3.221,15.467,2.136,2.136,0,0,1-1.895,1.147Z" transform="translate(34.547 57.022)" fill="#804537"/>
        </g>
        <path id="Shape-13" data-name="Shape" d="M30.845,14.545A21.36,21.36,0,0,0,23.6,19.629a26.273,26.273,0,0,1-7.134-7.07A10.661,10.661,0,0,1,23.156,7.24,18.1,18.1,0,0,0,28.88,12.9a8.134,8.134,0,0,1,1.965,1.645Z" transform="translate(16.787 6.162)" fill="#f29c1f"/>
        <path id="Shape-14" data-name="Shape" d="M20.32,16.156a16.592,16.592,0,0,0-5.276,6.814,20.719,20.719,0,0,0-8.117-1.709,16.708,16.708,0,0,1,1.089-8.5A25.7,25.7,0,0,1,20.3,16.135a.021.021,0,0,1,.021.021Z" transform="translate(5.781 12.433)" fill="#f29c1f"/>
        <path id="Shape-15" data-name="Shape" d="M16.827,32.737a4.626,4.626,0,0,1-.534-.085,35.7,35.7,0,0,0-5.554,5.212,10.629,10.629,0,0,1-5.49-6.686,44,44,0,0,1,5.981-5.4,8.674,8.674,0,0,1,4.251-1.623,37.493,37.493,0,0,0,1.346,8.587Z" transform="translate(4.041 25.372)" fill="#f29c1f"/>
        <path id="Shape-16" data-name="Shape" d="M22.37,38.964c-1,2.093-2.371,4.891-3.952,7.946a8.852,8.852,0,0,1-7.049-5.041c1.367-2.67,2.456-5.02,3.161-6.536a8.209,8.209,0,0,1,3.033-3.5A17.582,17.582,0,0,0,22.37,38.964Z" transform="translate(10.993 34.096)" fill="#f29c1f"/>
        <path id="Shape-17" data-name="Shape" d="M15.822,53.677a13.13,13.13,0,0,1-8.544.577A36.953,36.953,0,0,1,7.449,43.98,22.129,22.129,0,0,0,15.8,45.988a27.87,27.87,0,0,0,.021,7.69Z" transform="translate(6.028 47.898)" fill="#f29c1f"/>
        <path id="Shape-18" data-name="Shape" d="M51.175,12.559a26.273,26.273,0,0,1-7.134,7.07A21.36,21.36,0,0,0,36.8,14.545,8.134,8.134,0,0,1,38.765,12.9,18.1,18.1,0,0,0,44.49,7.24,10.661,10.661,0,0,1,51.175,12.559Z" transform="translate(39.881 6.162)" fill="#f29c1f"/>
        <path id="Shape-19" data-name="Shape" d="M60.273,21.261a20.719,20.719,0,0,0-8.117,1.709,16.592,16.592,0,0,0-5.276-6.814.021.021,0,0,1,.021-.021A25.7,25.7,0,0,1,59.183,12.76a16.708,16.708,0,0,1,1.089,8.5Z" transform="translate(51.332 12.433)" fill="#f29c1f"/>
        <path id="Shape-20" data-name="Shape" d="M60.907,31.177a10.629,10.629,0,0,1-5.49,6.686,35.7,35.7,0,0,0-5.554-5.212,4.627,4.627,0,0,1-.534.085,37.494,37.494,0,0,0,1.346-8.587,8.674,8.674,0,0,1,4.251,1.623,44,44,0,0,1,5.981,5.4Z" transform="translate(54.115 25.372)" fill="#f29c1f"/>
        <path id="Shape-21" data-name="Shape" d="M57.414,54.254a13.13,13.13,0,0,1-8.544-.577,27.871,27.871,0,0,0,.021-7.69,22.129,22.129,0,0,0,8.352-2.008,36.953,36.953,0,0,1,.171,10.274Z" transform="translate(53.593 47.898)" fill="#f29c1f"/>
        <path id="Shape-22" data-name="Shape" d="M54.48,41.869a8.852,8.852,0,0,1-7.049,5.041c-1.581-3.054-2.948-5.853-3.952-7.946a17.581,17.581,0,0,0,4.806-7.134,8.209,8.209,0,0,1,3.033,3.5C52.024,36.85,53.113,39.2,54.48,41.869Z" transform="translate(47.47 34.096)" fill="#f29c1f"/>
        <path id="Shape-23" data-name="Shape" d="M51.157,47.852a20.454,20.454,0,0,0,5.02-13.628C56.176,23.608,48.53,15,39.089,15S22,23.608,22,34.224a20.454,20.454,0,0,0,5.02,13.628Z" transform="translate(23.068 14.977)" fill="#a65a47"/>
        <path id="Shape-24" data-name="Shape" d="M65.992,60.04c0,15.336-10.52,23.5-23.5,23.5S19,75.376,19,60.04,29.52,28,42.5,28,65.992,44.7,65.992,60.04Z" transform="translate(19.661 29.745)" fill="#cc6f56"/>
      </g>
    </g>
  </g>
</svg>
