<svg xmlns="http://www.w3.org/2000/svg" xmlns:xlink="http://www.w3.org/1999/xlink" width="201.626" height="203.54" viewBox="0 0 201.626 203.54">
  <defs>
    <radialGradient id="radial-gradient" cx="0.076" cy="0.019" r="1.465" gradientTransform="translate(0.001)" gradientUnits="objectBoundingBox">
      <stop offset="0" stop-color="#f6f6f7"/>
      <stop offset="0.477" stop-color="#f9f9fa"/>
      <stop offset="0.715" stop-color="#fff"/>
    </radialGradient>
    <filter id="Trazado_40937" x="0" y="2.133" width="201.626" height="201.407" filterUnits="userSpaceOnUse">
      <feOffset dy="7" input="SourceAlpha"/>
      <feGaussianBlur stdDeviation="2.5" result="blur"/>
      <feFlood flood-opacity="0.102"/>
      <feComposite operator="in" in2="blur"/>
      <feComposite in="SourceGraphic"/>
    </filter>
  </defs>
  <g id="Grupo_1005355" data-name="Grupo 1005355" transform="translate(-542.394 -8937.154)">
    <g id="Grupo_1004799" data-name="Grupo 1004799" transform="translate(547.479 8937.154)">
      <g id="Grupo_1004059" data-name="Grupo 1004059" transform="translate(0 0)">
        <g id="Grupo_18423" data-name="Grupo 18423">
          <g id="Grupo_18421" data-name="Grupo 18421">
            <g id="Grupo_18420" data-name="Grupo 18420">
              <g id="Grupo_18419" data-name="Grupo 18419">
                <path id="Trazado_40936" data-name="Trazado 40936" d="M383.663,2240.238a94.52,94.52,0,1,1-94.519-94.517A94.519,94.519,0,0,1,383.663,2240.238Z" transform="translate(-194.623 -2145.721)" fill="#fff"/>
              </g>
            </g>
          </g>
          <g transform="matrix(1, 0, 0, 1, -5.09, 0)" filter="url(#Trazado_40937)">
            <path id="Trazado_40937-2" data-name="Trazado 40937" d="M382.1,2238.537a94.518,94.518,0,1,0-94.519,94.522A94.144,94.144,0,0,0,382.1,2238.537Z" transform="translate(-187.98 -2144.02)" fill="url(#radial-gradient)"/>
          </g>
          <g id="Grupo_18422" data-name="Grupo 18422" transform="translate(16.745 53.066)">
            <path id="Trazado_40939" data-name="Trazado 40939" d="M363.283,2164.488a94.531,94.531,0,0,1-162.738,94.128,94.231,94.231,0,0,0,162.738-94.128Z" transform="translate(-200.545 -2164.488)" fill="#eceef0"/>
          </g>
        </g>
      </g>
    </g>
    <g id="Grupo_1005140" data-name="Grupo 1005140" transform="translate(590.159 8975.282)">
      <path id="Trazado_643545" data-name="Trazado 643545" d="M145.836,128.053a3.383,3.383,0,0,1-.656,1.8,3.282,3.282,0,0,1-3.642,1.178,19.511,19.511,0,0,0-9.908-.441c-1.717.446-3.351,1.012-4.931,1.557a50.262,50.262,0,0,1-6.81,1.994c-15.764,3.124-31.751-11.919-34.859-23.6-3.055-10.414-.037-17.436,2.623-23.634,2.271-5.287,4.235-9.857,2.71-16.156a26.69,26.69,0,0,0-8.845-13.363,2.235,2.235,0,0,0-.665-.386c-9.1-4.767-16.861-18.641-6.075-30.4a18.173,18.173,0,0,1,9.291,4.159,17.476,17.476,0,0,1,6.449,12.917,2.272,2.272,0,0,0,.823,1.712,42.255,42.255,0,0,1,14.031,21.448c3.055,10.4.039,17.439-2.623,23.65-2.271,5.3-4.231,9.871-2.71,16.142.018.069.041.162.069.273,1.481,5.964,5.946,16,19.213,16.182a31.268,31.268,0,0,0,5.76-.638,32.546,32.546,0,0,1,7.549-.679,27.556,27.556,0,0,1,11.413,3.131,3.268,3.268,0,0,1,1.793,3.145Z" transform="translate(-53.935 -21.562)" fill="#fdc072"/>
      <path id="Trazado_643546" data-name="Trazado 643546" d="M26.917,39.547a2.226,2.226,0,0,0-1.192-.111,17.424,17.424,0,0,1-14.1-4.062,18.18,18.18,0,0,1-5.71-8.427l-.141-.118L1.2,24.329A2.311,2.311,0,0,1,.867,20.5l1.65-1.322a4.619,4.619,0,0,0,1.546-4.9l-.594-2.029A2.312,2.312,0,0,1,5.941,9.3l2.1.233A4.622,4.622,0,0,0,12.6,7.156L13.617,5.3a2.311,2.311,0,0,1,3.831-.335L20.7,9.032l.141.118c-5.679,11.949.943,25.779,6.075,30.4Z" transform="translate(0 -4.101)" fill="#fab658"/>
      <g id="Grupo_1005139" data-name="Grupo 1005139" transform="translate(13.142 11.713)">
        <path id="Trazado_643547" data-name="Trazado 643547" d="M62.359,114.465a1.726,1.726,0,0,1-1.113-.406l-2.036-1.709a1.733,1.733,0,1,1,2.228-2.655l2.036,1.709a1.733,1.733,0,0,1-1.115,3.061Z" transform="translate(-58.59 -97.41)" fill="#666667"/>
        <path id="Trazado_643548" data-name="Trazado 643548" d="M106.8,61.5a1.727,1.727,0,0,1-1.113-.405l-2.037-1.709a1.733,1.733,0,0,1,2.228-2.655l2.037,1.709A1.733,1.733,0,0,1,106.8,61.5Z" transform="translate(-93.066 -56.323)" fill="#666667"/>
      </g>
    </g>
    <g id="Grupo_1005143" data-name="Grupo 1005143" transform="translate(613.092 8975.282)">
      <g id="Grupo_1005141" data-name="Grupo 1005141">
        <path id="Trazado_643549" data-name="Trazado 643549" d="M188.381,97.805l-.141.118a18.18,18.18,0,0,1-5.71,8.427,17.425,17.425,0,0,1-14.1,4.062,2.274,2.274,0,0,0-1.858.5,26.691,26.691,0,0,0-8.845,13.363c-1.525,6.3.439,10.87,2.71,16.156,2.66,6.2,5.677,13.22,2.623,23.634-3.108,11.681-19.1,26.723-34.859,23.6a50.252,50.252,0,0,1-6.81-1.994c-1.581-.545-3.214-1.111-4.931-1.557a19.511,19.511,0,0,0-9.908.441,3.4,3.4,0,0,1-1.01.155,3.211,3.211,0,0,1-1.111-.2,3.342,3.342,0,0,1-2.177-2.941,3.268,3.268,0,0,1,1.793-3.145,27.555,27.555,0,0,1,11.413-3.131,32.533,32.533,0,0,1,7.549.679,31.253,31.253,0,0,0,5.76.638c13.268-.185,17.732-10.218,19.213-16.182.028-.111.051-.2.069-.273,1.521-6.271-.439-10.846-2.71-16.142-.525-1.225-1.063-2.482-1.567-3.792-2.08-7.65.833-23.272,7.763-31.063,18.655-20.979,36.848-11.352,36.848-11.352Z" transform="translate(-102.243 -75.077)" fill="#ffd9a0"/>
        <path id="Trazado_643550" data-name="Trazado 643550" d="M328.476,24.33l-4.568,2.5s-17.649-5.635-36.3,15.343c-6.929,7.792-8.984,18.659-8.307,27.072a28.9,28.9,0,0,1-1.056-19.858,42.253,42.253,0,0,1,14.031-21.448,2.271,2.271,0,0,0,.822-1.712,17.475,17.475,0,0,1,6.449-12.917,18.173,18.173,0,0,1,9.291-4.159l.141-.118,3.253-4.065a2.311,2.311,0,0,1,3.831.335l1.014,1.853a4.622,4.622,0,0,0,4.561,2.375l2.1-.233a2.312,2.312,0,0,1,2.472,2.946l-.594,2.029a4.619,4.619,0,0,0,1.546,4.9l1.65,1.322A2.311,2.311,0,0,1,328.476,24.33Z" transform="translate(-237.769 -4.102)" fill="#fdcb89"/>
      </g>
      <g id="Grupo_1005142" data-name="Grupo 1005142" transform="translate(63.295 11.713)">
        <path id="Trazado_643551" data-name="Trazado 643551" d="M430.61,114.466a1.733,1.733,0,0,1-1.115-3.061l2.037-1.709a1.733,1.733,0,0,1,2.228,2.655l-2.037,1.709A1.725,1.725,0,0,1,430.61,114.466Z" transform="translate(-418.907 -97.41)" fill="#666667"/>
        <path id="Trazado_643552" data-name="Trazado 643552" d="M386.166,61.5a1.733,1.733,0,0,1-1.115-3.061l2.036-1.709a1.733,1.733,0,1,1,2.228,2.655l-2.036,1.709A1.725,1.725,0,0,1,386.166,61.5Z" transform="translate(-384.432 -56.322)" fill="#666667"/>
      </g>
    </g>
  </g>
</svg>
