<svg xmlns="http://www.w3.org/2000/svg" xmlns:xlink="http://www.w3.org/1999/xlink" width="201.626" height="203.54" viewBox="0 0 201.626 203.54">
  <defs>
    <radialGradient id="radial-gradient" cx="0.076" cy="0.019" r="1.465" gradientTransform="translate(0.001)" gradientUnits="objectBoundingBox">
      <stop offset="0" stop-color="#f6f6f7"/>
      <stop offset="0.477" stop-color="#f9f9fa"/>
      <stop offset="0.715" stop-color="#fff"/>
    </radialGradient>
    <filter id="Trazado_40937" x="0" y="2.133" width="201.626" height="201.407" filterUnits="userSpaceOnUse">
      <feOffset dy="7" input="SourceAlpha"/>
      <feGaussianBlur stdDeviation="2.5" result="blur"/>
      <feFlood flood-opacity="0.102"/>
      <feComposite operator="in" in2="blur"/>
      <feComposite in="SourceGraphic"/>
    </filter>
  </defs>
  <g id="Grupo_1005357" data-name="Grupo 1005357" transform="translate(-1164.874 -8945.154)">
    <g id="Grupo_1004801" data-name="Grupo 1004801" transform="translate(1169.959 8945.154)">
      <g id="Grupo_1004059" data-name="Grupo 1004059" transform="translate(0 0)">
        <g id="Grupo_18423" data-name="Grupo 18423">
          <g id="Grupo_18421" data-name="Grupo 18421">
            <g id="Grupo_18420" data-name="Grupo 18420">
              <g id="Grupo_18419" data-name="Grupo 18419">
                <path id="Trazado_40936" data-name="Trazado 40936" d="M383.663,2240.238a94.52,94.52,0,1,1-94.519-94.517A94.519,94.519,0,0,1,383.663,2240.238Z" transform="translate(-194.623 -2145.721)" fill="#fff"/>
              </g>
            </g>
          </g>
          <g transform="matrix(1, 0, 0, 1, -5.09, 0)" filter="url(#Trazado_40937)">
            <path id="Trazado_40937-2" data-name="Trazado 40937" d="M382.1,2238.537a94.518,94.518,0,1,0-94.519,94.522A94.144,94.144,0,0,0,382.1,2238.537Z" transform="translate(-187.98 -2144.02)" fill="url(#radial-gradient)"/>
          </g>
          <g id="Grupo_18422" data-name="Grupo 18422" transform="translate(16.745 53.066)">
            <path id="Trazado_40939" data-name="Trazado 40939" d="M363.283,2164.488a94.531,94.531,0,0,1-162.738,94.128,94.231,94.231,0,0,0,162.738-94.128Z" transform="translate(-200.545 -2164.488)" fill="#eceef0"/>
          </g>
        </g>
      </g>
    </g>
    <g id="bacterias" transform="translate(1210 8985.159)">
      <path id="Trazado_643553" data-name="Trazado 643553" d="M109.932,27.309l6.91-1.984-1.891-6.581-6.884,1.976A22.9,22.9,0,0,0,96.12,8.775L98.1,1.891,91.516,0,89.532,6.91a23.915,23.915,0,0,0-16.5,3.692l-4.72-5.269L63.212,9.9l4.651,5.191-9.958,9.958-4.841-4.841-4.841,4.841,4.841,4.841-9.826,9.826L38.4,34.875l-4.841,4.841L38.4,44.557l-7.777,7.777a23.738,23.738,0,0,0-2.482,3.04l-6.361-3.293-3.149,6.08L24.893,61.4C13.313,71.414,10.483,82.572,8.818,85.708A17.057,17.057,0,0,1,4.27,91.9l4.453,5.2a23.977,23.977,0,0,0,6.387-8.694c1.952-4.047,3.141-9.1,8.8-16.107a23.685,23.685,0,0,0,2.521,8.215c-2.536,4.131-2.8,5.639-5.026,10.587C17.954,99.151,8.3,105.807,0,108.573l2.067,6.2.1.294c10.155-3.385,21.31-11.426,25.529-21.267.826-1.812,3.065-6.724,3.322-7.24a23.545,23.545,0,0,0,5.566,3.967c-.035.079-1.948,4.478-2.6,5.97a45.974,45.974,0,0,1-10.441,15.35l4.681,4.992A52.7,52.7,0,0,0,40.277,99.2c1.4-3.139,1.012-2.606,2.889-6.463a24.3,24.3,0,0,0,12.213-.9l3.3,6.38,6.08-3.149L61.468,88.7a23.72,23.72,0,0,0,3.04-2.482l7.777-7.777,4.841,4.841,4.841-4.841L77.126,73.6l9.826-9.826,4.841,4.841,4.841-4.841-4.841-4.841,9.958-9.958,5.191,4.651,4.567-5.1-5.269-4.72a23.915,23.915,0,0,0,3.692-16.5Z" transform="translate(0 0)" fill="#b6de3d"/>
      <path id="Trazado_643554" data-name="Trazado 643554" d="M34.685,139.817c.826-1.812,3.065-6.724,3.322-7.24a23.546,23.546,0,0,0,5.566,3.967c-.035.079-1.948,4.478-2.6,5.97a45.974,45.974,0,0,1-10.441,15.35l4.68,4.992a52.7,52.7,0,0,0,12.053-17.643c1.4-3.139,1.012-2.606,2.889-6.463a24.3,24.3,0,0,0,12.213-.9l3.3,6.38,6.08-3.149-3.293-6.361a23.719,23.719,0,0,0,3.04-2.482l7.777-7.777,4.841,4.841,4.841-4.841-4.841-4.841,9.826-9.826,4.841,4.841,4.841-4.841-4.841-4.841,9.958-9.958,5.191,4.651,4.567-5.1-5.269-4.72a23.915,23.915,0,0,0,3.692-16.5l6.91-1.984-1.891-6.581-6.884,1.976a23.716,23.716,0,0,0-4.831-7.115L9.058,160.789l.1.294c10.155-3.385,21.31-11.426,25.529-21.267Z" transform="translate(-6.991 -46.015)" fill="#75c34e"/>
      <path id="Trazado_643555" data-name="Trazado 643555" d="M29.5,39.792a10.221,10.221,0,0,0,1.186-1.453l7.2,1.928,1.773-6.614-7.232-1.937a10.211,10.211,0,0,0-.95-3.581l5.287-5.287-2.421-2.421L31.92,18.007l-5.287,5.287a10.207,10.207,0,0,0-3.581-.95l-1.937-7.232L14.5,16.885l1.928,7.2a9.332,9.332,0,0,0-2.639,2.639l-7.2-1.928L4.82,31.408l7.232,1.937A10.211,10.211,0,0,0,13,36.925L7.715,42.212l2.421,2.421,2.421,2.421,5.287-5.287a10.207,10.207,0,0,0,3.581.95l1.937,7.232,6.614-1.773-1.928-7.2A10.223,10.223,0,0,0,29.5,39.792Z" transform="translate(-3.72 -11.663)" fill="#ffe477"/>
      <path id="Trazado_643556" data-name="Trazado 643556" d="M35.822,59.746a10.207,10.207,0,0,0,3.581.95l1.937,7.232,6.614-1.773-1.928-7.2a9.332,9.332,0,0,0,2.639-2.639l7.2,1.928,1.773-6.614L50.4,49.7a10.211,10.211,0,0,0-.95-3.581l5.287-5.287L52.32,38.408l-24.2,24.2,2.421,2.421Z" transform="translate(-21.699 -29.643)" fill="#ffcd00"/>
      <path id="Trazado_643557" data-name="Trazado 643557" d="M201.4,63.908a17.135,17.135,0,0,0-24.2,0l-38.728,38.728a17.115,17.115,0,0,0,24.2,24.2L201.4,88.113A17.135,17.135,0,0,0,201.4,63.908Z" transform="translate(-103.006 -45.461)" fill="#75c34e"/>
      <path id="Trazado_643558" data-name="Trazado 643558" d="M179.6,143.767l38.728-38.728a17.135,17.135,0,0,0,0-24.2l-62.933,62.933A17.136,17.136,0,0,0,179.6,143.767Z" transform="translate(-119.932 -62.387)" fill="#32a632"/>
      <g id="Grupo_1005145" data-name="Grupo 1005145" transform="translate(63.572 27.059)">
        <path id="Trazado_643559" data-name="Trazado 643559" d="M278.575,131.68a13.117,13.117,0,0,1,13.1-13.1v6.845a6.267,6.267,0,0,0-6.259,6.259Z" transform="translate(-278.575 -118.575)" fill="#4a696f"/>
      </g>
      <g id="Grupo_1005146" data-name="Grupo 1005146" transform="translate(44.142 46.457)">
        <path id="Trazado_643560" data-name="Trazado 643560" d="M193.429,216.68a13.117,13.117,0,0,1,13.1-13.1v6.846a6.267,6.267,0,0,0-6.259,6.259Z" transform="translate(-193.429 -203.575)" fill="#4a696f"/>
      </g>
      <g id="Grupo_1005147" data-name="Grupo 1005147" transform="translate(64.81 47.923)">
        <path id="Trazado_643561" data-name="Trazado 643561" d="M284,223.1v-6.845A6.267,6.267,0,0,0,290.259,210H297.1A13.117,13.117,0,0,1,284,223.1Z" transform="translate(-284 -210)" fill="#384949"/>
      </g>
      <g id="Grupo_1005148" data-name="Grupo 1005148" transform="translate(45.185 66.864)">
        <path id="Trazado_643562" data-name="Trazado 643562" d="M198,306.1v-6.845A6.267,6.267,0,0,0,204.259,293H211.1A13.117,13.117,0,0,1,198,306.1Z" transform="translate(-198 -293)" fill="#384949"/>
      </g>
      <g id="Grupo_1005149" data-name="Grupo 1005149" transform="translate(83.751 28.069)">
        <path id="Trazado_643563" data-name="Trazado 643563" d="M367,136.1v-6.845A6.267,6.267,0,0,0,373.259,123H380.1A13.117,13.117,0,0,1,367,136.1Z" transform="translate(-367 -123)" fill="#384949"/>
      </g>
      <circle id="Elipse_7696" data-name="Elipse 7696" cx="3.423" cy="3.423" r="3.423" transform="translate(15.095 17.444)" fill="#4a696f"/>
      <path id="Trazado_643564" data-name="Trazado 643564" d="M75.383,85.675a3.423,3.423,0,0,0,0-4.841l-4.841,4.841A3.423,3.423,0,0,0,75.383,85.675Z" transform="translate(-54.444 -62.387)" fill="#384949"/>
      <path id="Trazado_643565" data-name="Trazado 643565" d="M368.912,379.2a10.221,10.221,0,0,0,1.186-1.453l7.2,1.928,1.773-6.614-7.232-1.937a10.211,10.211,0,0,0-.95-3.581l5.287-5.287-2.421-2.421-2.421-2.421-5.287,5.287a10.206,10.206,0,0,0-3.581-.951l-1.937-7.232-6.614,1.773,1.928,7.2a9.33,9.33,0,0,0-2.639,2.639l-7.2-1.928-1.773,6.614,7.232,1.937a10.211,10.211,0,0,0,.95,3.581l-5.287,5.287,2.421,2.421,2.421,2.421,5.287-5.287a10.206,10.206,0,0,0,3.581.95l1.937,7.232,6.614-1.773-1.928-7.2A10.239,10.239,0,0,0,368.912,379.2Z" transform="translate(-265.676 -273.62)" fill="#ffe477"/>
      <path id="Trazado_643566" data-name="Trazado 643566" d="M375.233,399.157a10.206,10.206,0,0,0,3.581.95l1.937,7.232,6.614-1.773-1.928-7.2a9.331,9.331,0,0,0,2.639-2.639l7.2,1.928,1.773-6.614-7.232-1.937a10.211,10.211,0,0,0-.951-3.581l5.287-5.287-2.421-2.421-24.2,24.2,2.421,2.421Z" transform="translate(-283.654 -291.599)" fill="#ffcd00"/>
      <circle id="Elipse_7697" data-name="Elipse 7697" cx="3.423" cy="3.423" r="3.423" transform="translate(92.551 94.9)" fill="#4a696f"/>
      <path id="Trazado_643567" data-name="Trazado 643567" d="M414.794,425.086a3.423,3.423,0,0,0,0-4.841l-4.841,4.841A3.423,3.423,0,0,0,414.794,425.086Z" transform="translate(-316.399 -324.343)" fill="#384949"/>
    </g>
  </g>
</svg>
